# MagicaVoxel @ Ephtracy

# group
o 

# material
mtllib muro3.mtl
usemtl palette

# normals
vn -1 0 0
vn 1 0 0
vn 0 0 1
vn 0 0 -1
vn 0 -1 0
vn 0 1 0

# texcoords
vt 0.0175781 0.5
vt 0.0488281 0.5

# verts
v -1.3 0 -0.1
v -1.3 0 -0.2
v -1.3 0.1 -0.1
v -1.3 0.1 -0.2
v -1.2 0 0.1
v -1.2 0 -0.1
v -1.2 0.1 0.1
v -1.2 0.1 -0.1
v -1.1 0.1 0.1
v -1.1 0.1 0
v -1.1 0.1 -0.2
v -1.1 0.2 0.1
v -1.1 0.2 0
v -1.1 0.2 -0.2
v -1 0.2 0.1
v -1 0.2 0
v -1 0.3 0.1
v -1 0.3 0
v -0.9 0.2 0
v -0.9 0.2 -0.1
v -0.9 0.3 0
v -0.9 0.3 -0.1
v -0.7 0.2 0
v -0.7 0.2 -0.2
v -0.7 0.3 0
v -0.7 0.3 -0.1
v -0.7 0.3 -0.2
v -0.7 0.4 0
v -0.7 0.4 -0.1
v -0.6 0.3 0.1
v -0.6 0.3 0
v -0.6 0.3 -0.1
v -0.6 0.3 -0.2
v -0.6 0.4 0.1
v -0.6 0.4 0
v -0.6 0.4 -0.1
v -0.6 0.4 -0.2
v -0.5 0.4 0.1
v -0.5 0.4 -0.2
v -0.5 0.5 0.1
v -0.5 0.5 -0.2
v -0.4 0.5 0.1
v -0.4 0.5 -0.2
v -0.4 0.6 0.1
v -0.4 0.6 -0.2
v -0.3 0.6 0.1
v -0.3 0.6 -0.2
v -0.3 0.7 -0.1
v -0.3 0.7 -0.2
v -0.3 0.8 0.1
v -0.3 0.8 -0.1
v -0.2 0.7 -0.1
v -0.2 0.7 -0.2
v -0.2 0.8 -0.1
v -0.2 0.8 -0.2
v -0.8 0.2 0
v -0.8 0.2 -0.1
v -0.8 0.3 0
v -0.8 0.3 -0.1
v 1.3 0 0.1
v 1.3 0 -0.2
v 1.3 0.5 0.1
v 1.3 0.5 -0.2
v 1.3 0.6 0.1
v 1.3 0.6 -0.2
v 1.3 0.8 0.1
v 1.3 0.8 -0.2
v -1.2 0 0.1
v -1.2 0.1 0.1
v -1.1 0.1 0.1
v -1.1 0.2 0.1
v -1 0.2 0.1
v -1 0.3 0.1
v -0.9 0.2 0.1
v -0.9 0.3 0.1
v -0.8 0.2 0.1
v -0.8 0.3 0.1
v -0.7 0 0.1
v -0.7 0.1 0.1
v -0.6 0 0.1
v -0.6 0.1 0.1
v -0.6 0.2 0.1
v -0.6 0.3 0.1
v -0.6 0.4 0.1
v -0.5 0.4 0.1
v -0.5 0.5 0.1
v -0.4 0 0.1
v -0.4 0.1 0.1
v -0.4 0.5 0.1
v -0.4 0.6 0.1
v -0.3 0.2 0.1
v -0.3 0.3 0.1
v -0.3 0.4 0.1
v -0.3 0.5 0.1
v -0.3 0.6 0.1
v -0.3 0.8 0.1
v -0.2 0 0.1
v -0.2 0.1 0.1
v -0.2 0.5 0.1
v -0.2 0.6 0.1
v -0.2 0.7 0.1
v -0.2 0.8 0.1
v -0.1 0.2 0.1
v -0.1 0.3 0.1
v -0.1 0.4 0.1
v -0.1 0.5 0.1
v -1.19209e-07 0 0.1
v -1.19209e-07 0.1 0.1
v -1.19209e-07 0.5 0.1
v -1.19209e-07 0.6 0.1
v 0.0999999 0.7 0.1
v 0.0999999 0.8 0.1
v 0.2 0 0.1
v 0.2 0.1 0.1
v 0.2 0.3 0.1
v 0.2 0.4 0.1
v 0.3 0 0.1
v 0.3 0.1 0.1
v 0.3 0.5 0.1
v 0.3 0.6 0.1
v 0.4 0.3 0.1
v 0.4 0.4 0.1
v 0.5 0 0.1
v 0.5 0.1 0.1
v 0.5 0.2 0.1
v 0.5 0.3 0.1
v 0.5 0.4 0.1
v 0.5 0.5 0.1
v 0.5 0.7 0.1
v 0.5 0.8 0.1
v 0.6 0.2 0.1
v 0.6 0.3 0.1
v 0.6 0.4 0.1
v 0.6 0.5 0.1
v 0.7 0 0.1
v 0.7 0.1 0.1
v 0.7 0.5 0.1
v 0.7 0.6 0.1
v 0.8 0.7 0.1
v 0.8 0.8 0.1
v 0.9 0 0.1
v 0.9 0.1 0.1
v 0.9 0.3 0.1
v 0.9 0.4 0.1
v 1 0 0.1
v 1 0.1 0.1
v 1 0.5 0.1
v 1 0.6 0.1
v 1.1 0.3 0.1
v 1.1 0.4 0.1
v 1.2 0.5 0.1
v 1.2 0.6 0.1
v 1.3 0 0.1
v 1.3 0.5 0.1
v 1.3 0.6 0.1
v 1.3 0.8 0.1
v -0.7 0.3 0
v -0.7 0.4 0
v -0.6 0.3 0
v -0.6 0.4 0
v -1.3 0 -0.1
v -1.3 0.1 -0.1
v -1.2 0 -0.1
v -1.2 0.1 -0.1
v -1 0.2 0
v -1 0.3 0
v -0.9 0.2 0
v -0.9 0.3 0
v -0.8 0.2 0
v -0.8 0.3 0
v -0.7 0.2 0
v -0.7 0.3 0
v -0.9 0.2 -0.1
v -0.9 0.3 -0.1
v -0.8 0.2 -0.1
v -0.8 0.3 -0.1
v -0.7 0.3 -0.1
v -0.7 0.4 -0.1
v -0.6 0.3 -0.1
v -0.6 0.4 -0.1
v -0.3 0.7 -0.1
v -0.3 0.8 -0.1
v -0.2 0.7 -0.1
v -0.2 0.8 -0.1
v -1.3 0 -0.2
v -1.3 0.1 -0.2
v -1.1 0.1 -0.2
v -1.1 0.2 -0.2
v -1 0.1 -0.2
v -1 0.2 -0.2
v -0.9 0 -0.2
v -0.9 0.1 -0.2
v -0.8 0 -0.2
v -0.8 0.1 -0.2
v -0.7 0 -0.2
v -0.7 0.1 -0.2
v -0.7 0.2 -0.2
v -0.7 0.3 -0.2
v -0.6 0 -0.2
v -0.6 0.1 -0.2
v -0.6 0.3 -0.2
v -0.6 0.4 -0.2
v -0.5 0.2 -0.2
v -0.5 0.3 -0.2
v -0.5 0.4 -0.2
v -0.5 0.5 -0.2
v -0.4 0.3 -0.2
v -0.4 0.4 -0.2
v -0.4 0.5 -0.2
v -0.4 0.6 -0.2
v -0.3 0 -0.2
v -0.3 0.1 -0.2
v -0.3 0.2 -0.2
v -0.3 0.3 -0.2
v -0.3 0.6 -0.2
v -0.3 0.7 -0.2
v -0.2 0.3 -0.2
v -0.2 0.4 -0.2
v -0.2 0.5 -0.2
v -0.2 0.6 -0.2
v -0.2 0.7 -0.2
v -0.2 0.8 -0.2
v -0.1 0 -0.2
v -0.1 0.1 -0.2
v -0.1 0.2 -0.2
v -0.1 0.3 -0.2
v -0.1 0.7 -0.2
v -0.1 0.8 -0.2
v 0.0999999 0 -0.2
v 0.0999999 0.1 -0.2
v 0.0999999 0.5 -0.2
v 0.0999999 0.6 -0.2
v 0.0999999 0.7 -0.2
v 0.0999999 0.8 -0.2
v 0.2 0 -0.2
v 0.2 0.1 -0.2
v 0.2 0.2 -0.2
v 0.2 0.4 -0.2
v 0.2 0.7 -0.2
v 0.2 0.8 -0.2
v 0.3 0.3 -0.2
v 0.3 0.4 -0.2
v 0.3 0.5 -0.2
v 0.3 0.6 -0.2
v 0.4 0.2 -0.2
v 0.4 0.3 -0.2
v 0.5 0 -0.2
v 0.5 0.1 -0.2
v 0.5 0.2 -0.2
v 0.5 0.3 -0.2
v 0.5 0.4 -0.2
v 0.5 0.5 -0.2
v 0.5 0.7 -0.2
v 0.5 0.8 -0.2
v 0.6 0 -0.2
v 0.6 0.1 -0.2
v 0.6 0.2 -0.2
v 0.6 0.3 -0.2
v 0.6 0.7 -0.2
v 0.6 0.8 -0.2
v 0.8 0 -0.2
v 0.8 0.1 -0.2
v 0.8 0.5 -0.2
v 0.8 0.6 -0.2
v 0.8 0.7 -0.2
v 0.8 0.8 -0.2
v 0.9 0 -0.2
v 0.9 0.1 -0.2
v 0.9 0.2 -0.2
v 0.9 0.4 -0.2
v 0.9 0.7 -0.2
v 0.9 0.8 -0.2
v 1 0.3 -0.2
v 1 0.4 -0.2
v 1 0.5 -0.2
v 1 0.6 -0.2
v 1.1 0.2 -0.2
v 1.1 0.3 -0.2
v 1.2 0 -0.2
v 1.2 0.1 -0.2
v 1.2 0.4 -0.2
v 1.2 0.5 -0.2
v 1.2 0.6 -0.2
v 1.2 0.7 -0.2
v 1.2 0.8 -0.2
v 1.3 0 -0.2
v 1.3 0.5 -0.2
v 1.3 0.6 -0.2
v 1.3 0.8 -0.2
v -1.2 0 0.1
v -0.7 0 0.1
v -0.6 0 0.1
v -0.4 0 0.1
v -0.2 0 0.1
v -1.19209e-07 0 0.1
v 0.2 0 0.1
v 0.3 0 0.1
v 0.5 0 0.1
v 0.7 0 0.1
v 0.9 0 0.1
v 1 0 0.1
v 1.3 0 0.1
v -1.3 0 -0.1
v -1.2 0 -0.1
v -0.9 0 -0.1
v -0.8 0 -0.1
v -0.4 0 -0.1
v -0.3 0 -0.1
v -0.2 0 -0.1
v -0.1 0 -0.1
v -1.19209e-07 0 -0.1
v 0.0999999 0 -0.1
v 0.3 0 -0.1
v 0.5 0 -0.1
v 0.6 0 -0.1
v 0.7 0 -0.1
v 0.8 0 -0.1
v 1 0 -0.1
v 1.2 0 -0.1
v -1.3 0 -0.2
v -0.9 0 -0.2
v -0.8 0 -0.2
v -0.7 0 -0.2
v -0.6 0 -0.2
v -0.3 0 -0.2
v -0.1 0 -0.2
v 0.0999999 0 -0.2
v 0.2 0 -0.2
v 0.5 0 -0.2
v 0.6 0 -0.2
v 0.8 0 -0.2
v 0.9 0 -0.2
v 1.2 0 -0.2
v 1.3 0 -0.2
v -1.2 0.1 0.1
v -1.1 0.1 0.1
v -1.1 0.1 0
v -1.3 0.1 -0.1
v -1.2 0.1 -0.1
v -1.3 0.1 -0.2
v -1.1 0.1 -0.2
v -1.1 0.2 0.1
v -1 0.2 0.1
v -1.1 0.2 0
v -1 0.2 0
v -0.9 0.2 0
v -0.8 0.2 0
v -0.7 0.2 0
v -0.9 0.2 -0.1
v -0.8 0.2 -0.1
v -1.1 0.2 -0.2
v -1 0.2 -0.2
v -0.7 0.2 -0.2
v -1 0.3 0.1
v -0.9 0.3 0.1
v -0.8 0.3 0.1
v -0.6 0.3 0.1
v -1 0.3 0
v -0.9 0.3 0
v -0.8 0.3 0
v -0.7 0.3 0
v -0.6 0.3 0
v -0.9 0.3 -0.1
v -0.8 0.3 -0.1
v -0.7 0.3 -0.1
v -0.6 0.3 -0.1
v -0.7 0.3 -0.2
v -0.6 0.3 -0.2
v -0.6 0.4 0.1
v -0.5 0.4 0.1
v -0.7 0.4 0
v -0.6 0.4 0
v -0.7 0.4 -0.1
v -0.6 0.4 -0.1
v -0.6 0.4 -0.2
v -0.5 0.4 -0.2
v -0.5 0.5 0.1
v -0.4 0.5 0.1
v -0.5 0.5 -0.2
v -0.4 0.5 -0.2
v -0.4 0.6 0.1
v -0.3 0.6 0.1
v -0.4 0.6 -0.2
v -0.3 0.6 -0.2
v -0.3 0.7 -0.1
v -0.2 0.7 -0.1
v -0.3 0.7 -0.2
v -0.2 0.7 -0.2
v -0.3 0.8 0.1
v -0.2 0.8 0.1
v 0.0999999 0.8 0.1
v 0.5 0.8 0.1
v 0.8 0.8 0.1
v 1.3 0.8 0.1
v -0.3 0.8 -0.1
v -0.2 0.8 -0.1
v -0.1 0.8 -0.1
v 0.2 0.8 -0.1
v 0.5 0.8 -0.1
v 0.6 0.8 -0.1
v 0.9 0.8 -0.1
v 1.2 0.8 -0.1
v -0.2 0.8 -0.2
v -0.1 0.8 -0.2
v 0.0999999 0.8 -0.2
v 0.2 0.8 -0.2
v 0.5 0.8 -0.2
v 0.6 0.8 -0.2
v 0.8 0.8 -0.2
v 0.9 0.8 -0.2
v 1.2 0.8 -0.2
v 1.3 0.8 -0.2

# faces
f 3/1/1 2/1/1 1/1/1
f 4/1/1 2/1/1 3/1/1
f 7/1/1 6/1/1 5/1/1
f 8/1/1 6/1/1 7/1/1
f 12/2/1 10/2/1 9/2/1
f 13/1/1 11/1/1 10/1/1
f 13/2/1 10/2/1 12/2/1
f 14/1/1 11/1/1 13/1/1
f 17/1/1 16/1/1 15/1/1
f 18/1/1 16/1/1 17/1/1
f 21/2/1 20/2/1 19/2/1
f 22/2/1 20/2/1 21/2/1
f 25/1/1 24/1/1 23/1/1
f 26/1/1 24/1/1 25/1/1
f 27/1/1 24/1/1 26/1/1
f 28/2/1 26/2/1 25/2/1
f 29/2/1 26/2/1 28/2/1
f 34/2/1 31/2/1 30/2/1
f 35/2/1 31/2/1 34/2/1
f 36/2/1 33/2/1 32/2/1
f 37/2/1 33/2/1 36/2/1
f 40/2/1 39/2/1 38/2/1
f 41/2/1 39/2/1 40/2/1
f 44/1/1 43/1/1 42/1/1
f 45/1/1 43/1/1 44/1/1
f 48/2/1 47/2/1 46/2/1
f 49/2/1 47/2/1 48/2/1
f 50/2/1 48/2/1 46/2/1
f 51/2/1 48/2/1 50/2/1
f 54/2/1 53/2/1 52/2/1
f 55/2/1 53/2/1 54/2/1
f 56/2/2 57/2/2 58/2/2
f 58/2/2 57/2/2 59/2/2
f 60/2/2 61/2/2 62/2/2
f 62/2/2 61/2/2 63/2/2
f 62/1/2 63/1/2 64/1/2
f 64/1/2 63/1/2 65/1/2
f 64/2/2 65/2/2 66/2/2
f 66/2/2 65/2/2 67/2/2
f 70/1/3 69/1/3 68/1/3
f 72/2/3 71/2/3 70/2/3
f 74/2/3 72/2/3 70/2/3
f 74/1/3 73/1/3 72/1/3
f 75/1/3 73/1/3 74/1/3
f 76/2/3 74/2/3 70/2/3
f 76/2/3 75/2/3 74/2/3
f 77/2/3 75/2/3 76/2/3
f 78/1/3 70/1/3 68/1/3
f 79/2/3 76/2/3 70/2/3
f 79/1/3 70/1/3 78/1/3
f 80/2/3 79/2/3 78/2/3
f 81/2/3 76/2/3 79/2/3
f 81/2/3 79/2/3 80/2/3
f 82/1/3 77/1/3 76/1/3
f 82/2/3 76/2/3 81/2/3
f 83/1/3 77/1/3 82/1/3
f 85/2/3 83/2/3 82/2/3
f 85/2/3 84/2/3 83/2/3
f 85/2/3 82/2/3 81/2/3
f 87/1/3 81/1/3 80/1/3
f 88/2/3 86/2/3 85/2/3
f 88/1/3 81/1/3 87/1/3
f 88/2/3 85/2/3 81/2/3
f 89/2/3 86/2/3 88/2/3
f 91/2/3 88/2/3 87/2/3
f 91/2/3 89/2/3 88/2/3
f 92/2/3 89/2/3 91/2/3
f 93/2/3 89/2/3 92/2/3
f 94/1/3 90/1/3 89/1/3
f 94/2/3 89/2/3 93/2/3
f 95/1/3 90/1/3 94/1/3
f 97/2/3 91/2/3 87/2/3
f 98/2/3 91/2/3 97/2/3
f 99/1/3 94/1/3 93/1/3
f 99/1/3 95/1/3 94/1/3
f 100/2/3 96/2/3 95/2/3
f 100/1/3 95/1/3 99/1/3
f 101/2/3 96/2/3 100/2/3
f 102/2/3 96/2/3 101/2/3
f 103/1/3 92/1/3 91/1/3
f 103/2/3 91/2/3 98/2/3
f 104/2/3 93/2/3 92/2/3
f 104/1/3 92/1/3 103/1/3
f 105/1/3 99/1/3 93/1/3
f 105/2/3 93/2/3 104/2/3
f 106/2/3 100/2/3 99/2/3
f 106/1/3 99/1/3 105/1/3
f 106/2/3 101/2/3 100/2/3
f 107/1/3 98/1/3 97/1/3
f 108/2/3 103/2/3 98/2/3
f 108/1/3 98/1/3 107/1/3
f 108/2/3 104/2/3 103/2/3
f 108/2/3 106/2/3 105/2/3
f 108/2/3 105/2/3 104/2/3
f 109/2/3 101/2/3 106/2/3
f 109/2/3 106/2/3 108/2/3
f 110/2/3 101/2/3 109/2/3
f 111/1/3 102/1/3 101/1/3
f 111/2/3 101/2/3 110/2/3
f 112/1/3 102/1/3 111/1/3
f 113/2/3 108/2/3 107/2/3
f 113/2/3 109/2/3 108/2/3
f 114/2/3 109/2/3 113/2/3
f 115/2/3 109/2/3 114/2/3
f 116/2/3 109/2/3 115/2/3
f 117/1/3 114/1/3 113/1/3
f 118/2/3 115/2/3 114/2/3
f 118/1/3 114/1/3 117/1/3
f 119/1/3 110/1/3 109/1/3
f 119/2/3 109/2/3 116/2/3
f 120/2/3 112/2/3 111/2/3
f 120/1/3 110/1/3 119/1/3
f 120/2/3 111/2/3 110/2/3
f 121/2/3 115/2/3 118/2/3
f 121/1/3 116/1/3 115/1/3
f 121/2/3 118/2/3 117/2/3
f 122/2/3 119/2/3 116/2/3
f 122/1/3 116/1/3 121/1/3
f 122/2/3 120/2/3 119/2/3
f 123/2/3 121/2/3 117/2/3
f 123/2/3 122/2/3 121/2/3
f 124/2/3 122/2/3 123/2/3
f 125/2/3 122/2/3 124/2/3
f 126/2/3 122/2/3 125/2/3
f 127/2/3 120/2/3 122/2/3
f 127/2/3 122/2/3 126/2/3
f 128/2/3 120/2/3 127/2/3
f 129/2/3 112/2/3 120/2/3
f 129/2/3 120/2/3 128/2/3
f 130/2/3 112/2/3 129/2/3
f 131/1/3 126/1/3 125/1/3
f 131/2/3 125/2/3 124/2/3
f 132/2/3 127/2/3 126/2/3
f 132/1/3 126/1/3 131/1/3
f 133/1/3 128/1/3 127/1/3
f 133/2/3 127/2/3 132/2/3
f 134/2/3 129/2/3 128/2/3
f 134/1/3 128/1/3 133/1/3
f 135/1/3 124/1/3 123/1/3
f 136/2/3 132/2/3 131/2/3
f 136/1/3 124/1/3 135/1/3
f 136/2/3 131/2/3 124/2/3
f 136/2/3 134/2/3 133/2/3
f 136/2/3 133/2/3 132/2/3
f 137/2/3 129/2/3 134/2/3
f 137/2/3 134/2/3 136/2/3
f 138/2/3 129/2/3 137/2/3
f 139/1/3 130/1/3 129/1/3
f 139/2/3 129/2/3 138/2/3
f 140/1/3 130/1/3 139/1/3
f 141/2/3 136/2/3 135/2/3
f 141/2/3 137/2/3 136/2/3
f 142/2/3 137/2/3 141/2/3
f 143/2/3 137/2/3 142/2/3
f 144/2/3 137/2/3 143/2/3
f 145/1/3 142/1/3 141/1/3
f 146/2/3 143/2/3 142/2/3
f 146/1/3 142/1/3 145/1/3
f 147/1/3 138/1/3 137/1/3
f 147/2/3 137/2/3 144/2/3
f 148/2/3 140/2/3 139/2/3
f 148/1/3 138/1/3 147/1/3
f 148/2/3 139/2/3 138/2/3
f 149/2/3 143/2/3 146/2/3
f 149/1/3 144/1/3 143/1/3
f 149/2/3 146/2/3 145/2/3
f 150/2/3 147/2/3 144/2/3
f 150/1/3 144/1/3 149/1/3
f 150/2/3 148/2/3 147/2/3
f 151/2/3 150/2/3 149/2/3
f 151/2/3 148/2/3 150/2/3
f 152/2/3 140/2/3 148/2/3
f 152/2/3 148/2/3 151/2/3
f 153/2/3 151/2/3 149/2/3
f 153/2/3 149/2/3 145/2/3
f 154/1/3 152/1/3 151/1/3
f 154/2/3 151/2/3 153/2/3
f 155/2/3 140/2/3 152/2/3
f 155/1/3 152/1/3 154/1/3
f 156/2/3 140/2/3 155/2/3
f 159/2/3 158/2/3 157/2/3
f 160/2/3 158/2/3 159/2/3
f 163/1/3 162/1/3 161/1/3
f 164/1/3 162/1/3 163/1/3
f 165/1/4 166/1/4 167/1/4
f 167/1/4 166/1/4 168/1/4
f 169/1/4 170/1/4 171/1/4
f 171/1/4 170/1/4 172/1/4
f 173/2/4 174/2/4 175/2/4
f 175/2/4 174/2/4 176/2/4
f 177/2/4 178/2/4 179/2/4
f 179/2/4 178/2/4 180/2/4
f 181/2/4 182/2/4 183/2/4
f 183/2/4 182/2/4 184/2/4
f 185/1/4 186/1/4 187/1/4
f 185/1/4 187/1/4 189/1/4
f 187/1/4 188/1/4 189/1/4
f 189/1/4 188/1/4 190/1/4
f 185/1/4 189/1/4 191/1/4
f 189/2/4 190/2/4 192/2/4
f 191/1/4 189/1/4 192/1/4
f 191/2/4 192/2/4 193/2/4
f 192/2/4 190/2/4 194/2/4
f 193/2/4 192/2/4 194/2/4
f 193/1/4 194/1/4 195/1/4
f 194/2/4 190/2/4 196/2/4
f 195/1/4 194/1/4 196/1/4
f 196/2/4 190/2/4 197/2/4
f 196/2/4 197/2/4 199/2/4
f 195/2/4 196/2/4 199/2/4
f 199/2/4 197/2/4 200/2/4
f 197/1/4 198/1/4 201/1/4
f 200/2/4 197/2/4 203/2/4
f 197/1/4 201/1/4 203/1/4
f 201/2/4 202/2/4 204/2/4
f 203/1/4 201/1/4 204/1/4
f 204/2/4 202/2/4 205/2/4
f 203/2/4 204/2/4 207/2/4
f 205/2/4 206/2/4 207/2/4
f 204/2/4 205/2/4 207/2/4
f 207/2/4 206/2/4 208/2/4
f 208/2/4 206/2/4 209/2/4
f 199/1/4 200/1/4 211/1/4
f 200/2/4 203/2/4 212/2/4
f 211/1/4 200/1/4 212/1/4
f 203/2/4 207/2/4 212/2/4
f 212/2/4 207/2/4 213/2/4
f 207/1/4 208/1/4 214/1/4
f 213/2/4 207/2/4 214/2/4
f 209/1/4 210/1/4 215/1/4
f 214/1/4 208/1/4 217/1/4
f 213/1/4 214/1/4 217/1/4
f 208/2/4 209/2/4 218/2/4
f 217/1/4 208/1/4 218/1/4
f 209/1/4 215/1/4 219/1/4
f 218/2/4 209/2/4 219/2/4
f 215/2/4 216/2/4 220/2/4
f 219/1/4 215/1/4 220/1/4
f 220/2/4 216/2/4 221/2/4
f 212/2/4 213/2/4 223/2/4
f 211/2/4 212/2/4 223/2/4
f 223/2/4 213/2/4 224/2/4
f 213/1/4 217/1/4 225/1/4
f 224/2/4 213/2/4 225/2/4
f 218/2/4 219/2/4 226/2/4
f 225/1/4 217/1/4 226/1/4
f 221/2/4 222/2/4 226/2/4
f 220/2/4 221/2/4 226/2/4
f 219/2/4 220/2/4 226/2/4
f 217/2/4 218/2/4 226/2/4
f 226/2/4 222/2/4 227/2/4
f 227/2/4 222/2/4 228/2/4
f 223/1/4 224/1/4 229/1/4
f 224/2/4 225/2/4 230/2/4
f 229/1/4 224/1/4 230/1/4
f 225/2/4 226/2/4 230/2/4
f 226/2/4 227/2/4 230/2/4
f 230/2/4 227/2/4 231/2/4
f 231/2/4 227/2/4 232/2/4
f 227/1/4 228/1/4 233/1/4
f 232/2/4 227/2/4 233/2/4
f 233/1/4 228/1/4 234/1/4
f 229/2/4 230/2/4 235/2/4
f 230/2/4 231/2/4 235/2/4
f 235/2/4 231/2/4 236/2/4
f 236/2/4 231/2/4 237/2/4
f 237/2/4 231/2/4 238/2/4
f 233/2/4 234/2/4 239/2/4
f 232/2/4 233/2/4 239/2/4
f 239/2/4 234/2/4 240/2/4
f 237/1/4 238/1/4 241/1/4
f 238/2/4 231/2/4 242/2/4
f 241/1/4 238/1/4 242/1/4
f 231/1/4 232/1/4 243/1/4
f 242/2/4 231/2/4 243/2/4
f 232/2/4 239/2/4 244/2/4
f 243/1/4 232/1/4 244/1/4
f 237/1/4 241/1/4 245/1/4
f 236/2/4 237/2/4 245/2/4
f 241/2/4 242/2/4 246/2/4
f 245/1/4 241/1/4 246/1/4
f 235/1/4 236/1/4 247/1/4
f 236/2/4 245/2/4 248/2/4
f 247/1/4 236/1/4 248/1/4
f 245/2/4 246/2/4 248/2/4
f 248/2/4 246/2/4 249/2/4
f 246/2/4 242/2/4 250/2/4
f 249/2/4 246/2/4 250/2/4
f 242/1/4 243/1/4 251/1/4
f 250/2/4 242/2/4 251/2/4
f 243/2/4 244/2/4 252/2/4
f 251/1/4 243/1/4 252/1/4
f 244/2/4 239/2/4 253/2/4
f 252/2/4 244/2/4 253/2/4
f 239/1/4 240/1/4 253/1/4
f 253/1/4 240/1/4 254/1/4
f 248/2/4 249/2/4 255/2/4
f 247/2/4 248/2/4 255/2/4
f 255/2/4 249/2/4 256/2/4
f 249/1/4 250/1/4 257/1/4
f 256/2/4 249/2/4 257/2/4
f 251/2/4 252/2/4 258/2/4
f 257/1/4 250/1/4 258/1/4
f 250/2/4 251/2/4 258/2/4
f 253/2/4 254/2/4 258/2/4
f 252/2/4 253/2/4 258/2/4
f 258/2/4 254/2/4 259/2/4
f 259/2/4 254/2/4 260/2/4
f 255/1/4 256/1/4 261/1/4
f 256/2/4 257/2/4 262/2/4
f 261/1/4 256/1/4 262/1/4
f 257/2/4 258/2/4 262/2/4
f 258/2/4 259/2/4 262/2/4
f 262/2/4 259/2/4 263/2/4
f 263/2/4 259/2/4 264/2/4
f 259/1/4 260/1/4 265/1/4
f 264/2/4 259/2/4 265/2/4
f 265/1/4 260/1/4 266/1/4
f 261/2/4 262/2/4 267/2/4
f 262/2/4 263/2/4 267/2/4
f 267/2/4 263/2/4 268/2/4
f 268/2/4 263/2/4 269/2/4
f 269/2/4 263/2/4 270/2/4
f 265/2/4 266/2/4 271/2/4
f 264/2/4 265/2/4 271/2/4
f 271/2/4 266/2/4 272/2/4
f 269/1/4 270/1/4 273/1/4
f 270/2/4 263/2/4 274/2/4
f 273/1/4 270/1/4 274/1/4
f 263/1/4 264/1/4 275/1/4
f 274/2/4 263/2/4 275/2/4
f 264/2/4 271/2/4 276/2/4
f 275/1/4 264/1/4 276/1/4
f 269/1/4 273/1/4 277/1/4
f 268/2/4 269/2/4 277/2/4
f 273/2/4 274/2/4 278/2/4
f 277/1/4 273/1/4 278/1/4
f 267/1/4 268/1/4 279/1/4
f 268/2/4 277/2/4 280/2/4
f 279/1/4 268/1/4 280/1/4
f 277/2/4 278/2/4 280/2/4
f 278/2/4 274/2/4 281/2/4
f 280/2/4 278/2/4 281/2/4
f 274/1/4 275/1/4 281/1/4
f 275/2/4 276/2/4 282/2/4
f 281/1/4 275/1/4 282/1/4
f 276/2/4 271/2/4 283/2/4
f 282/2/4 276/2/4 283/2/4
f 271/1/4 272/1/4 284/1/4
f 283/2/4 271/2/4 284/2/4
f 284/1/4 272/1/4 285/1/4
f 281/2/4 282/2/4 286/2/4
f 279/2/4 280/2/4 286/2/4
f 280/2/4 281/2/4 286/2/4
f 282/1/4 283/1/4 287/1/4
f 286/2/4 282/2/4 287/2/4
f 284/2/4 285/2/4 288/2/4
f 287/1/4 283/1/4 288/1/4
f 283/2/4 284/2/4 288/2/4
f 288/2/4 285/2/4 289/2/4
f 304/1/5 291/1/5 290/1/5
f 305/1/5 291/1/5 304/1/5
f 306/1/5 291/1/5 305/1/5
f 307/1/5 293/1/5 292/1/5
f 307/2/5 294/2/5 293/2/5
f 308/2/5 294/2/5 307/2/5
f 309/1/5 295/1/5 294/1/5
f 309/2/5 294/2/5 308/2/5
f 310/1/5 295/1/5 309/1/5
f 311/2/5 296/2/5 295/2/5
f 311/1/5 295/1/5 310/1/5
f 312/2/5 296/2/5 311/2/5
f 313/1/5 297/1/5 296/1/5
f 313/2/5 298/2/5 297/2/5
f 314/1/5 299/1/5 298/1/5
f 314/2/5 298/2/5 313/2/5
f 315/1/5 299/1/5 314/1/5
f 316/2/5 300/2/5 299/2/5
f 316/1/5 299/1/5 315/1/5
f 317/2/5 300/2/5 316/2/5
f 318/2/5 302/2/5 301/2/5
f 318/1/5 301/1/5 300/1/5
f 319/2/5 302/2/5 318/2/5
f 320/1/5 304/1/5 303/1/5
f 320/1/5 305/1/5 304/1/5
f 321/2/5 306/2/5 305/2/5
f 321/1/5 305/1/5 320/1/5
f 322/1/5 291/1/5 306/1/5
f 322/2/5 306/2/5 321/2/5
f 323/2/5 292/2/5 291/2/5
f 323/1/5 291/1/5 322/1/5
f 324/1/5 308/1/5 307/1/5
f 324/2/5 292/2/5 323/2/5
f 324/1/5 307/1/5 292/1/5
f 325/2/5 310/2/5 309/2/5
f 325/1/5 308/1/5 324/1/5
f 325/2/5 309/2/5 308/2/5
f 326/1/5 312/1/5 311/1/5
f 326/2/5 310/2/5 325/2/5
f 326/1/5 311/1/5 310/1/5
f 327/2/5 296/2/5 312/2/5
f 327/1/5 312/1/5 326/1/5
f 328/1/5 313/1/5 296/1/5
f 328/2/5 296/2/5 327/2/5
f 328/1/5 314/1/5 313/1/5
f 329/2/5 315/2/5 314/2/5
f 329/1/5 314/1/5 328/1/5
f 330/1/5 317/1/5 316/1/5
f 330/2/5 315/2/5 329/2/5
f 330/1/5 316/1/5 315/1/5
f 331/2/5 300/2/5 317/2/5
f 331/1/5 317/1/5 330/1/5
f 332/1/5 319/1/5 318/1/5
f 332/2/5 300/2/5 331/2/5
f 332/1/5 318/1/5 300/1/5
f 333/2/5 302/2/5 319/2/5
f 333/1/5 319/1/5 332/1/5
f 334/2/5 302/2/5 333/2/5
f 335/1/6 336/1/6 337/1/6
f 335/1/6 337/1/6 339/1/6
f 338/1/6 339/1/6 340/1/6
f 339/1/6 337/1/6 341/1/6
f 340/1/6 339/1/6 341/1/6
f 342/2/6 343/2/6 344/2/6
f 344/2/6 343/2/6 345/2/6
f 345/2/6 346/2/6 349/2/6
f 347/2/6 348/2/6 350/2/6
f 344/1/6 345/1/6 351/1/6
f 349/2/6 350/2/6 352/2/6
f 351/1/6 345/1/6 352/1/6
f 345/2/6 349/2/6 352/2/6
f 350/2/6 348/2/6 353/2/6
f 352/2/6 350/2/6 353/2/6
f 354/1/6 355/1/6 358/1/6
f 355/2/6 356/2/6 359/2/6
f 358/1/6 355/1/6 359/1/6
f 356/1/6 357/1/6 360/1/6
f 359/2/6 356/2/6 360/2/6
f 360/1/6 357/1/6 361/1/6
f 361/1/6 357/1/6 362/1/6
f 359/2/6 360/2/6 363/2/6
f 363/2/6 360/2/6 364/2/6
f 365/1/6 366/1/6 367/1/6
f 367/1/6 366/1/6 368/1/6
f 369/2/6 370/2/6 372/2/6
f 371/2/6 372/2/6 373/2/6
f 372/2/6 370/2/6 374/2/6
f 373/2/6 372/2/6 374/2/6
f 374/2/6 370/2/6 375/2/6
f 375/2/6 370/2/6 376/2/6
f 377/2/6 378/2/6 379/2/6
f 379/2/6 378/2/6 380/2/6
f 381/1/6 382/1/6 383/1/6
f 383/1/6 382/1/6 384/1/6
f 385/2/6 386/2/6 387/2/6
f 387/2/6 386/2/6 388/2/6
f 389/2/6 390/2/6 395/2/6
f 390/1/6 391/1/6 396/1/6
f 395/2/6 390/2/6 396/2/6
f 396/1/6 391/1/6 397/1/6
f 391/2/6 392/2/6 398/2/6
f 392/1/6 393/1/6 399/1/6
f 398/2/6 392/2/6 399/2/6
f 399/1/6 393/1/6 400/1/6
f 393/2/6 394/2/6 401/2/6
f 401/2/6 394/2/6 402/2/6
f 396/2/6 397/2/6 403/2/6
f 397/1/6 391/1/6 404/1/6
f 403/2/6 397/2/6 404/2/6
f 391/2/6 398/2/6 405/2/6
f 404/1/6 391/1/6 405/1/6
f 398/1/6 399/1/6 406/1/6
f 405/2/6 398/2/6 406/2/6
f 399/2/6 400/2/6 407/2/6
f 406/1/6 399/1/6 407/1/6
f 400/1/6 393/1/6 408/1/6
f 407/2/6 400/2/6 408/2/6
f 393/2/6 401/2/6 409/2/6
f 408/1/6 393/1/6 409/1/6
f 401/1/6 402/1/6 410/1/6
f 409/2/6 401/2/6 410/2/6
f 402/2/6 394/2/6 411/2/6
f 410/1/6 402/1/6 411/1/6
f 411/2/6 394/2/6 412/2/6
