# MagicaVoxel @ Ephtracy

# group
o 

# material
mtllib muro1.mtl
usemtl palette

# normals
vn -1 0 0
vn 1 0 0
vn 0 0 1
vn 0 0 -1
vn 0 -1 0
vn 0 1 0

# texcoords
vt 0.0175781 0.5
vt 0.0488281 0.5

# verts
v -0.1 0 0.8
v -0.1 0 0.7
v -0.1 0 0.6
v -0.1 0 0.4
v -0.1 0 0.2
v -0.1 0 0
v -0.1 0 -0.2
v -0.1 0 -0.3
v -0.1 0 -0.8
v -0.1 0 -0.9
v -0.1 0.1 0.7
v -0.1 0.1 0.6
v -0.1 0.1 0.4
v -0.1 0.1 0.2
v -0.1 0.1 0
v -0.1 0.1 -0.2
v -0.1 0.1 -0.3
v -0.1 0.1 -0.7
v -0.1 0.1 -0.8
v -0.1 0.1 -0.9
v -0.1 0.2 0.3
v -0.1 0.2 0.1
v -0.1 0.2 -0.2
v -0.1 0.2 -0.4
v -0.1 0.2 -0.5
v -0.1 0.2 -0.6
v -0.1 0.2 -0.7
v -0.1 0.3 0.8
v -0.1 0.3 0.6
v -0.1 0.3 0.3
v -0.1 0.3 0.1
v -0.1 0.3 -0.2
v -0.1 0.3 -0.4
v -0.1 0.3 -0.5
v -0.1 0.3 -0.6
v -0.1 0.4 0.8
v -0.1 0.4 0.6
v -0.1 0.4 0.3
v -0.1 0.4 0.1
v -0.1 0.4 -0.3
v -0.1 0.4 -0.4
v -0.1 0.5 0.7
v -0.1 0.5 0.4
v -0.1 0.5 0.3
v -0.1 0.5 0.2
v -0.1 0.5 0.1
v -0.1 0.5 0
v -0.1 0.5 -0.2
v -0.1 0.5 -0.3
v -0.1 0.6 0.7
v -0.1 0.6 0.4
v -0.1 0.6 0.2
v -0.1 0.6 0
v -0.1 0.6 -0.1
v -0.1 0.6 -0.2
v -0.1 0.7 0.5
v -0.1 0.7 0.2
v -0.1 0.7 0
v -0.1 0.7 -0.1
v -0.1 0.8 0.8
v -0.1 0.8 0.5
v -0.1 0.8 0.2
v -0.1 0.8 0
v -0.1 0.8 -0.1
v 0.1 0.1 -0.7
v 0.1 0.1 -0.8
v 0.1 0.2 -0.6
v 0.1 0.2 -0.7
v 0.1 0.2 -0.8
v 0.1 0.3 -0.4
v 0.1 0.3 -0.5
v 0.1 0.3 -0.6
v 0.1 0.3 -0.7
v 0.1 0.4 -0.4
v 0.1 0.4 -0.5
v 0.1 0.6 -0.1
v 0.1 0.6 -0.2
v 0.1 0.7 -0.1
v 0.1 0.7 -0.2
v 0.1 0.7 0
v 0.1 0.7 -0.1
v 0.1 0.8 0
v 0.1 0.8 -0.1
v 0.2 0 0.8
v 0.2 0 0.6
v 0.2 0 0.5
v 0.2 0 0.3
v 0.2 0 0.1
v 0.2 0 -0.2
v 0.2 0 -0.3
v 0.2 0 -0.4
v 0.2 0 -0.5
v 0.2 0 -0.9
v 0.2 0.1 0.8
v 0.2 0.1 0.6
v 0.2 0.1 0.5
v 0.2 0.1 0.3
v 0.2 0.1 0.1
v 0.2 0.1 -0.2
v 0.2 0.1 -0.3
v 0.2 0.1 -0.4
v 0.2 0.1 -0.5
v 0.2 0.1 -0.6
v 0.2 0.1 -0.7
v 0.2 0.1 -0.8
v 0.2 0.1 -0.9
v 0.2 0.2 0.8
v 0.2 0.2 0.6
v 0.2 0.2 0.3
v 0.2 0.2 0.1
v 0.2 0.2 -0.1
v 0.2 0.2 -0.4
v 0.2 0.2 -0.7
v 0.2 0.2 -0.8
v 0.2 0.3 0.8
v 0.2 0.3 0.7
v 0.2 0.3 0.3
v 0.2 0.3 0.2
v 0.2 0.3 0.1
v 0.2 0.3 0
v 0.2 0.3 -0.1
v 0.2 0.3 -0.4
v 0.2 0.3 -0.5
v 0.2 0.3 -0.6
v 0.2 0.3 -0.7
v 0.2 0.4 0.8
v 0.2 0.4 0.7
v 0.2 0.4 0.6
v 0.2 0.4 0.2
v 0.2 0.4 0
v 0.2 0.4 -0.3
v 0.2 0.4 -0.4
v 0.2 0.4 -0.5
v 0.2 0.5 0.8
v 0.2 0.5 0.7
v 0.2 0.5 0.5
v 0.2 0.5 0.2
v 0.2 0.5 0
v 0.2 0.5 -0.2
v 0.2 0.5 -0.3
v 0.2 0.6 0.7
v 0.2 0.6 0.5
v 0.2 0.6 0.2
v 0.2 0.6 0
v 0.2 0.6 -0.1
v 0.2 0.6 -0.2
v 0.2 0.7 0.8
v 0.2 0.7 0.6
v 0.2 0.7 0.5
v 0.2 0.7 0.3
v 0.2 0.7 0.1
v 0.2 0.7 0
v 0.2 0.7 -0.1
v 0.2 0.7 -0.2
v 0.2 0.8 0.8
v 0.2 0.8 0.6
v 0.2 0.8 0.5
v 0.2 0.8 0.3
v 0.2 0.8 0.1
v 0.2 0.8 0
v -0.1 0 0.8
v -0.1 0.3 0.8
v -0.1 0.4 0.8
v -0.1 0.8 0.8
v 0.1 0 0.8
v 0.1 0.1 0.8
v 0.1 0.2 0.8
v 0.1 0.3 0.8
v 0.1 0.4 0.8
v 0.1 0.5 0.8
v 0.1 0.7 0.8
v 0.1 0.8 0.8
v 0.2 0 0.8
v 0.2 0.1 0.8
v 0.2 0.2 0.8
v 0.2 0.3 0.8
v 0.2 0.4 0.8
v 0.2 0.5 0.8
v 0.2 0.7 0.8
v 0.2 0.8 0.8
v 0.1 0.7 0
v 0.1 0.8 0
v 0.2 0.7 0
v 0.2 0.8 0
v -0.1 0.6 -0.1
v -0.1 0.7 -0.1
v -0.1 0.8 -0.1
v 0.1 0.6 -0.1
v 0.1 0.7 -0.1
v 0.1 0.8 -0.1
v -0.1 0.5 -0.2
v -0.1 0.6 -0.2
v 0.1 0.6 -0.2
v 0.1 0.7 -0.2
v 0.2 0.5 -0.2
v 0.2 0.6 -0.2
v 0.2 0.7 -0.2
v -0.1 0.4 -0.3
v -0.1 0.5 -0.3
v 0.2 0.4 -0.3
v 0.2 0.5 -0.3
v -0.1 0.3 -0.4
v -0.1 0.4 -0.4
v 0.1 0.3 -0.4
v 0.1 0.4 -0.4
v 0.1 0.3 -0.5
v 0.1 0.4 -0.5
v 0.2 0.3 -0.5
v 0.2 0.4 -0.5
v -0.1 0.2 -0.6
v -0.1 0.3 -0.6
v 0 0.2 -0.6
v 0.1 0.2 -0.6
v 0.1 0.3 -0.6
v -0.1 0.1 -0.7
v -0.1 0.2 -0.7
v 0 0.1 -0.7
v 0 0.2 -0.7
v 0.1 0.1 -0.7
v 0.1 0.2 -0.7
v 0.1 0.3 -0.7
v 0.2 0.2 -0.7
v 0.2 0.3 -0.7
v 0.1 0.1 -0.8
v 0.1 0.2 -0.8
v 0.2 0.1 -0.8
v 0.2 0.2 -0.8
v -0.1 0 -0.9
v -0.1 0.1 -0.9
v 0 0 -0.9
v 0 0.1 -0.9
v 0.2 0 -0.9
v 0.2 0.1 -0.9
v -0.1 0 0.8
v 0.1 0 0.8
v 0.2 0 0.8
v -0.1 0 0.7
v 0.1 0 0.7
v -0.1 0 0.6
v 0.2 0 0.6
v 0.1 0 0.5
v 0.2 0 0.5
v -0.1 0 0.4
v 0.1 0 0.4
v 0.1 0 0.3
v 0.2 0 0.3
v -0.1 0 0.2
v 0.1 0 0.2
v 0.1 0 0.1
v 0.2 0 0.1
v -0.1 0 0
v 0.1 0 0
v -0.1 0 -0.2
v 0.2 0 -0.2
v -0.1 0 -0.3
v 0.2 0 -0.3
v 0.1 0 -0.4
v 0.2 0 -0.4
v 0.1 0 -0.5
v 0.2 0 -0.5
v -0.1 0 -0.8
v 0 0 -0.8
v -0.1 0 -0.9
v 0 0 -0.9
v 0.2 0 -0.9
v -0.1 0.1 -0.7
v 0 0.1 -0.7
v 0.1 0.1 -0.7
v -0.1 0.1 -0.8
v 0 0.1 -0.8
v 0.1 0.1 -0.8
v 0.2 0.1 -0.8
v -0.1 0.1 -0.9
v 0 0.1 -0.9
v 0.2 0.1 -0.9
v -0.1 0.2 -0.6
v 0 0.2 -0.6
v 0.1 0.2 -0.6
v -0.1 0.2 -0.7
v 0 0.2 -0.7
v 0.1 0.2 -0.7
v 0.2 0.2 -0.7
v 0.1 0.2 -0.8
v 0.2 0.2 -0.8
v -0.1 0.3 -0.4
v 0.1 0.3 -0.4
v -0.1 0.3 -0.5
v 0.1 0.3 -0.5
v 0.2 0.3 -0.5
v -0.1 0.3 -0.6
v 0.1 0.3 -0.6
v 0.2 0.3 -0.6
v 0.1 0.3 -0.7
v 0.2 0.3 -0.7
v -0.1 0.4 -0.3
v 0.2 0.4 -0.3
v -0.1 0.4 -0.4
v 0.1 0.4 -0.4
v 0.2 0.4 -0.4
v 0.1 0.4 -0.5
v 0.2 0.4 -0.5
v -0.1 0.5 -0.2
v 0.2 0.5 -0.2
v -0.1 0.5 -0.3
v 0.2 0.5 -0.3
v -0.1 0.6 -0.1
v 0.1 0.6 -0.1
v -0.1 0.6 -0.2
v 0.1 0.6 -0.2
v 0.1 0.7 0
v 0.2 0.7 0
v 0.1 0.7 -0.1
v 0.2 0.7 -0.1
v 0.1 0.7 -0.2
v 0.2 0.7 -0.2
v -0.1 0.8 0.8
v 0.1 0.8 0.8
v 0.2 0.8 0.8
v 0.1 0.8 0.6
v 0.2 0.8 0.6
v -0.1 0.8 0.5
v 0.2 0.8 0.5
v 0.1 0.8 0.3
v 0.2 0.8 0.3
v -0.1 0.8 0.2
v 0.1 0.8 0.2
v 0.1 0.8 0.1
v 0.2 0.8 0.1
v -0.1 0.8 0
v 0.1 0.8 0
v 0.2 0.8 0
v -0.1 0.8 -0.1
v 0.1 0.8 -0.1

# faces
f 11/2/1 2/2/1 1/2/1
f 11/1/1 3/1/1 2/1/1
f 12/2/1 4/2/1 3/2/1
f 12/1/1 3/1/1 11/1/1
f 13/1/1 5/1/1 4/1/1
f 13/2/1 4/2/1 12/2/1
f 14/2/1 6/2/1 5/2/1
f 14/1/1 5/1/1 13/1/1
f 15/1/1 7/1/1 6/1/1
f 15/2/1 6/2/1 14/2/1
f 16/2/1 8/2/1 7/2/1
f 16/1/1 7/1/1 15/1/1
f 17/1/1 9/1/1 8/1/1
f 17/2/1 8/2/1 16/2/1
f 18/1/1 9/1/1 17/1/1
f 19/2/1 10/2/1 9/2/1
f 19/1/1 9/1/1 18/1/1
f 20/2/1 10/2/1 19/2/1
f 21/2/1 18/2/1 17/2/1
f 21/2/1 16/2/1 15/2/1
f 21/2/1 17/2/1 16/2/1
f 21/2/1 15/2/1 14/2/1
f 21/2/1 14/2/1 13/2/1
f 21/2/1 13/2/1 12/2/1
f 21/2/1 12/2/1 11/2/1
f 22/2/1 18/2/1 21/2/1
f 23/2/1 18/2/1 22/2/1
f 24/2/1 18/2/1 23/2/1
f 25/2/1 18/2/1 24/2/1
f 26/2/1 18/2/1 25/2/1
f 27/2/1 18/2/1 26/2/1
f 28/2/1 11/2/1 1/2/1
f 28/2/1 21/2/1 11/2/1
f 29/2/1 21/2/1 28/2/1
f 30/1/1 22/1/1 21/1/1
f 30/2/1 21/2/1 29/2/1
f 31/2/1 23/2/1 22/2/1
f 31/1/1 22/1/1 30/1/1
f 32/1/1 24/1/1 23/1/1
f 32/2/1 23/2/1 31/2/1
f 33/2/1 25/2/1 24/2/1
f 33/1/1 24/1/1 32/1/1
f 34/1/1 26/1/1 25/1/1
f 34/2/1 25/2/1 33/2/1
f 35/1/1 26/1/1 34/1/1
f 36/1/1 29/1/1 28/1/1
f 37/2/1 33/2/1 32/2/1
f 37/1/1 29/1/1 36/1/1
f 37/2/1 30/2/1 29/2/1
f 37/2/1 31/2/1 30/2/1
f 37/2/1 32/2/1 31/2/1
f 38/2/1 33/2/1 37/2/1
f 39/2/1 33/2/1 38/2/1
f 40/2/1 33/2/1 39/2/1
f 41/2/1 33/2/1 40/2/1
f 42/2/1 37/2/1 36/2/1
f 42/2/1 38/2/1 37/2/1
f 43/2/1 38/2/1 42/2/1
f 44/1/1 39/1/1 38/1/1
f 44/2/1 38/2/1 43/2/1
f 45/1/1 39/1/1 44/1/1
f 46/2/1 40/2/1 39/2/1
f 46/1/1 39/1/1 45/1/1
f 47/2/1 40/2/1 46/2/1
f 48/2/1 40/2/1 47/2/1
f 49/2/1 40/2/1 48/2/1
f 50/1/1 43/1/1 42/1/1
f 50/2/1 42/2/1 36/2/1
f 51/2/1 45/2/1 44/2/1
f 51/1/1 43/1/1 50/1/1
f 51/2/1 44/2/1 43/2/1
f 52/1/1 47/1/1 46/1/1
f 52/2/1 45/2/1 51/2/1
f 52/1/1 46/1/1 45/1/1
f 53/2/1 48/2/1 47/2/1
f 53/1/1 47/1/1 52/1/1
f 54/2/1 48/2/1 53/2/1
f 55/2/1 48/2/1 54/2/1
f 56/2/1 52/2/1 51/2/1
f 56/2/1 51/2/1 50/2/1
f 56/2/1 54/2/1 53/2/1
f 56/2/1 53/2/1 52/2/1
f 57/2/1 54/2/1 56/2/1
f 58/2/1 54/2/1 57/2/1
f 59/2/1 54/2/1 58/2/1
f 60/2/1 50/2/1 36/2/1
f 60/2/1 56/2/1 50/2/1
f 61/1/1 57/1/1 56/1/1
f 61/2/1 56/2/1 60/2/1
f 62/2/1 58/2/1 57/2/1
f 62/1/1 57/1/1 61/1/1
f 63/1/1 59/1/1 58/1/1
f 63/2/1 58/2/1 62/2/1
f 64/1/1 59/1/1 63/1/1
f 68/2/1 66/2/1 65/2/1
f 69/2/1 66/2/1 68/2/1
f 72/1/1 68/1/1 67/1/1
f 73/1/1 68/1/1 72/1/1
f 74/1/1 71/1/1 70/1/1
f 75/1/1 71/1/1 74/1/1
f 78/1/1 77/1/1 76/1/1
f 79/1/1 77/1/1 78/1/1
f 80/1/2 81/1/2 82/1/2
f 82/1/2 81/1/2 83/1/2
f 84/1/2 85/1/2 94/1/2
f 85/2/2 86/2/2 95/2/2
f 94/1/2 85/1/2 95/1/2
f 86/1/2 87/1/2 96/1/2
f 95/2/2 86/2/2 96/2/2
f 87/2/2 88/2/2 97/2/2
f 96/1/2 87/1/2 97/1/2
f 88/1/2 89/1/2 98/1/2
f 97/2/2 88/2/2 98/2/2
f 89/2/2 90/2/2 99/2/2
f 98/1/2 89/1/2 99/1/2
f 90/1/2 91/1/2 100/1/2
f 99/2/2 90/2/2 100/2/2
f 91/2/2 92/2/2 101/2/2
f 100/1/2 91/1/2 101/1/2
f 92/1/2 93/1/2 102/1/2
f 101/2/2 92/2/2 102/2/2
f 102/1/2 93/1/2 103/1/2
f 103/1/2 93/1/2 104/1/2
f 104/1/2 93/1/2 105/1/2
f 105/1/2 93/1/2 106/1/2
f 100/2/2 101/2/2 107/2/2
f 94/2/2 95/2/2 107/2/2
f 95/2/2 96/2/2 107/2/2
f 96/2/2 97/2/2 107/2/2
f 102/2/2 103/2/2 107/2/2
f 101/2/2 102/2/2 107/2/2
f 99/2/2 100/2/2 107/2/2
f 98/2/2 99/2/2 107/2/2
f 97/2/2 98/2/2 107/2/2
f 107/2/2 103/2/2 108/2/2
f 108/2/2 103/2/2 109/2/2
f 109/2/2 103/2/2 110/2/2
f 110/2/2 103/2/2 111/2/2
f 111/2/2 103/2/2 112/2/2
f 104/2/2 105/2/2 113/2/2
f 103/1/2 104/1/2 113/1/2
f 113/2/2 105/2/2 114/2/2
f 107/1/2 108/1/2 115/1/2
f 115/1/2 108/1/2 116/1/2
f 108/2/2 109/2/2 117/2/2
f 109/1/2 110/1/2 117/1/2
f 117/1/2 110/1/2 118/1/2
f 110/2/2 111/2/2 119/2/2
f 118/1/2 110/1/2 119/1/2
f 119/2/2 111/2/2 120/2/2
f 111/1/2 112/1/2 121/1/2
f 120/2/2 111/2/2 121/2/2
f 112/2/2 103/2/2 122/2/2
f 121/1/2 112/1/2 122/1/2
f 122/2/2 103/2/2 123/2/2
f 103/1/2 113/1/2 124/1/2
f 123/2/2 103/2/2 124/2/2
f 124/1/2 113/1/2 125/1/2
f 115/2/2 116/2/2 126/2/2
f 116/1/2 108/1/2 127/1/2
f 126/2/2 116/2/2 127/2/2
f 117/2/2 118/2/2 128/2/2
f 127/1/2 108/1/2 128/1/2
f 108/2/2 117/2/2 128/2/2
f 119/1/2 120/1/2 129/1/2
f 128/2/2 118/2/2 129/2/2
f 118/1/2 119/1/2 129/1/2
f 120/2/2 121/2/2 130/2/2
f 129/1/2 120/1/2 130/1/2
f 121/2/2 122/2/2 130/2/2
f 130/2/2 122/2/2 131/2/2
f 122/1/2 123/1/2 132/1/2
f 131/2/2 122/2/2 132/2/2
f 132/1/2 123/1/2 133/1/2
f 126/1/2 127/1/2 134/1/2
f 128/2/2 129/2/2 135/2/2
f 134/1/2 127/1/2 135/1/2
f 127/2/2 128/2/2 135/2/2
f 129/2/2 130/2/2 135/2/2
f 130/2/2 131/2/2 135/2/2
f 135/2/2 131/2/2 136/2/2
f 136/2/2 131/2/2 137/2/2
f 137/2/2 131/2/2 138/2/2
f 138/2/2 131/2/2 139/2/2
f 139/2/2 131/2/2 140/2/2
f 134/2/2 135/2/2 141/2/2
f 135/1/2 136/1/2 141/1/2
f 136/2/2 137/2/2 142/2/2
f 141/1/2 136/1/2 142/1/2
f 137/1/2 138/1/2 143/1/2
f 142/2/2 137/2/2 143/2/2
f 138/2/2 139/2/2 144/2/2
f 143/1/2 138/1/2 144/1/2
f 144/2/2 139/2/2 145/2/2
f 145/2/2 139/2/2 146/2/2
f 142/2/2 143/2/2 147/2/2
f 134/2/2 141/2/2 147/2/2
f 141/2/2 142/2/2 147/2/2
f 144/2/2 145/2/2 147/2/2
f 143/2/2 144/2/2 147/2/2
f 147/2/2 145/2/2 148/2/2
f 148/2/2 145/2/2 149/2/2
f 149/2/2 145/2/2 150/2/2
f 150/2/2 145/2/2 151/2/2
f 151/2/2 145/2/2 152/2/2
f 145/1/2 146/1/2 153/1/2
f 152/2/2 145/2/2 153/2/2
f 153/1/2 146/1/2 154/1/2
f 147/1/2 148/1/2 155/1/2
f 148/2/2 149/2/2 156/2/2
f 155/1/2 148/1/2 156/1/2
f 149/1/2 150/1/2 157/1/2
f 156/2/2 149/2/2 157/2/2
f 150/2/2 151/2/2 158/2/2
f 157/1/2 150/1/2 158/1/2
f 151/1/2 152/1/2 159/1/2
f 158/2/2 151/2/2 159/2/2
f 159/1/2 152/1/2 160/1/2
f 165/2/3 162/2/3 161/2/3
f 166/2/3 162/2/3 165/2/3
f 167/2/3 162/2/3 166/2/3
f 168/1/3 163/1/3 162/1/3
f 168/2/3 162/2/3 167/2/3
f 169/2/3 164/2/3 163/2/3
f 169/1/3 163/1/3 168/1/3
f 170/2/3 164/2/3 169/2/3
f 171/2/3 164/2/3 170/2/3
f 172/2/3 164/2/3 171/2/3
f 173/1/3 166/1/3 165/1/3
f 174/2/3 167/2/3 166/2/3
f 174/1/3 166/1/3 173/1/3
f 175/1/3 168/1/3 167/1/3
f 175/2/3 167/2/3 174/2/3
f 176/2/3 169/2/3 168/2/3
f 176/1/3 168/1/3 175/1/3
f 177/1/3 170/1/3 169/1/3
f 177/2/3 169/2/3 176/2/3
f 178/2/3 171/2/3 170/2/3
f 178/1/3 170/1/3 177/1/3
f 179/1/3 172/1/3 171/1/3
f 179/2/3 171/2/3 178/2/3
f 180/1/3 172/1/3 179/1/3
f 181/1/4 182/1/4 183/1/4
f 183/1/4 182/1/4 184/1/4
f 185/2/4 186/2/4 188/2/4
f 186/1/4 187/1/4 189/1/4
f 188/2/4 186/2/4 189/2/4
f 189/1/4 187/1/4 190/1/4
f 191/2/4 192/2/4 193/2/4
f 191/2/4 193/2/4 195/2/4
f 193/1/4 194/1/4 196/1/4
f 195/2/4 193/2/4 196/2/4
f 196/1/4 194/1/4 197/1/4
f 198/2/4 199/2/4 200/2/4
f 200/2/4 199/2/4 201/2/4
f 202/2/4 203/2/4 204/2/4
f 204/2/4 203/2/4 205/2/4
f 206/1/4 207/1/4 208/1/4
f 208/1/4 207/1/4 209/1/4
f 210/1/4 211/1/4 212/1/4
f 212/1/4 211/1/4 213/1/4
f 213/1/4 211/1/4 214/1/4
f 215/2/4 216/2/4 217/2/4
f 217/2/4 216/2/4 218/2/4
f 217/1/4 218/1/4 219/1/4
f 219/1/4 218/1/4 220/1/4
f 220/1/4 221/1/4 222/1/4
f 222/1/4 221/1/4 223/1/4
f 224/2/4 225/2/4 226/2/4
f 226/2/4 225/2/4 227/2/4
f 228/2/4 229/2/4 230/2/4
f 230/2/4 229/2/4 231/2/4
f 230/1/4 231/1/4 232/1/4
f 232/1/4 231/1/4 233/1/4
f 237/2/5 235/2/5 234/2/5
f 238/1/5 236/1/5 235/1/5
f 238/2/5 235/2/5 237/2/5
f 239/1/5 238/1/5 237/1/5
f 240/1/5 236/1/5 238/1/5
f 240/1/5 238/1/5 239/1/5
f 241/2/5 240/2/5 239/2/5
f 242/2/5 240/2/5 241/2/5
f 243/2/5 241/2/5 239/2/5
f 244/1/5 242/1/5 241/1/5
f 244/2/5 241/2/5 243/2/5
f 245/1/5 244/1/5 243/1/5
f 245/1/5 242/1/5 244/1/5
f 246/1/5 242/1/5 245/1/5
f 247/1/5 245/1/5 243/1/5
f 248/2/5 246/2/5 245/2/5
f 248/1/5 245/1/5 247/1/5
f 249/2/5 248/2/5 247/2/5
f 249/2/5 246/2/5 248/2/5
f 250/2/5 246/2/5 249/2/5
f 251/2/5 249/2/5 247/2/5
f 252/1/5 250/1/5 249/1/5
f 252/2/5 249/2/5 251/2/5
f 253/1/5 252/1/5 251/1/5
f 254/1/5 250/1/5 252/1/5
f 254/1/5 252/1/5 253/1/5
f 255/2/5 254/2/5 253/2/5
f 256/2/5 254/2/5 255/2/5
f 257/1/5 256/1/5 255/1/5
f 258/1/5 256/1/5 257/1/5
f 259/1/5 257/1/5 255/1/5
f 259/2/5 258/2/5 257/2/5
f 260/2/5 258/2/5 259/2/5
f 261/1/5 259/1/5 255/1/5
f 261/1/5 260/1/5 259/1/5
f 262/1/5 260/1/5 261/1/5
f 263/2/5 262/2/5 261/2/5
f 264/1/5 260/1/5 262/1/5
f 264/2/5 262/2/5 263/2/5
f 265/1/5 260/1/5 264/1/5
f 266/1/6 267/1/6 269/1/6
f 267/1/6 268/1/6 269/1/6
f 269/1/6 268/1/6 270/1/6
f 270/1/6 268/1/6 271/1/6
f 269/2/6 270/2/6 273/2/6
f 271/1/6 272/1/6 274/1/6
f 273/2/6 270/2/6 274/2/6
f 270/1/6 271/1/6 274/1/6
f 274/1/6 272/1/6 275/1/6
f 276/2/6 277/2/6 279/2/6
f 277/1/6 278/1/6 280/1/6
f 279/2/6 277/2/6 280/2/6
f 280/1/6 278/1/6 281/1/6
f 281/2/6 282/2/6 283/2/6
f 283/2/6 282/2/6 284/2/6
f 285/2/6 286/2/6 287/2/6
f 287/2/6 286/2/6 288/2/6
f 287/1/6 288/1/6 290/1/6
f 288/2/6 289/2/6 291/2/6
f 290/1/6 288/1/6 291/1/6
f 291/2/6 289/2/6 292/2/6
f 291/1/6 292/1/6 293/1/6
f 293/1/6 292/1/6 294/1/6
f 295/2/6 296/2/6 297/2/6
f 297/2/6 296/2/6 298/2/6
f 298/2/6 296/2/6 299/2/6
f 298/1/6 299/1/6 300/1/6
f 300/1/6 299/1/6 301/1/6
f 302/2/6 303/2/6 304/2/6
f 304/2/6 303/2/6 305/2/6
f 306/2/6 307/2/6 308/2/6
f 308/2/6 307/2/6 309/2/6
f 310/2/6 311/2/6 312/2/6
f 312/2/6 311/2/6 313/2/6
f 312/1/6 313/1/6 314/1/6
f 314/1/6 313/1/6 315/1/6
f 316/2/6 317/2/6 319/2/6
f 317/1/6 318/1/6 319/1/6
f 319/1/6 318/1/6 320/1/6
f 316/2/6 319/2/6 321/2/6
f 319/2/6 320/2/6 321/2/6
f 321/2/6 320/2/6 322/2/6
f 321/1/6 322/1/6 323/1/6
f 323/1/6 322/1/6 324/1/6
f 321/1/6 323/1/6 325/1/6
f 323/2/6 324/2/6 326/2/6
f 325/1/6 323/1/6 326/1/6
f 325/2/6 326/2/6 327/2/6
f 326/2/6 324/2/6 327/2/6
f 327/2/6 324/2/6 328/2/6
f 325/2/6 327/2/6 329/2/6
f 327/1/6 328/1/6 330/1/6
f 329/2/6 327/2/6 330/2/6
f 330/1/6 328/1/6 331/1/6
f 329/1/6 330/1/6 332/1/6
f 332/1/6 330/1/6 333/1/6
