# MagicaVoxel @ Ephtracy

# group
o 

# material
mtllib tronco deitado.mtl
usemtl palette

# normals
vn 0 1 0
vn 0 -1 0
vn -1 0 0
vn 1 0 0
vn 0 0 -1
vn 0 0 1

# texcoords
vt 0.0527344 0.5
vt 0.158203 0.5
vt 0.162109 0.5

# verts
v -0.1 0.7 -0.4
v 0.1 0.7 -0.4
v -0.1 0.7 -0.3
v 0.1 0.7 -0.3
v -0.4 0.6 -0.4
v -0.1 0.6 -0.4
v 0.1 0.6 -0.4
v 0.4 0.6 -0.4
v -0.4 0.6 -0.3
v -0.2 0.6 -0.3
v -0.1 0.6 -0.3
v 0.1 0.6 -0.3
v 0.2 0.6 -0.3
v 0.4 0.6 -0.3
v -0.2 0.6 0.4
v 0.2 0.6 0.4
v -0.3 0.5 -0.3
v -0.2 0.5 -0.3
v 0.2 0.5 -0.3
v 0.3 0.5 -0.3
v -0.3 0.5 0.4
v -0.2 0.5 0.4
v 0.2 0.5 0.4
v 0.3 0.5 0.4
v 0.3 0.3 -0.4
v 0.4 0.3 -0.4
v 0.3 0.3 -0.3
v 0.4 0.3 -0.3
v -0.4 0.2 -0.4
v -0.3 0.2 -0.4
v -0.4 0.2 -0.3
v -0.3 0.2 -0.3
v -0.4 0.4 -0.4
v -0.3 0.4 -0.4
v 0.3 0.4 -0.4
v 0.4 0.4 -0.4
v -0.4 0.4 -0.3
v -0.3 0.4 -0.3
v 0.3 0.4 -0.3
v 0.4 0.4 -0.3
v 0.3 0.1 -0.4
v 0.4 0.1 -0.4
v -0.3 0.1 -0.3
v -0.2 0.1 -0.3
v 0.2 0.1 -0.3
v 0.3 0.1 -0.3
v 0.4 0.1 -0.3
v -0.3 0.1 0.4
v -0.2 0.1 0.4
v 0.2 0.1 0.4
v 0.3 0.1 0.4
v -0.4 0 -0.4
v 0.3 0 -0.4
v -0.4 0 -0.3
v -0.2 0 -0.3
v 0.2 0 -0.3
v 0.3 0 -0.3
v -0.2 0 0.4
v 0.2 0 0.4
v -0.4 0.6 -0.4
v -0.4 0.6 -0.3
v -0.4 0.4 -0.4
v -0.4 0.4 -0.3
v -0.4 0.2 -0.4
v -0.4 0.2 -0.3
v -0.4 0 -0.4
v -0.4 0 -0.3
v -0.3 0.5 -0.3
v -0.3 0.5 0.4
v -0.3 0.4 -0.4
v -0.3 0.4 -0.3
v -0.3 0.2 -0.4
v -0.3 0.2 -0.3
v -0.3 0.1 -0.3
v -0.3 0.1 0.4
v -0.2 0.6 -0.3
v -0.2 0.6 0.4
v -0.2 0.5 -0.3
v -0.2 0.5 0.4
v -0.2 0.1 -0.3
v -0.2 0.1 0.4
v -0.2 0 -0.3
v -0.2 0 0.4
v -0.1 0.7 -0.4
v -0.1 0.7 -0.3
v -0.1 0.6 -0.4
v -0.1 0.6 -0.3
v 0.1 0.7 -0.4
v 0.1 0.7 -0.3
v 0.1 0.6 -0.4
v 0.1 0.6 -0.3
v 0.2 0.6 -0.3
v 0.2 0.6 0.4
v 0.2 0.5 -0.3
v 0.2 0.5 0.4
v 0.2 0.1 -0.3
v 0.2 0.1 0.4
v 0.2 0 -0.3
v 0.2 0 0.4
v 0.3 0.5 -0.3
v 0.3 0.5 0.4
v 0.3 0.4 -0.4
v 0.3 0.4 -0.3
v 0.3 0.3 -0.4
v 0.3 0.3 -0.3
v 0.3 0.1 -0.4
v 0.3 0.1 -0.3
v 0.3 0.1 0.4
v 0.3 0 -0.4
v 0.3 0 -0.3
v 0.4 0.6 -0.4
v 0.4 0.6 -0.3
v 0.4 0.4 -0.4
v 0.4 0.4 -0.3
v 0.4 0.3 -0.4
v 0.4 0.3 -0.3
v 0.4 0.1 -0.4
v 0.4 0.1 -0.3
v -0.4 0.6 -0.4
v -0.4 0.4 -0.4
v -0.4 0.2 -0.4
v -0.4 0 -0.4
v -0.3 0.4 -0.4
v -0.3 0.2 -0.4
v -0.1 0.7 -0.4
v -0.1 0.6 -0.4
v 0.1 0.7 -0.4
v 0.1 0.6 -0.4
v 0.3 0.4 -0.4
v 0.3 0.3 -0.4
v 0.3 0.1 -0.4
v 0.3 0 -0.4
v 0.4 0.6 -0.4
v 0.4 0.4 -0.4
v 0.4 0.3 -0.4
v 0.4 0.1 -0.4
v -0.4 0.6 -0.3
v -0.4 0.4 -0.3
v -0.4 0.2 -0.3
v -0.4 0 -0.3
v -0.3 0.5 -0.3
v -0.3 0.4 -0.3
v -0.3 0.2 -0.3
v -0.3 0.1 -0.3
v -0.2 0.6 -0.3
v -0.2 0.5 -0.3
v -0.2 0.1 -0.3
v -0.2 0 -0.3
v -0.1 0.7 -0.3
v -0.1 0.6 -0.3
v 0.1 0.7 -0.3
v 0.1 0.6 -0.3
v 0.2 0.6 -0.3
v 0.2 0.5 -0.3
v 0.2 0.1 -0.3
v 0.2 0 -0.3
v 0.3 0.5 -0.3
v 0.3 0.4 -0.3
v 0.3 0.3 -0.3
v 0.3 0.1 -0.3
v 0.3 0 -0.3
v 0.4 0.6 -0.3
v 0.4 0.4 -0.3
v 0.4 0.3 -0.3
v 0.4 0.1 -0.3
v -0.3 0.5 0.4
v -0.3 0.1 0.4
v -0.2 0.6 0.4
v -0.2 0.5 0.4
v -0.2 0.2 0.4
v -0.2 0.1 0.4
v -0.2 0 0.4
v -0.1 0.5 0.4
v -0.1 0.3 0.4
v 0 0.4 0.4
v 0 0.3 0.4
v 0.1 0.4 0.4
v 0.1 0.2 0.4
v 0.2 0.6 0.4
v 0.2 0.5 0.4
v 0.2 0.1 0.4
v 0.2 0 0.4
v 0.3 0.5 0.4
v 0.3 0.1 0.4

# faces
f 3/1/1 2/1/1 1/1/1
f 4/1/1 2/1/1 3/1/1
f 9/1/1 6/1/1 5/1/1
f 10/1/1 6/1/1 9/1/1
f 11/1/1 6/1/1 10/1/1
f 12/1/1 8/1/1 7/1/1
f 13/1/1 8/1/1 12/1/1
f 14/1/1 8/1/1 13/1/1
f 15/1/1 11/1/1 10/1/1
f 15/1/1 13/1/1 12/1/1
f 15/1/1 12/1/1 11/1/1
f 16/1/1 13/1/1 15/1/1
f 21/1/1 18/1/1 17/1/1
f 22/1/1 18/1/1 21/1/1
f 23/1/1 20/1/1 19/1/1
f 24/1/1 20/1/1 23/1/1
f 27/1/1 26/1/1 25/1/1
f 28/1/1 26/1/1 27/1/1
f 31/1/1 30/1/1 29/1/1
f 32/1/1 30/1/1 31/1/1
f 33/1/2 34/1/2 37/1/2
f 37/1/2 34/1/2 38/1/2
f 35/1/2 36/1/2 39/1/2
f 39/1/2 36/1/2 40/1/2
f 41/1/2 42/1/2 46/1/2
f 46/1/2 42/1/2 47/1/2
f 43/1/2 44/1/2 48/1/2
f 48/1/2 44/1/2 49/1/2
f 45/1/2 46/1/2 50/1/2
f 50/1/2 46/1/2 51/1/2
f 52/1/2 53/1/2 54/1/2
f 54/1/2 53/1/2 55/1/2
f 55/1/2 53/1/2 56/1/2
f 56/1/2 53/1/2 57/1/2
f 55/1/2 56/1/2 58/1/2
f 58/1/2 56/1/2 59/1/2
f 62/1/3 61/1/3 60/1/3
f 63/1/3 61/1/3 62/1/3
f 66/1/3 65/1/3 64/1/3
f 67/1/3 65/1/3 66/1/3
f 71/1/3 69/1/3 68/1/3
f 72/1/3 71/1/3 70/1/3
f 73/1/3 69/1/3 71/1/3
f 73/1/3 71/1/3 72/1/3
f 74/1/3 69/1/3 73/1/3
f 75/1/3 69/1/3 74/1/3
f 78/1/3 77/1/3 76/1/3
f 79/1/3 77/1/3 78/1/3
f 82/1/3 81/1/3 80/1/3
f 83/1/3 81/1/3 82/1/3
f 86/1/3 85/1/3 84/1/3
f 87/1/3 85/1/3 86/1/3
f 88/1/4 89/1/4 90/1/4
f 90/1/4 89/1/4 91/1/4
f 92/1/4 93/1/4 94/1/4
f 94/1/4 93/1/4 95/1/4
f 96/1/4 97/1/4 98/1/4
f 98/1/4 97/1/4 99/1/4
f 100/1/4 101/1/4 103/1/4
f 102/1/4 103/1/4 104/1/4
f 103/1/4 101/1/4 105/1/4
f 104/1/4 103/1/4 105/1/4
f 105/1/4 101/1/4 107/1/4
f 107/1/4 101/1/4 108/1/4
f 106/1/4 107/1/4 109/1/4
f 109/1/4 107/1/4 110/1/4
f 111/1/4 112/1/4 113/1/4
f 113/1/4 112/1/4 114/1/4
f 115/1/4 116/1/4 117/1/4
f 117/1/4 116/1/4 118/1/4
f 123/1/5 120/1/5 119/1/5
f 124/1/5 122/1/5 121/1/5
f 126/1/5 123/1/5 119/1/5
f 126/1/5 124/1/5 123/1/5
f 127/1/5 126/1/5 125/1/5
f 128/1/5 124/1/5 126/1/5
f 128/1/5 126/1/5 127/1/5
f 129/1/5 124/1/5 128/1/5
f 130/1/5 124/1/5 129/1/5
f 131/1/5 122/1/5 124/1/5
f 131/1/5 124/1/5 130/1/5
f 132/1/5 122/1/5 131/1/5
f 133/1/5 129/1/5 128/1/5
f 134/1/5 129/1/5 133/1/5
f 135/1/5 131/1/5 130/1/5
f 136/1/5 131/1/5 135/1/5
f 137/1/6 138/1/6 141/1/6
f 141/1/6 138/1/6 142/1/6
f 139/1/6 140/1/6 143/1/6
f 143/1/6 140/1/6 144/1/6
f 137/1/6 141/1/6 145/1/6
f 145/1/6 141/1/6 146/1/6
f 144/1/6 140/1/6 147/1/6
f 147/1/6 140/1/6 148/1/6
f 149/1/6 150/1/6 151/1/6
f 151/1/6 150/1/6 152/1/6
f 153/1/6 154/1/6 157/1/6
f 155/1/6 156/1/6 160/1/6
f 160/1/6 156/1/6 161/1/6
f 157/1/6 158/1/6 162/1/6
f 153/1/6 157/1/6 162/1/6
f 162/1/6 158/1/6 163/1/6
f 159/1/6 160/1/6 164/1/6
f 164/1/6 160/1/6 165/1/6
f 166/1/6 167/1/6 169/1/6
f 169/1/6 167/1/6 170/1/6
f 170/1/6 167/1/6 171/1/6
f 168/1/6 169/1/6 173/1/6
f 169/2/6 170/2/6 173/2/6
f 173/2/6 170/2/6 174/2/6
f 173/3/6 174/3/6 175/3/6
f 174/2/6 170/2/6 176/2/6
f 175/3/6 174/3/6 176/3/6
f 173/3/6 175/3/6 177/3/6
f 175/2/6 176/2/6 177/2/6
f 170/3/6 171/3/6 178/3/6
f 177/2/6 176/2/6 178/2/6
f 176/2/6 170/2/6 178/2/6
f 168/1/6 173/1/6 179/1/6
f 173/3/6 177/3/6 180/3/6
f 179/1/6 173/1/6 180/1/6
f 177/3/6 178/3/6 180/3/6
f 171/1/6 172/1/6 181/1/6
f 180/3/6 178/3/6 181/3/6
f 178/3/6 171/3/6 181/3/6
f 181/1/6 172/1/6 182/1/6
f 180/1/6 181/1/6 183/1/6
f 183/1/6 181/1/6 184/1/6
