# MagicaVoxel @ Ephtracy

# group
o 

# material
mtllib arvore2.mtl
usemtl palette

# normals
vn -1 0 0
vn 1 0 0
vn 0 0 1
vn 0 0 -1
vn 0 -1 0
vn 0 1 0

# texcoords
vt 0.822266 0.5
vt 0.884766 0.5
vt 0.888672 0.5
vt 0.892578 0.5
vt 0.974609 0.5

# verts
v -0.7 1.5 0.5
v -0.7 1.5 -0.6
v -0.7 2.2 0.5
v -0.7 2.2 0.3
v -0.7 2.2 0
v -0.7 2.2 -0.1
v -0.7 2.2 -0.3
v -0.7 2.2 -0.4
v -0.7 2.3 0.3
v -0.7 2.3 0.2
v -0.7 2.3 0.1
v -0.7 2.3 0
v -0.7 2.3 -0.2
v -0.7 2.3 -0.3
v -0.7 2.3 -0.4
v -0.7 2.3 -0.5
v -0.7 2.4 0.2
v -0.7 2.4 0.1
v -0.7 2.4 0
v -0.7 2.4 -0.1
v -0.7 2.4 -0.2
v -0.7 2.4 -0.5
v -0.7 2.4 -0.6
v -0.7 2.5 0.1
v -0.7 2.5 0
v -0.7 2.5 -0.3
v -0.7 2.5 -0.4
v -0.7 2.6 0.1
v -0.7 2.6 0
v -0.7 2.6 -0.3
v -0.7 2.6 -0.4
v -0.7 2.7 0.1
v -0.7 2.7 0
v -0.7 2.7 -0.2
v -0.7 2.7 -0.3
v -0.7 2.8 0.4
v -0.7 2.8 0.3
v -0.7 2.8 -0.2
v -0.7 2.8 -0.3
v -0.7 2.9 0.4
v -0.7 2.9 0.3
v -0.7 2.9 -0.1
v -0.7 2.9 -0.2
v -0.7 3 -0.1
v -0.7 3 -0.2
v -0.7 3.1 0.5
v -0.7 3.1 -0.6
v -0.5 1.4 0.5
v -0.5 1.4 -0.6
v -0.5 1.5 0.7
v -0.5 1.5 0.5
v -0.5 1.5 -0.6
v -0.5 1.5 -0.8
v -0.5 2.2 0.7
v -0.5 2.2 0.5
v -0.5 2.2 -0.6
v -0.5 2.2 -0.7
v -0.5 2.2 -0.8
v -0.5 2.4 -0.6
v -0.5 2.4 -0.7
v -0.5 3.1 0.7
v -0.5 3.1 0.5
v -0.5 3.1 -0.6
v -0.5 3.1 -0.8
v -0.5 3.2 0.5
v -0.5 3.2 -0.6
v -0.4 1.2 0
v -0.4 1.2 -0.1
v -0.4 1.3 0
v -0.4 1.3 -0.1
v -0.3 1.1 0
v -0.3 1.1 -0.1
v -0.3 1.2 0
v -0.3 1.2 -0.1
v -0.1 0 0.1
v -0.1 0 -0.2
v -0.1 1.1 0
v -0.1 1.1 -0.1
v -0.1 1.3 0
v -0.1 1.3 -0.1
v -0.1 1.4 0.1
v -0.1 1.4 -0.2
v 0.3 1.3 0.1
v 0.3 1.3 -0.2
v 0.3 1.4 0.1
v 0.3 1.4 -0.2
v 0.2 0 0.1
v 0.2 0 -0.2
v 0.2 1.1 0.1
v 0.2 1.1 -0.2
v 0.2 1.3 0.1
v 0.2 1.3 -0.2
v 0.2 1.4 0.1
v 0.2 1.4 -0.2
v 0.3 1.1 0.1
v 0.3 1.1 -0.2
v 0.3 1.2 0.1
v 0.3 1.2 -0.2
v 0.5 1.2 0.1
v 0.5 1.2 -0.2
v 0.5 1.4 0.1
v 0.5 1.4 -0.2
v 0.6 1.4 0.5
v 0.6 1.4 -0.6
v 0.6 1.5 0.7
v 0.6 1.5 0.5
v 0.6 1.5 -0.6
v 0.6 1.5 -0.8
v 0.6 2.1 0.7
v 0.6 2.1 0.6
v 0.6 2.2 0.6
v 0.6 2.2 0.5
v 0.6 2.2 -0.7
v 0.6 2.2 -0.8
v 0.6 2.4 -0.6
v 0.6 2.4 -0.7
v 0.6 3.1 0.7
v 0.6 3.1 0.5
v 0.6 3.1 -0.6
v 0.6 3.1 -0.8
v 0.6 3.2 0.5
v 0.6 3.2 -0.6
v 0.8 1.5 0.5
v 0.8 1.5 -0.6
v 0.8 2.1 0.4
v 0.8 2.1 0.2
v 0.8 2.2 0
v 0.8 2.2 -0.3
v 0.8 2.3 0.5
v 0.8 2.3 0.4
v 0.8 2.3 0.2
v 0.8 2.3 0
v 0.8 2.3 -0.5
v 0.8 2.3 -0.6
v 0.8 2.4 -0.3
v 0.8 2.4 -0.5
v 0.8 2.5 0.3
v 0.8 2.5 0.2
v 0.8 2.6 0.3
v 0.8 2.6 0.2
v 0.8 2.6 -0.2
v 0.8 2.6 -0.3
v 0.8 2.7 -0.2
v 0.8 2.7 -0.3
v 0.8 2.8 0.3
v 0.8 2.8 0.2
v 0.8 2.8 -0.1
v 0.8 2.8 -0.2
v 0.8 2.9 0.3
v 0.8 2.9 0.2
v 0.8 2.9 -0.1
v 0.8 2.9 -0.2
v 0.8 2.9 -0.5
v 0.8 2.9 -0.6
v 0.8 3 -0.5
v 0.8 3 -0.6
v 0.8 3.1 0.5
v 0.8 3.1 -0.6
v -0.5 1.5 0.7
v -0.5 2.2 0.7
v -0.5 3.1 0.7
v -0.4 2.2 0.7
v -0.4 2.3 0.7
v -0.4 2.8 0.7
v -0.4 2.9 0.7
v -0.3 2.8 0.7
v -0.3 2.9 0.7
v -0.2 2.2 0.7
v -0.2 2.3 0.7
v -0.2 2.5 0.7
v -0.2 2.6 0.7
v -0.1 2.2 0.7
v -0.1 2.3 0.7
v -0.1 2.5 0.7
v -0.1 2.6 0.7
v 0.1 2.2 0.7
v 0.1 2.3 0.7
v 0.3 2.3 0.7
v 0.3 2.4 0.7
v 0.3 2.8 0.7
v 0.3 2.9 0.7
v 0.4 2.3 0.7
v 0.4 2.4 0.7
v 0.4 2.8 0.7
v 0.4 2.9 0.7
v 0.5 2.1 0.7
v 0.5 2.2 0.7
v 0.6 1.5 0.7
v 0.6 2.1 0.7
v 0.6 3.1 0.7
v -0.7 1.5 0.5
v -0.7 2.2 0.5
v -0.7 3.1 0.5
v -0.5 1.4 0.5
v -0.5 1.5 0.5
v -0.5 2.2 0.5
v -0.5 3.1 0.5
v -0.5 3.2 0.5
v 0.6 1.4 0.5
v 0.6 1.5 0.5
v 0.6 2.2 0.5
v 0.6 3.1 0.5
v 0.6 3.2 0.5
v 0.7 2.2 0.5
v 0.7 2.3 0.5
v 0.8 1.5 0.5
v 0.8 2.3 0.5
v 0.8 3.1 0.5
v -0.1 0 0.1
v -0.1 1.4 0.1
v 0.2 0 0.1
v 0.2 1.1 0.1
v 0.2 1.3 0.1
v 0.2 1.4 0.1
v 0.3 1.1 0.1
v 0.3 1.2 0.1
v 0.3 1.3 0.1
v 0.3 1.4 0.1
v 0.5 1.2 0.1
v 0.5 1.4 0.1
v -0.4 1.2 0
v -0.4 1.3 0
v -0.3 1.1 0
v -0.3 1.2 0
v -0.1 1.1 0
v -0.1 1.3 0
v -0.4 1.2 -0.1
v -0.4 1.3 -0.1
v -0.3 1.1 -0.1
v -0.3 1.2 -0.1
v -0.1 1.1 -0.1
v -0.1 1.3 -0.1
v -0.1 0 -0.2
v -0.1 1.4 -0.2
v 0.2 0 -0.2
v 0.2 1.1 -0.2
v 0.2 1.3 -0.2
v 0.2 1.4 -0.2
v 0.3 1.1 -0.2
v 0.3 1.2 -0.2
v 0.3 1.3 -0.2
v 0.3 1.4 -0.2
v 0.5 1.2 -0.2
v 0.5 1.4 -0.2
v -0.7 1.5 -0.6
v -0.7 2.4 -0.6
v -0.7 3.1 -0.6
v -0.6 2.2 -0.6
v -0.6 2.4 -0.6
v -0.5 1.4 -0.6
v -0.5 1.5 -0.6
v -0.5 2.2 -0.6
v -0.5 2.4 -0.6
v -0.5 3.1 -0.6
v -0.5 3.2 -0.6
v 0.2 3.1 -0.6
v 0.3 3.1 -0.6
v 0.6 1.4 -0.6
v 0.6 1.5 -0.6
v 0.6 2.4 -0.6
v 0.6 3.1 -0.6
v 0.6 3.2 -0.6
v 0.7 2.3 -0.6
v 0.7 2.4 -0.6
v 0.7 2.9 -0.6
v 0.7 3 -0.6
v 0.8 1.5 -0.6
v 0.8 2.3 -0.6
v 0.8 2.9 -0.6
v 0.8 3 -0.6
v 0.8 3.1 -0.6
v -0.5 1.5 -0.8
v -0.5 2.2 -0.8
v -0.5 3.1 -0.8
v -0.4 2.2 -0.8
v -0.4 2.4 -0.8
v -0.3 2.5 -0.8
v -0.3 2.6 -0.8
v -0.3 2.7 -0.8
v -0.2 2.5 -0.8
v -0.2 2.6 -0.8
v -0.2 2.7 -0.8
v -0.1 2.2 -0.8
v -0.1 2.4 -0.8
v -0.1 2.8 -0.8
v -0.1 2.9 -0.8
v 0 2.8 -0.8
v 0 2.9 -0.8
v 0.1 2.5 -0.8
v 0.1 2.6 -0.8
v 0.2 2.2 -0.8
v 0.2 2.4 -0.8
v 0.2 2.5 -0.8
v 0.2 2.6 -0.8
v 0.2 2.7 -0.8
v 0.2 2.8 -0.8
v 0.3 2.5 -0.8
v 0.3 2.6 -0.8
v 0.3 2.7 -0.8
v 0.3 2.8 -0.8
v 0.4 2.5 -0.8
v 0.4 2.6 -0.8
v 0.5 2.2 -0.8
v 0.5 2.4 -0.8
v 0.6 1.5 -0.8
v 0.6 2.2 -0.8
v 0.6 3.1 -0.8
v -0.1 0 0.1
v 0.2 0 0.1
v -0.1 0 -0.2
v 0.2 0 -0.2
v 0.2 1.1 0.1
v 0.3 1.1 0.1
v -0.3 1.1 0
v -0.1 1.1 0
v -0.3 1.1 -0.1
v -0.1 1.1 -0.1
v 0.2 1.1 -0.2
v 0.3 1.1 -0.2
v 0.3 1.2 0.1
v 0.5 1.2 0.1
v -0.4 1.2 0
v -0.3 1.2 0
v -0.4 1.2 -0.1
v -0.3 1.2 -0.1
v 0.3 1.2 -0.2
v 0.5 1.2 -0.2
v -0.5 1.4 0.5
v 0.6 1.4 0.5
v -0.1 1.4 0.1
v 0.2 1.4 0.1
v 0.3 1.4 0.1
v 0.5 1.4 0.1
v -0.1 1.4 -0.2
v 0.2 1.4 -0.2
v 0.3 1.4 -0.2
v 0.5 1.4 -0.2
v -0.5 1.4 -0.6
v 0.6 1.4 -0.6
v -0.5 1.5 0.7
v 0.6 1.5 0.7
v -0.7 1.5 0.5
v -0.5 1.5 0.5
v 0.6 1.5 0.5
v 0.8 1.5 0.5
v -0.7 1.5 -0.6
v -0.5 1.5 -0.6
v 0.6 1.5 -0.6
v 0.8 1.5 -0.6
v -0.5 1.5 -0.8
v 0.6 1.5 -0.8
v 0.2 1.3 0.1
v 0.3 1.3 0.1
v -0.4 1.3 0
v -0.1 1.3 0
v -0.4 1.3 -0.1
v -0.1 1.3 -0.1
v 0.2 1.3 -0.2
v 0.3 1.3 -0.2
v -0.5 3.1 0.7
v 0.6 3.1 0.7
v -0.7 3.1 0.5
v -0.5 3.1 0.5
v 0.6 3.1 0.5
v 0.8 3.1 0.5
v -0.7 3.1 -0.6
v -0.5 3.1 -0.6
v 0.2 3.1 -0.6
v 0.3 3.1 -0.6
v 0.6 3.1 -0.6
v 0.8 3.1 -0.6
v 0.2 3.1 -0.7
v 0.3 3.1 -0.7
v -0.5 3.1 -0.8
v 0.6 3.1 -0.8
v -0.5 3.2 0.5
v 0.6 3.2 0.5
v 0.2 3.2 0.4
v 0.3 3.2 0.4
v -0.2 3.2 0.3
v -0.1 3.2 0.3
v 0.2 3.2 0.3
v 0.3 3.2 0.3
v -0.2 3.2 0.2
v -0.1 3.2 0.2
v 0.2 3.2 0.1
v 0.3 3.2 0.1
v 0.2 3.2 0
v 0.3 3.2 0
v -0.2 3.2 -0.2
v -0.1 3.2 -0.2
v -0.2 3.2 -0.3
v -0.1 3.2 -0.3
v 0.3 3.2 -0.3
v 0.4 3.2 -0.3
v 0.3 3.2 -0.4
v 0.4 3.2 -0.4
v -0.5 3.2 -0.6
v 0.6 3.2 -0.6

# faces
f 3/3/1 2/3/1 1/3/1
f 4/3/1 2/3/1 3/3/1
f 5/3/1 2/3/1 4/3/1
f 6/3/1 2/3/1 5/3/1
f 7/3/1 2/3/1 6/3/1
f 8/3/1 2/3/1 7/3/1
f 9/2/1 4/2/1 3/2/1
f 9/3/1 5/3/1 4/3/1
f 10/3/1 5/3/1 9/3/1
f 11/3/1 5/3/1 10/3/1
f 12/2/1 6/2/1 5/2/1
f 12/3/1 5/3/1 11/3/1
f 13/3/1 7/3/1 6/3/1
f 14/2/1 8/2/1 7/2/1
f 14/3/1 7/3/1 13/3/1
f 15/3/1 2/3/1 8/3/1
f 15/2/1 8/2/1 14/2/1
f 16/3/1 2/3/1 15/3/1
f 17/3/1 11/3/1 10/3/1
f 17/2/1 10/2/1 9/2/1
f 18/2/1 12/2/1 11/2/1
f 18/3/1 11/3/1 17/3/1
f 19/2/1 6/2/1 12/2/1
f 19/2/1 12/2/1 18/2/1
f 20/3/1 13/3/1 6/3/1
f 20/2/1 6/2/1 19/2/1
f 21/2/1 14/2/1 13/2/1
f 21/3/1 13/3/1 20/3/1
f 21/2/1 16/2/1 15/2/1
f 21/2/1 15/2/1 14/2/1
f 22/3/1 2/3/1 16/3/1
f 22/2/1 16/2/1 21/2/1
f 23/3/1 2/3/1 22/3/1
f 24/1/1 19/1/1 18/1/1
f 24/2/1 18/2/1 17/2/1
f 25/2/1 20/2/1 19/2/1
f 25/1/1 19/1/1 24/1/1
f 25/2/1 21/2/1 20/2/1
f 25/2/1 22/2/1 21/2/1
f 25/2/1 23/2/1 22/2/1
f 26/2/1 23/2/1 25/2/1
f 27/2/1 23/2/1 26/2/1
f 28/2/1 24/2/1 17/2/1
f 28/2/1 25/2/1 24/2/1
f 28/2/1 26/2/1 25/2/1
f 29/2/1 26/2/1 28/2/1
f 30/1/1 27/1/1 26/1/1
f 30/2/1 26/2/1 29/2/1
f 31/2/1 23/2/1 27/2/1
f 31/1/1 27/1/1 30/1/1
f 32/1/1 29/1/1 28/1/1
f 32/2/1 28/2/1 17/2/1
f 33/2/1 30/2/1 29/2/1
f 33/1/1 29/1/1 32/1/1
f 33/2/1 31/2/1 30/2/1
f 34/2/1 31/2/1 33/2/1
f 35/2/1 31/2/1 34/2/1
f 36/2/1 32/2/1 17/2/1
f 36/2/1 17/2/1 9/2/1
f 36/2/1 9/2/1 3/2/1
f 36/2/1 34/2/1 33/2/1
f 36/2/1 33/2/1 32/2/1
f 37/2/1 34/2/1 36/2/1
f 38/1/1 35/1/1 34/1/1
f 38/2/1 34/2/1 37/2/1
f 39/2/1 31/2/1 35/2/1
f 39/1/1 35/1/1 38/1/1
f 40/1/1 37/1/1 36/1/1
f 40/2/1 36/2/1 3/2/1
f 41/2/1 38/2/1 37/2/1
f 41/1/1 37/1/1 40/1/1
f 41/2/1 39/2/1 38/2/1
f 42/2/1 39/2/1 41/2/1
f 43/2/1 39/2/1 42/2/1
f 44/2/1 41/2/1 40/2/1
f 44/2/1 42/2/1 41/2/1
f 44/1/1 43/1/1 42/1/1
f 45/2/1 39/2/1 43/2/1
f 45/1/1 43/1/1 44/1/1
f 46/2/1 40/2/1 3/2/1
f 46/2/1 44/2/1 40/2/1
f 46/2/1 45/2/1 44/2/1
f 47/2/1 39/2/1 45/2/1
f 47/2/1 45/2/1 46/2/1
f 47/2/1 31/2/1 39/2/1
f 47/2/1 23/2/1 31/2/1
f 51/3/1 49/3/1 48/3/1
f 52/3/1 49/3/1 51/3/1
f 54/3/1 51/3/1 50/3/1
f 55/3/1 51/3/1 54/3/1
f 56/3/1 53/3/1 52/3/1
f 57/3/1 53/3/1 56/3/1
f 58/3/1 53/3/1 57/3/1
f 59/3/1 57/3/1 56/3/1
f 60/2/1 58/2/1 57/2/1
f 60/3/1 57/3/1 59/3/1
f 61/2/1 55/2/1 54/2/1
f 62/2/1 55/2/1 61/2/1
f 63/2/1 60/2/1 59/2/1
f 64/2/1 58/2/1 60/2/1
f 64/2/1 60/2/1 63/2/1
f 65/2/1 63/2/1 62/2/1
f 66/2/1 63/2/1 65/2/1
f 69/4/1 68/4/1 67/4/1
f 70/4/1 68/4/1 69/4/1
f 73/4/1 72/4/1 71/4/1
f 74/4/1 72/4/1 73/4/1
f 77/4/1 76/4/1 75/4/1
f 78/4/1 76/4/1 77/4/1
f 79/4/1 77/4/1 75/4/1
f 80/4/1 76/4/1 78/4/1
f 81/4/1 79/4/1 75/4/1
f 81/4/1 80/4/1 79/4/1
f 82/4/1 76/4/1 80/4/1
f 82/4/1 80/4/1 81/4/1
f 85/4/1 84/4/1 83/4/1
f 86/4/1 84/4/1 85/4/1
f 87/4/2 88/4/2 89/4/2
f 89/4/2 88/4/2 90/4/2
f 91/4/2 92/4/2 93/4/2
f 93/4/2 92/4/2 94/4/2
f 95/4/2 96/4/2 97/4/2
f 97/4/2 96/4/2 98/4/2
f 99/4/2 100/4/2 101/4/2
f 101/4/2 100/4/2 102/4/2
f 103/3/2 104/3/2 106/3/2
f 106/3/2 104/3/2 107/3/2
f 105/3/2 106/3/2 109/3/2
f 109/3/2 106/3/2 110/3/2
f 109/2/2 110/2/2 111/2/2
f 110/3/2 106/3/2 111/3/2
f 111/3/2 106/3/2 112/3/2
f 107/3/2 108/3/2 113/3/2
f 113/3/2 108/3/2 114/3/2
f 107/3/2 113/3/2 115/3/2
f 113/2/2 114/2/2 116/2/2
f 115/3/2 113/3/2 116/3/2
f 111/2/2 112/2/2 117/2/2
f 109/2/2 111/2/2 117/2/2
f 117/2/2 112/2/2 118/2/2
f 115/2/2 116/2/2 119/2/2
f 116/2/2 114/2/2 120/2/2
f 119/2/2 116/2/2 120/2/2
f 118/2/2 119/2/2 121/2/2
f 121/2/2 119/2/2 122/2/2
f 123/3/2 124/3/2 125/3/2
f 125/3/2 124/3/2 126/3/2
f 126/3/2 124/3/2 127/3/2
f 127/3/2 124/3/2 128/3/2
f 123/3/2 125/3/2 129/3/2
f 125/2/2 126/2/2 130/2/2
f 129/3/2 125/3/2 130/3/2
f 126/3/2 127/3/2 131/3/2
f 130/2/2 126/2/2 131/2/2
f 127/2/2 128/2/2 132/2/2
f 131/3/2 127/3/2 132/3/2
f 128/3/2 124/3/2 133/3/2
f 133/3/2 124/3/2 134/3/2
f 132/2/2 128/2/2 135/2/2
f 129/2/2 130/2/2 135/2/2
f 130/2/2 131/2/2 135/2/2
f 128/3/2 133/3/2 135/3/2
f 131/2/2 132/2/2 135/2/2
f 133/2/2 134/2/2 136/2/2
f 135/3/2 133/3/2 136/3/2
f 129/2/2 135/2/2 137/2/2
f 135/2/2 136/2/2 137/2/2
f 137/2/2 136/2/2 138/2/2
f 129/2/2 137/2/2 139/2/2
f 137/1/2 138/1/2 139/1/2
f 138/2/2 136/2/2 140/2/2
f 139/1/2 138/1/2 140/1/2
f 140/2/2 136/2/2 141/2/2
f 141/2/2 136/2/2 142/2/2
f 139/2/2 140/2/2 143/2/2
f 140/2/2 141/2/2 143/2/2
f 141/1/2 142/1/2 143/1/2
f 142/2/2 136/2/2 144/2/2
f 143/1/2 142/1/2 144/1/2
f 129/2/2 139/2/2 145/2/2
f 139/2/2 143/2/2 145/2/2
f 143/2/2 144/2/2 145/2/2
f 145/2/2 144/2/2 146/2/2
f 146/2/2 144/2/2 147/2/2
f 147/2/2 144/2/2 148/2/2
f 129/2/2 145/2/2 149/2/2
f 145/1/2 146/1/2 149/1/2
f 146/2/2 147/2/2 150/2/2
f 149/1/2 146/1/2 150/1/2
f 147/1/2 148/1/2 151/1/2
f 150/2/2 147/2/2 151/2/2
f 148/2/2 144/2/2 152/2/2
f 151/1/2 148/1/2 152/1/2
f 136/2/2 134/2/2 153/2/2
f 152/2/2 144/2/2 153/2/2
f 144/2/2 136/2/2 153/2/2
f 153/2/2 134/2/2 154/2/2
f 151/2/2 152/2/2 155/2/2
f 150/2/2 151/2/2 155/2/2
f 153/1/2 154/1/2 155/1/2
f 152/2/2 153/2/2 155/2/2
f 149/2/2 150/2/2 155/2/2
f 155/1/2 154/1/2 156/1/2
f 129/2/2 149/2/2 157/2/2
f 149/2/2 155/2/2 157/2/2
f 155/2/2 156/2/2 157/2/2
f 157/2/2 156/2/2 158/2/2
f 162/3/3 160/3/3 159/3/3
f 162/2/3 161/2/3 160/2/3
f 163/2/3 161/2/3 162/2/3
f 164/2/3 161/2/3 163/2/3
f 165/2/3 161/2/3 164/2/3
f 166/2/3 164/2/3 163/2/3
f 166/1/3 165/1/3 164/1/3
f 167/2/3 161/2/3 165/2/3
f 167/1/3 165/1/3 166/1/3
f 168/3/3 162/3/3 159/3/3
f 168/3/3 163/3/3 162/3/3
f 169/2/3 167/2/3 166/2/3
f 169/3/3 163/3/3 168/3/3
f 169/2/3 166/2/3 163/2/3
f 170/2/3 167/2/3 169/2/3
f 171/2/3 167/2/3 170/2/3
f 172/3/3 168/3/3 159/3/3
f 172/2/3 169/2/3 168/2/3
f 172/2/3 170/2/3 169/2/3
f 173/2/3 170/2/3 172/2/3
f 174/1/3 171/1/3 170/1/3
f 174/2/3 170/2/3 173/2/3
f 175/2/3 167/2/3 171/2/3
f 175/1/3 171/1/3 174/1/3
f 176/3/3 173/3/3 172/3/3
f 176/3/3 172/3/3 159/3/3
f 177/2/3 174/2/3 173/2/3
f 177/3/3 173/3/3 176/3/3
f 177/2/3 175/2/3 174/2/3
f 178/2/3 177/2/3 176/2/3
f 178/2/3 175/2/3 177/2/3
f 179/2/3 175/2/3 178/2/3
f 180/2/3 167/2/3 175/2/3
f 180/2/3 175/2/3 179/2/3
f 181/2/3 161/2/3 167/2/3
f 181/2/3 167/2/3 180/2/3
f 182/1/3 179/1/3 178/1/3
f 182/2/3 178/2/3 176/2/3
f 183/2/3 180/2/3 179/2/3
f 183/1/3 179/1/3 182/1/3
f 184/1/3 181/1/3 180/1/3
f 184/2/3 180/2/3 183/2/3
f 185/2/3 161/2/3 181/2/3
f 185/1/3 181/1/3 184/1/3
f 186/3/3 176/3/3 159/3/3
f 187/2/3 182/2/3 176/2/3
f 187/3/3 176/3/3 186/3/3
f 187/2/3 184/2/3 183/2/3
f 187/2/3 185/2/3 184/2/3
f 187/2/3 183/2/3 182/2/3
f 188/3/3 186/3/3 159/3/3
f 189/2/3 187/2/3 186/2/3
f 189/3/3 186/3/3 188/3/3
f 190/2/3 185/2/3 187/2/3
f 190/2/3 187/2/3 189/2/3
f 190/2/3 161/2/3 185/2/3
f 195/3/3 192/3/3 191/3/3
f 196/2/3 193/2/3 192/2/3
f 196/3/3 192/3/3 195/3/3
f 197/2/3 193/2/3 196/2/3
f 199/3/3 195/3/3 194/3/3
f 200/3/3 195/3/3 199/3/3
f 202/2/3 198/2/3 197/2/3
f 203/2/3 198/2/3 202/2/3
f 204/3/3 201/3/3 200/3/3
f 204/2/3 202/2/3 201/2/3
f 205/2/3 202/2/3 204/2/3
f 206/3/3 204/3/3 200/3/3
f 206/3/3 205/3/3 204/3/3
f 207/2/3 202/2/3 205/2/3
f 207/3/3 205/3/3 206/3/3
f 208/2/3 202/2/3 207/2/3
f 211/4/3 210/4/3 209/4/3
f 212/4/3 210/4/3 211/4/3
f 213/4/3 210/4/3 212/4/3
f 214/4/3 210/4/3 213/4/3
f 215/4/3 213/4/3 212/4/3
f 216/4/3 213/4/3 215/4/3
f 217/4/3 213/4/3 216/4/3
f 219/4/3 218/4/3 217/4/3
f 219/4/3 217/4/3 216/4/3
f 220/4/3 218/4/3 219/4/3
f 224/4/3 222/4/3 221/4/3
f 225/4/3 224/4/3 223/4/3
f 226/4/3 222/4/3 224/4/3
f 226/4/3 224/4/3 225/4/3
f 227/4/4 228/4/4 230/4/4
f 229/4/4 230/4/4 231/4/4
f 230/4/4 228/4/4 232/4/4
f 231/4/4 230/4/4 232/4/4
f 233/4/4 234/4/4 235/4/4
f 235/4/4 234/4/4 236/4/4
f 236/4/4 234/4/4 237/4/4
f 237/4/4 234/4/4 238/4/4
f 236/4/4 237/4/4 239/4/4
f 239/4/4 237/4/4 240/4/4
f 240/4/4 237/4/4 241/4/4
f 241/4/4 242/4/4 243/4/4
f 240/4/4 241/4/4 243/4/4
f 243/4/4 242/4/4 244/4/4
f 245/3/4 246/3/4 248/3/4
f 246/2/4 247/2/4 249/2/4
f 248/3/4 246/3/4 249/3/4
f 245/3/4 248/3/4 251/3/4
f 248/2/4 249/2/4 252/2/4
f 251/3/4 248/3/4 252/3/4
f 249/2/4 247/2/4 253/2/4
f 252/2/4 249/2/4 253/2/4
f 253/2/4 247/2/4 254/2/4
f 254/2/4 255/2/4 256/2/4
f 256/2/4 255/2/4 257/2/4
f 250/3/4 251/3/4 258/3/4
f 258/3/4 251/3/4 259/3/4
f 257/2/4 255/2/4 261/2/4
f 261/2/4 255/2/4 262/2/4
f 259/3/4 260/3/4 263/3/4
f 260/2/4 261/2/4 264/2/4
f 263/3/4 260/3/4 264/3/4
f 264/2/4 261/2/4 265/2/4
f 265/2/4 261/2/4 266/2/4
f 259/3/4 263/3/4 267/3/4
f 263/2/4 264/2/4 268/2/4
f 267/3/4 263/3/4 268/3/4
f 264/2/4 265/2/4 268/2/4
f 265/1/4 266/1/4 269/1/4
f 268/2/4 265/2/4 269/2/4
f 266/2/4 261/2/4 270/2/4
f 269/1/4 266/1/4 270/1/4
f 270/2/4 261/2/4 271/2/4
f 272/3/4 273/3/4 275/3/4
f 273/2/4 274/2/4 275/2/4
f 275/2/4 274/2/4 276/2/4
f 276/2/4 274/2/4 277/2/4
f 277/2/4 274/2/4 278/2/4
f 278/2/4 274/2/4 279/2/4
f 276/2/4 277/2/4 280/2/4
f 277/3/4 278/3/4 280/3/4
f 278/1/4 279/1/4 281/1/4
f 280/3/4 278/3/4 281/3/4
f 279/2/4 274/2/4 282/2/4
f 281/1/4 279/1/4 282/1/4
f 272/3/4 275/3/4 283/3/4
f 275/3/4 276/3/4 283/3/4
f 281/2/4 282/2/4 284/2/4
f 283/3/4 276/3/4 284/3/4
f 280/2/4 281/2/4 284/2/4
f 276/2/4 280/2/4 284/2/4
f 282/2/4 274/2/4 285/2/4
f 284/2/4 282/2/4 285/2/4
f 285/2/4 274/2/4 286/2/4
f 283/2/4 284/2/4 287/2/4
f 284/2/4 285/2/4 287/2/4
f 285/1/4 286/1/4 287/1/4
f 286/2/4 274/2/4 288/2/4
f 287/1/4 286/1/4 288/1/4
f 283/2/4 287/2/4 289/2/4
f 287/2/4 288/2/4 289/2/4
f 289/2/4 288/2/4 290/2/4
f 272/3/4 283/3/4 291/3/4
f 283/2/4 289/2/4 291/2/4
f 291/2/4 289/2/4 292/2/4
f 289/1/4 290/1/4 293/1/4
f 292/2/4 289/2/4 293/2/4
f 290/2/4 288/2/4 294/2/4
f 293/1/4 290/1/4 294/1/4
f 294/2/4 288/2/4 295/2/4
f 295/2/4 288/2/4 296/2/4
f 292/2/4 293/2/4 297/2/4
f 293/2/4 294/2/4 297/2/4
f 294/2/4 295/2/4 297/2/4
f 297/2/4 295/2/4 298/2/4
f 295/1/4 296/1/4 299/1/4
f 298/2/4 295/2/4 299/2/4
f 296/2/4 288/2/4 300/2/4
f 299/1/4 296/1/4 300/1/4
f 297/3/4 298/3/4 301/3/4
f 292/2/4 297/2/4 301/2/4
f 298/2/4 299/2/4 302/2/4
f 301/3/4 298/3/4 302/3/4
f 299/2/4 300/2/4 302/2/4
f 291/3/4 292/3/4 303/3/4
f 272/3/4 291/3/4 303/3/4
f 292/2/4 301/2/4 304/2/4
f 303/3/4 292/3/4 304/3/4
f 301/2/4 302/2/4 304/2/4
f 272/3/4 303/3/4 305/3/4
f 303/2/4 304/2/4 306/2/4
f 305/3/4 303/3/4 306/3/4
f 288/2/4 274/2/4 307/2/4
f 306/2/4 304/2/4 307/2/4
f 304/2/4 302/2/4 307/2/4
f 302/2/4 300/2/4 307/2/4
f 300/2/4 288/2/4 307/2/4
f 310/4/5 309/4/5 308/4/5
f 311/4/5 309/4/5 310/4/5
f 316/4/5 315/4/5 314/4/5
f 317/4/5 315/4/5 316/4/5
f 318/4/5 313/4/5 312/4/5
f 319/4/5 313/4/5 318/4/5
f 324/4/5 323/4/5 322/4/5
f 325/4/5 323/4/5 324/4/5
f 326/4/5 321/4/5 320/4/5
f 327/4/5 321/4/5 326/4/5
f 330/3/5 329/3/5 328/3/5
f 331/3/5 329/3/5 330/3/5
f 332/3/5 329/3/5 331/3/5
f 333/3/5 329/3/5 332/3/5
f 334/3/5 330/3/5 328/3/5
f 335/3/5 332/3/5 331/3/5
f 336/3/5 332/3/5 335/3/5
f 337/3/5 329/3/5 333/3/5
f 338/3/5 336/3/5 335/3/5
f 338/3/5 337/3/5 336/3/5
f 338/3/5 334/3/5 328/3/5
f 338/3/5 335/3/5 334/3/5
f 339/3/5 329/3/5 337/3/5
f 339/3/5 337/3/5 338/3/5
f 343/3/5 341/3/5 340/3/5
f 344/3/5 341/3/5 343/3/5
f 346/3/5 343/3/5 342/3/5
f 347/3/5 343/3/5 346/3/5
f 348/3/5 345/3/5 344/3/5
f 349/3/5 345/3/5 348/3/5
f 350/3/5 348/3/5 347/3/5
f 351/3/5 348/3/5 350/3/5
f 354/4/6 355/4/6 356/4/6
f 356/4/6 355/4/6 357/4/6
f 352/4/6 353/4/6 358/4/6
f 358/4/6 353/4/6 359/4/6
f 360/2/6 361/2/6 363/2/6
f 363/2/6 361/2/6 364/2/6
f 362/2/6 363/2/6 366/2/6
f 366/2/6 363/2/6 367/2/6
f 364/2/6 365/2/6 370/2/6
f 370/2/6 365/2/6 371/2/6
f 368/1/6 369/1/6 372/1/6
f 367/2/6 368/2/6 372/2/6
f 369/2/6 370/2/6 373/2/6
f 372/1/6 369/1/6 373/1/6
f 367/2/6 372/2/6 374/2/6
f 372/2/6 373/2/6 374/2/6
f 373/2/6 370/2/6 375/2/6
f 374/2/6 373/2/6 375/2/6
f 376/2/6 377/2/6 378/2/6
f 378/2/6 377/2/6 379/2/6
f 376/2/6 378/2/6 380/2/6
f 380/2/6 378/2/6 381/2/6
f 378/1/6 379/1/6 382/1/6
f 381/2/6 378/2/6 382/2/6
f 379/2/6 377/2/6 383/2/6
f 382/1/6 379/1/6 383/1/6
f 380/1/6 381/1/6 384/1/6
f 376/2/6 380/2/6 384/2/6
f 381/2/6 382/2/6 385/2/6
f 384/1/6 381/1/6 385/1/6
f 382/2/6 383/2/6 385/2/6
f 384/2/6 385/2/6 386/2/6
f 385/2/6 383/2/6 386/2/6
f 383/2/6 377/2/6 387/2/6
f 386/2/6 383/2/6 387/2/6
f 384/2/6 386/2/6 388/2/6
f 386/1/6 387/1/6 388/1/6
f 387/2/6 377/2/6 389/2/6
f 388/1/6 387/1/6 389/1/6
f 376/2/6 384/2/6 390/2/6
f 384/2/6 388/2/6 390/2/6
f 388/2/6 389/2/6 390/2/6
f 390/2/6 389/2/6 391/2/6
f 376/2/6 390/2/6 392/2/6
f 390/1/6 391/1/6 392/1/6
f 391/2/6 389/2/6 393/2/6
f 392/1/6 391/1/6 393/1/6
f 389/2/6 377/2/6 394/2/6
f 393/2/6 389/2/6 394/2/6
f 394/2/6 377/2/6 395/2/6
f 392/2/6 393/2/6 396/2/6
f 393/2/6 394/2/6 396/2/6
f 394/1/6 395/1/6 396/1/6
f 395/2/6 377/2/6 397/2/6
f 396/1/6 395/1/6 397/1/6
f 392/2/6 396/2/6 398/2/6
f 376/2/6 392/2/6 398/2/6
f 396/2/6 397/2/6 398/2/6
f 397/2/6 377/2/6 399/2/6
f 398/2/6 397/2/6 399/2/6
