# MagicaVoxel @ Ephtracy

# group
o 

# material
mtllib barril.mtl
usemtl palette

# normals
vn -1 0 0
vn 1 0 0
vn 0 0 1
vn 0 0 -1
vn 0 -1 0
vn 0 1 0

# texcoords
vt 0.392578 0.5
vt 0.396484 0.5
vt 0.830078 0.5

# verts
v -0.4 0 0.2
v -0.4 0 -0.2
v -0.4 0.1 0.2
v -0.4 0.1 0.1
v -0.4 0.1 0
v -0.4 0.1 -0.1
v -0.4 0.1 -0.2
v -0.4 0.7 0.2
v -0.4 0.7 0.1
v -0.4 0.7 0
v -0.4 0.7 -0.1
v -0.4 0.7 -0.2
v -0.4 0.8 0.2
v -0.4 0.8 -0.2
v -0.3 0 0.3
v -0.3 0 0.2
v -0.3 0 -0.2
v -0.3 0 -0.3
v -0.3 0.1 0.3
v -0.3 0.1 0.2
v -0.3 0.1 -0.2
v -0.3 0.1 -0.3
v -0.3 0.7 0.3
v -0.3 0.7 0.2
v -0.3 0.7 -0.2
v -0.3 0.7 -0.3
v -0.3 0.8 0.3
v -0.3 0.8 0.2
v -0.3 0.8 -0.2
v -0.3 0.8 -0.3
v -0.2 0 0.4
v -0.2 0 0.3
v -0.2 0 -0.3
v -0.2 0 -0.4
v -0.2 0.1 0.4
v -0.2 0.1 0.3
v -0.2 0.1 -0.3
v -0.2 0.1 -0.4
v -0.2 0.7 0.4
v -0.2 0.7 0.3
v -0.2 0.7 -0.3
v -0.2 0.7 -0.4
v -0.2 0.8 0.4
v -0.2 0.8 0.3
v -0.2 0.8 -0.3
v -0.2 0.8 -0.4
v 0.2 0 0.3
v 0.2 0 0.2
v 0.2 0 -0.2
v 0.2 0 -0.3
v 0.2 0.1 0.3
v 0.2 0.1 0.2
v 0.2 0.1 -0.2
v 0.2 0.1 -0.3
v 0.2 0.7 0.3
v 0.2 0.7 0.2
v 0.2 0.7 -0.2
v 0.2 0.7 -0.3
v 0.2 0.8 0.3
v 0.2 0.8 0.2
v 0.2 0.8 -0.2
v 0.2 0.8 -0.3
v 0.3 0 0.2
v 0.3 0 -0.2
v 0.3 0.1 0.2
v 0.3 0.1 0.1
v 0.3 0.1 0
v 0.3 0.1 -0.1
v 0.3 0.1 -0.2
v 0.3 0.7 0.2
v 0.3 0.7 0.1
v 0.3 0.7 0
v 0.3 0.7 -0.1
v 0.3 0.7 -0.2
v 0.3 0.8 0.2
v 0.3 0.8 -0.2
v -0.3 0 0.2
v -0.3 0 -0.2
v -0.3 0.1 0.2
v -0.3 0.1 0.1
v -0.3 0.1 0
v -0.3 0.1 -0.1
v -0.3 0.1 -0.2
v -0.3 0.7 0.2
v -0.3 0.7 0.1
v -0.3 0.7 0
v -0.3 0.7 -0.1
v -0.3 0.7 -0.2
v -0.3 0.8 0.2
v -0.3 0.8 -0.2
v -0.2 0 0.3
v -0.2 0 0.2
v -0.2 0 -0.2
v -0.2 0 -0.3
v -0.2 0.1 0.3
v -0.2 0.1 0.2
v -0.2 0.1 -0.2
v -0.2 0.1 -0.3
v -0.2 0.7 0.3
v -0.2 0.7 0.2
v -0.2 0.7 -0.2
v -0.2 0.7 -0.3
v -0.2 0.8 0.3
v -0.2 0.8 0.2
v -0.2 0.8 -0.2
v -0.2 0.8 -0.3
v 0.2 0 0.4
v 0.2 0 0.3
v 0.2 0 -0.3
v 0.2 0 -0.4
v 0.2 0.1 0.4
v 0.2 0.1 0.3
v 0.2 0.1 -0.3
v 0.2 0.1 -0.4
v 0.2 0.7 0.4
v 0.2 0.7 0.3
v 0.2 0.7 -0.3
v 0.2 0.7 -0.4
v 0.2 0.8 0.4
v 0.2 0.8 0.3
v 0.2 0.8 -0.3
v 0.2 0.8 -0.4
v 0.3 0 0.3
v 0.3 0 0.2
v 0.3 0 -0.2
v 0.3 0 -0.3
v 0.3 0.1 0.3
v 0.3 0.1 0.2
v 0.3 0.1 -0.2
v 0.3 0.1 -0.3
v 0.3 0.7 0.3
v 0.3 0.7 0.2
v 0.3 0.7 -0.2
v 0.3 0.7 -0.3
v 0.3 0.8 0.3
v 0.3 0.8 0.2
v 0.3 0.8 -0.2
v 0.3 0.8 -0.3
v 0.4 0 0.2
v 0.4 0 -0.2
v 0.4 0.1 0.2
v 0.4 0.1 0.1
v 0.4 0.1 0
v 0.4 0.1 -0.1
v 0.4 0.1 -0.2
v 0.4 0.7 0.2
v 0.4 0.7 0.1
v 0.4 0.7 0
v 0.4 0.7 -0.1
v 0.4 0.7 -0.2
v 0.4 0.8 0.2
v 0.4 0.8 -0.2
v -0.2 0 0.4
v -0.2 0.1 0.4
v -0.2 0.7 0.4
v -0.2 0.8 0.4
v -0.1 0.1 0.4
v -0.1 0.7 0.4
v 0 0.1 0.4
v 0 0.7 0.4
v 0.1 0.1 0.4
v 0.1 0.7 0.4
v 0.2 0 0.4
v 0.2 0.1 0.4
v 0.2 0.7 0.4
v 0.2 0.8 0.4
v -0.3 0 0.3
v -0.3 0.1 0.3
v -0.3 0.7 0.3
v -0.3 0.8 0.3
v -0.2 0 0.3
v -0.2 0.1 0.3
v -0.2 0.7 0.3
v -0.2 0.8 0.3
v 0.2 0 0.3
v 0.2 0.1 0.3
v 0.2 0.7 0.3
v 0.2 0.8 0.3
v 0.3 0 0.3
v 0.3 0.1 0.3
v 0.3 0.7 0.3
v 0.3 0.8 0.3
v -0.4 0 0.2
v -0.4 0.1 0.2
v -0.4 0.7 0.2
v -0.4 0.8 0.2
v -0.3 0 0.2
v -0.3 0.1 0.2
v -0.3 0.7 0.2
v -0.3 0.8 0.2
v 0.3 0 0.2
v 0.3 0.1 0.2
v 0.3 0.7 0.2
v 0.3 0.8 0.2
v 0.4 0 0.2
v 0.4 0.1 0.2
v 0.4 0.7 0.2
v 0.4 0.8 0.2
v -0.3 0 -0.2
v -0.3 0.1 -0.2
v -0.3 0.7 -0.2
v -0.3 0.8 -0.2
v -0.2 0 -0.2
v -0.2 0.1 -0.2
v -0.2 0.7 -0.2
v -0.2 0.8 -0.2
v 0.2 0 -0.2
v 0.2 0.1 -0.2
v 0.2 0.7 -0.2
v 0.2 0.8 -0.2
v 0.3 0 -0.2
v 0.3 0.1 -0.2
v 0.3 0.7 -0.2
v 0.3 0.8 -0.2
v -0.2 0 -0.3
v -0.2 0.1 -0.3
v -0.2 0.7 -0.3
v -0.2 0.8 -0.3
v 0.2 0 -0.3
v 0.2 0.1 -0.3
v 0.2 0.7 -0.3
v 0.2 0.8 -0.3
v -0.2 0 0.3
v -0.2 0.1 0.3
v -0.2 0.7 0.3
v -0.2 0.8 0.3
v 0.2 0 0.3
v 0.2 0.1 0.3
v 0.2 0.7 0.3
v 0.2 0.8 0.3
v -0.3 0 0.2
v -0.3 0.1 0.2
v -0.3 0.7 0.2
v -0.3 0.8 0.2
v -0.2 0 0.2
v -0.2 0.1 0.2
v -0.2 0.7 0.2
v -0.2 0.8 0.2
v 0.2 0 0.2
v 0.2 0.1 0.2
v 0.2 0.7 0.2
v 0.2 0.8 0.2
v 0.3 0 0.2
v 0.3 0.1 0.2
v 0.3 0.7 0.2
v 0.3 0.8 0.2
v -0.4 0 -0.2
v -0.4 0.1 -0.2
v -0.4 0.7 -0.2
v -0.4 0.8 -0.2
v -0.3 0 -0.2
v -0.3 0.1 -0.2
v -0.3 0.7 -0.2
v -0.3 0.8 -0.2
v 0.3 0 -0.2
v 0.3 0.1 -0.2
v 0.3 0.7 -0.2
v 0.3 0.8 -0.2
v 0.4 0 -0.2
v 0.4 0.1 -0.2
v 0.4 0.7 -0.2
v 0.4 0.8 -0.2
v -0.3 0 -0.3
v -0.3 0.1 -0.3
v -0.3 0.7 -0.3
v -0.3 0.8 -0.3
v -0.2 0 -0.3
v -0.2 0.1 -0.3
v -0.2 0.7 -0.3
v -0.2 0.8 -0.3
v 0.2 0 -0.3
v 0.2 0.1 -0.3
v 0.2 0.7 -0.3
v 0.2 0.8 -0.3
v 0.3 0 -0.3
v 0.3 0.1 -0.3
v 0.3 0.7 -0.3
v 0.3 0.8 -0.3
v -0.2 0 -0.4
v -0.2 0.1 -0.4
v -0.2 0.7 -0.4
v -0.2 0.8 -0.4
v -0.1 0.1 -0.4
v -0.1 0.7 -0.4
v 0 0.1 -0.4
v 0 0.7 -0.4
v 0.1 0.1 -0.4
v 0.1 0.7 -0.4
v 0.2 0 -0.4
v 0.2 0.1 -0.4
v 0.2 0.7 -0.4
v 0.2 0.8 -0.4
v -0.2 0 0.4
v 0.2 0 0.4
v -0.3 0 0.3
v -0.2 0 0.3
v 0.2 0 0.3
v 0.3 0 0.3
v -0.4 0 0.2
v -0.3 0 0.2
v -0.2 0 0.2
v 0.2 0 0.2
v 0.3 0 0.2
v 0.4 0 0.2
v -0.4 0 -0.2
v -0.3 0 -0.2
v -0.2 0 -0.2
v 0.2 0 -0.2
v 0.3 0 -0.2
v 0.4 0 -0.2
v -0.3 0 -0.3
v -0.2 0 -0.3
v 0.2 0 -0.3
v 0.3 0 -0.3
v -0.2 0 -0.4
v 0.2 0 -0.4
v -0.2 0.1 0.3
v 0.2 0.1 0.3
v -0.3 0.1 0.2
v -0.2 0.1 0.2
v 0.2 0.1 0.2
v 0.3 0.1 0.2
v -0.3 0.1 0.1
v 0.3 0.1 0.1
v -0.3 0.1 0
v 0.3 0.1 0
v -0.3 0.1 -0.1
v 0.3 0.1 -0.1
v -0.3 0.1 -0.2
v -0.2 0.1 -0.2
v 0.2 0.1 -0.2
v 0.3 0.1 -0.2
v -0.2 0.1 -0.3
v 0.2 0.1 -0.3
v -0.2 0.7 0.3
v 0.2 0.7 0.3
v -0.3 0.7 0.2
v -0.2 0.7 0.2
v 0.2 0.7 0.2
v 0.3 0.7 0.2
v -0.3 0.7 0.1
v 0.3 0.7 0.1
v -0.3 0.7 0
v 0.3 0.7 0
v -0.3 0.7 -0.1
v 0.3 0.7 -0.1
v -0.3 0.7 -0.2
v -0.2 0.7 -0.2
v 0.2 0.7 -0.2
v 0.3 0.7 -0.2
v -0.2 0.7 -0.3
v 0.2 0.7 -0.3
v -0.2 0.8 0.4
v 0.2 0.8 0.4
v -0.3 0.8 0.3
v -0.2 0.8 0.3
v 0.2 0.8 0.3
v 0.3 0.8 0.3
v -0.4 0.8 0.2
v -0.3 0.8 0.2
v -0.2 0.8 0.2
v 0.2 0.8 0.2
v 0.3 0.8 0.2
v 0.4 0.8 0.2
v -0.4 0.8 -0.2
v -0.3 0.8 -0.2
v -0.2 0.8 -0.2
v 0.2 0.8 -0.2
v 0.3 0.8 -0.2
v 0.4 0.8 -0.2
v -0.3 0.8 -0.3
v -0.2 0.8 -0.3
v 0.2 0.8 -0.3
v 0.3 0.8 -0.3
v -0.2 0.8 -0.4
v 0.2 0.8 -0.4

# faces
f 3/3/1 2/3/1 1/3/1
f 4/3/1 2/3/1 3/3/1
f 5/3/1 2/3/1 4/3/1
f 6/3/1 2/3/1 5/3/1
f 7/3/1 2/3/1 6/3/1
f 8/1/1 4/1/1 3/1/1
f 9/2/1 5/2/1 4/2/1
f 9/1/1 4/1/1 8/1/1
f 10/1/1 6/1/1 5/1/1
f 10/2/1 5/2/1 9/2/1
f 11/2/1 7/2/1 6/2/1
f 11/1/1 6/1/1 10/1/1
f 12/2/1 7/2/1 11/2/1
f 13/3/1 9/3/1 8/3/1
f 13/3/1 10/3/1 9/3/1
f 13/3/1 12/3/1 11/3/1
f 13/3/1 11/3/1 10/3/1
f 14/3/1 12/3/1 13/3/1
f 19/3/1 16/3/1 15/3/1
f 20/3/1 16/3/1 19/3/1
f 21/3/1 18/3/1 17/3/1
f 22/3/1 18/3/1 21/3/1
f 23/2/1 20/2/1 19/2/1
f 24/2/1 20/2/1 23/2/1
f 25/1/1 22/1/1 21/1/1
f 26/1/1 22/1/1 25/1/1
f 27/3/1 24/3/1 23/3/1
f 28/3/1 24/3/1 27/3/1
f 29/3/1 26/3/1 25/3/1
f 30/3/1 26/3/1 29/3/1
f 35/3/1 32/3/1 31/3/1
f 36/3/1 32/3/1 35/3/1
f 37/3/1 34/3/1 33/3/1
f 38/3/1 34/3/1 37/3/1
f 39/1/1 36/1/1 35/1/1
f 40/1/1 36/1/1 39/1/1
f 41/2/1 38/2/1 37/2/1
f 42/2/1 38/2/1 41/2/1
f 43/3/1 40/3/1 39/3/1
f 44/3/1 40/3/1 43/3/1
f 45/3/1 42/3/1 41/3/1
f 46/3/1 42/3/1 45/3/1
f 51/3/1 48/3/1 47/3/1
f 52/3/1 48/3/1 51/3/1
f 53/3/1 50/3/1 49/3/1
f 54/3/1 50/3/1 53/3/1
f 59/3/1 56/3/1 55/3/1
f 60/3/1 56/3/1 59/3/1
f 61/3/1 58/3/1 57/3/1
f 62/3/1 58/3/1 61/3/1
f 65/3/1 64/3/1 63/3/1
f 66/3/1 64/3/1 65/3/1
f 67/3/1 64/3/1 66/3/1
f 68/3/1 64/3/1 67/3/1
f 69/3/1 64/3/1 68/3/1
f 75/3/1 71/3/1 70/3/1
f 75/3/1 74/3/1 73/3/1
f 75/3/1 73/3/1 72/3/1
f 75/3/1 72/3/1 71/3/1
f 76/3/1 74/3/1 75/3/1
f 77/3/2 78/3/2 79/3/2
f 79/3/2 78/3/2 80/3/2
f 80/3/2 78/3/2 81/3/2
f 81/3/2 78/3/2 82/3/2
f 82/3/2 78/3/2 83/3/2
f 84/3/2 85/3/2 89/3/2
f 87/3/2 88/3/2 89/3/2
f 86/3/2 87/3/2 89/3/2
f 85/3/2 86/3/2 89/3/2
f 89/3/2 88/3/2 90/3/2
f 91/3/2 92/3/2 95/3/2
f 95/3/2 92/3/2 96/3/2
f 93/3/2 94/3/2 97/3/2
f 97/3/2 94/3/2 98/3/2
f 99/3/2 100/3/2 103/3/2
f 103/3/2 100/3/2 104/3/2
f 101/3/2 102/3/2 105/3/2
f 105/3/2 102/3/2 106/3/2
f 107/3/2 108/3/2 111/3/2
f 111/3/2 108/3/2 112/3/2
f 109/3/2 110/3/2 113/3/2
f 113/3/2 110/3/2 114/3/2
f 111/2/2 112/2/2 115/2/2
f 115/2/2 112/2/2 116/2/2
f 113/1/2 114/1/2 117/1/2
f 117/1/2 114/1/2 118/1/2
f 115/3/2 116/3/2 119/3/2
f 119/3/2 116/3/2 120/3/2
f 117/3/2 118/3/2 121/3/2
f 121/3/2 118/3/2 122/3/2
f 123/3/2 124/3/2 127/3/2
f 127/3/2 124/3/2 128/3/2
f 125/3/2 126/3/2 129/3/2
f 129/3/2 126/3/2 130/3/2
f 127/1/2 128/1/2 131/1/2
f 131/1/2 128/1/2 132/1/2
f 129/2/2 130/2/2 133/2/2
f 133/2/2 130/2/2 134/2/2
f 131/3/2 132/3/2 135/3/2
f 135/3/2 132/3/2 136/3/2
f 133/3/2 134/3/2 137/3/2
f 137/3/2 134/3/2 138/3/2
f 139/3/2 140/3/2 141/3/2
f 141/3/2 140/3/2 142/3/2
f 142/3/2 140/3/2 143/3/2
f 143/3/2 140/3/2 144/3/2
f 144/3/2 140/3/2 145/3/2
f 141/2/2 142/2/2 146/2/2
f 142/1/2 143/1/2 147/1/2
f 146/2/2 142/2/2 147/2/2
f 143/2/2 144/2/2 148/2/2
f 147/1/2 143/1/2 148/1/2
f 144/1/2 145/1/2 149/1/2
f 148/2/2 144/2/2 149/2/2
f 149/1/2 145/1/2 150/1/2
f 146/3/2 147/3/2 151/3/2
f 147/3/2 148/3/2 151/3/2
f 149/3/2 150/3/2 151/3/2
f 148/3/2 149/3/2 151/3/2
f 151/3/2 150/3/2 152/3/2
f 157/3/3 154/3/3 153/3/3
f 157/1/3 155/1/3 154/1/3
f 158/3/3 156/3/3 155/3/3
f 158/1/3 155/1/3 157/1/3
f 159/3/3 157/3/3 153/3/3
f 159/2/3 158/2/3 157/2/3
f 160/3/3 156/3/3 158/3/3
f 160/2/3 158/2/3 159/2/3
f 161/3/3 159/3/3 153/3/3
f 161/1/3 160/1/3 159/1/3
f 162/3/3 156/3/3 160/3/3
f 162/1/3 160/1/3 161/1/3
f 163/3/3 161/3/3 153/3/3
f 164/2/3 162/2/3 161/2/3
f 164/3/3 161/3/3 163/3/3
f 165/3/3 156/3/3 162/3/3
f 165/2/3 162/2/3 164/2/3
f 166/3/3 156/3/3 165/3/3
f 171/3/3 168/3/3 167/3/3
f 172/2/3 169/2/3 168/2/3
f 172/3/3 168/3/3 171/3/3
f 173/3/3 170/3/3 169/3/3
f 173/2/3 169/2/3 172/2/3
f 174/3/3 170/3/3 173/3/3
f 179/3/3 176/3/3 175/3/3
f 180/1/3 177/1/3 176/1/3
f 180/3/3 176/3/3 179/3/3
f 181/3/3 178/3/3 177/3/3
f 181/1/3 177/1/3 180/1/3
f 182/3/3 178/3/3 181/3/3
f 187/3/3 184/3/3 183/3/3
f 188/1/3 185/1/3 184/1/3
f 188/3/3 184/3/3 187/3/3
f 189/3/3 186/3/3 185/3/3
f 189/1/3 185/1/3 188/1/3
f 190/3/3 186/3/3 189/3/3
f 195/3/3 192/3/3 191/3/3
f 196/2/3 193/2/3 192/2/3
f 196/3/3 192/3/3 195/3/3
f 197/3/3 194/3/3 193/3/3
f 197/2/3 193/2/3 196/2/3
f 198/3/3 194/3/3 197/3/3
f 203/3/3 200/3/3 199/3/3
f 204/3/3 200/3/3 203/3/3
f 205/3/3 202/3/3 201/3/3
f 206/3/3 202/3/3 205/3/3
f 211/3/3 208/3/3 207/3/3
f 212/3/3 208/3/3 211/3/3
f 213/3/3 210/3/3 209/3/3
f 214/3/3 210/3/3 213/3/3
f 219/3/3 216/3/3 215/3/3
f 220/3/3 216/3/3 219/3/3
f 221/3/3 218/3/3 217/3/3
f 222/3/3 218/3/3 221/3/3
f 223/3/4 224/3/4 227/3/4
f 227/3/4 224/3/4 228/3/4
f 225/3/4 226/3/4 229/3/4
f 229/3/4 226/3/4 230/3/4
f 231/3/4 232/3/4 235/3/4
f 235/3/4 232/3/4 236/3/4
f 233/3/4 234/3/4 237/3/4
f 237/3/4 234/3/4 238/3/4
f 239/3/4 240/3/4 243/3/4
f 243/3/4 240/3/4 244/3/4
f 241/3/4 242/3/4 245/3/4
f 245/3/4 242/3/4 246/3/4
f 247/3/4 248/3/4 251/3/4
f 248/2/4 249/2/4 252/2/4
f 251/3/4 248/3/4 252/3/4
f 249/3/4 250/3/4 253/3/4
f 252/2/4 249/2/4 253/2/4
f 253/3/4 250/3/4 254/3/4
f 255/3/4 256/3/4 259/3/4
f 256/1/4 257/1/4 260/1/4
f 259/3/4 256/3/4 260/3/4
f 257/3/4 258/3/4 261/3/4
f 260/1/4 257/1/4 261/1/4
f 261/3/4 258/3/4 262/3/4
f 263/3/4 264/3/4 267/3/4
f 264/1/4 265/1/4 268/1/4
f 267/3/4 264/3/4 268/3/4
f 265/3/4 266/3/4 269/3/4
f 268/1/4 265/1/4 269/1/4
f 269/3/4 266/3/4 270/3/4
f 271/3/4 272/3/4 275/3/4
f 272/2/4 273/2/4 276/2/4
f 275/3/4 272/3/4 276/3/4
f 273/3/4 274/3/4 277/3/4
f 276/2/4 273/2/4 277/2/4
f 277/3/4 274/3/4 278/3/4
f 279/3/4 280/3/4 283/3/4
f 280/2/4 281/2/4 283/2/4
f 281/3/4 282/3/4 284/3/4
f 283/2/4 281/2/4 284/2/4
f 279/3/4 283/3/4 285/3/4
f 283/1/4 284/1/4 285/1/4
f 284/3/4 282/3/4 286/3/4
f 285/1/4 284/1/4 286/1/4
f 279/3/4 285/3/4 287/3/4
f 285/2/4 286/2/4 287/2/4
f 286/3/4 282/3/4 288/3/4
f 287/2/4 286/2/4 288/2/4
f 279/3/4 287/3/4 289/3/4
f 287/1/4 288/1/4 290/1/4
f 289/3/4 287/3/4 290/3/4
f 288/3/4 282/3/4 291/3/4
f 290/1/4 288/1/4 291/1/4
f 291/3/4 282/3/4 292/3/4
f 296/3/5 294/3/5 293/3/5
f 297/3/5 294/3/5 296/3/5
f 300/3/5 296/3/5 295/3/5
f 301/3/5 296/3/5 300/3/5
f 302/3/5 298/3/5 297/3/5
f 303/3/5 298/3/5 302/3/5
f 305/3/5 300/3/5 299/3/5
f 306/3/5 300/3/5 305/3/5
f 309/3/5 304/3/5 303/3/5
f 310/3/5 304/3/5 309/3/5
f 311/3/5 307/3/5 306/3/5
f 312/3/5 307/3/5 311/3/5
f 313/3/5 309/3/5 308/3/5
f 314/3/5 309/3/5 313/3/5
f 315/3/5 313/3/5 312/3/5
f 316/3/5 313/3/5 315/3/5
f 320/2/5 318/2/5 317/2/5
f 321/2/5 318/2/5 320/2/5
f 323/1/5 320/1/5 319/1/5
f 323/1/5 322/1/5 321/1/5
f 323/1/5 321/1/5 320/1/5
f 324/1/5 322/1/5 323/1/5
f 325/2/5 324/2/5 323/2/5
f 326/2/5 324/2/5 325/2/5
f 327/1/5 326/1/5 325/1/5
f 328/1/5 326/1/5 327/1/5
f 329/2/5 328/2/5 327/2/5
f 330/2/5 328/2/5 329/2/5
f 331/2/5 328/2/5 330/2/5
f 332/2/5 328/2/5 331/2/5
f 333/1/5 331/1/5 330/1/5
f 334/1/5 331/1/5 333/1/5
f 335/2/6 336/2/6 338/2/6
f 338/2/6 336/2/6 339/2/6
f 337/1/6 338/1/6 341/1/6
f 339/1/6 340/1/6 341/1/6
f 338/1/6 339/1/6 341/1/6
f 341/1/6 340/1/6 342/1/6
f 341/2/6 342/2/6 343/2/6
f 343/2/6 342/2/6 344/2/6
f 343/1/6 344/1/6 345/1/6
f 345/1/6 344/1/6 346/1/6
f 345/2/6 346/2/6 347/2/6
f 347/2/6 346/2/6 348/2/6
f 348/2/6 346/2/6 349/2/6
f 349/2/6 346/2/6 350/2/6
f 348/1/6 349/1/6 351/1/6
f 351/1/6 349/1/6 352/1/6
f 353/3/6 354/3/6 356/3/6
f 356/3/6 354/3/6 357/3/6
f 355/3/6 356/3/6 360/3/6
f 360/3/6 356/3/6 361/3/6
f 357/3/6 358/3/6 362/3/6
f 362/3/6 358/3/6 363/3/6
f 359/3/6 360/3/6 365/3/6
f 365/3/6 360/3/6 366/3/6
f 363/3/6 364/3/6 369/3/6
f 369/3/6 364/3/6 370/3/6
f 366/3/6 367/3/6 371/3/6
f 371/3/6 367/3/6 372/3/6
f 368/3/6 369/3/6 373/3/6
f 373/3/6 369/3/6 374/3/6
f 372/3/6 373/3/6 375/3/6
f 375/3/6 373/3/6 376/3/6
