# MagicaVoxel @ Ephtracy

# group
o 

# material
mtllib boneco sem braço.mtl
usemtl palette

# normals
vn -1 0 0
vn 1 0 0
vn 0 0 1
vn 0 0 -1
vn 0 -1 0
vn 0 1 0

# texcoords
vt 0.462891 0.5
vt 0.970703 0.5
vt 0.974609 0.5
vt 0.978516 0.5

# verts
v -0.4 0.3 0.4
v -0.4 0.3 -0.1
v -0.4 0.4 0.5
v -0.4 0.4 0.4
v -0.4 0.4 -0.1
v -0.4 0.4 -0.2
v -0.4 1.2 0.5
v -0.4 1.2 -0.2
v -0.3 0 0.4
v -0.3 0 -0.1
v -0.3 0.1 0.4
v -0.3 0.1 0.3
v -0.3 0.1 0.2
v -0.3 0.1 0
v -0.3 0.2 0.3
v -0.3 0.2 0.2
v -0.3 0.2 0
v -0.3 0.2 -0.1
v -0.3 0.3 0.2
v -0.3 0.3 0
v -0.3 0.7 -0.4
v -0.3 0.7 -0.5
v -0.3 0.8 -0.2
v -0.3 0.8 -0.3
v -0.3 0.9 -0.4
v -0.3 0.9 -0.5
v -0.3 1.2 0.5
v -0.3 1.2 -0.2
v -0.3 1.2 -0.3
v -0.3 1.3 0.5
v -0.3 1.3 -0.2
v -0.2 0.7 -0.2
v -0.2 0.7 -0.3
v -0.2 0.8 -0.2
v -0.2 0.8 -0.3
v -0.2 0.8 -0.4
v -0.2 0.9 -0.4
v -0.2 0.9 -0.5
v -0.2 1 -0.4
v -0.2 1 -0.5
v -0.2 1.1 -0.3
v -0.2 1.1 -0.4
v -0.1 1.1 0.5
v -0.1 1.1 0.4
v -0.1 1.2 0.5
v -0.1 1.2 0.4
v -0.1 1.3 0.2
v -0.1 1.3 0.1
v -0.1 1.5 0.2
v -0.1 1.5 0.1
v 0 1.5 0.2
v 0 1.5 0.1
v 0 1.6 0.2
v 0 1.6 0.1
v 0.1 0 0.4
v 0.1 0 -0.1
v 0.1 0.1 0.4
v 0.1 0.1 0.3
v 0.1 0.1 0.2
v 0.1 0.1 0
v 0.1 0.2 0.3
v 0.1 0.2 0.2
v 0.1 0.2 0
v 0.1 0.2 -0.1
v 0.1 0.3 0.2
v 0.1 0.3 0
v 0.1 1.6 0.2
v 0.1 1.6 0.1
v 0.1 1.7 0.2
v 0.1 1.7 0.1
v 0.2 0.6 0.5
v 0.2 0.6 0.4
v 0.2 0.7 0.5
v 0.2 0.7 0.4
v 0.2 1.1 0.5
v 0.2 1.1 0.4
v 0.2 1.2 0.5
v 0.2 1.2 0.4
v 0.3 0.7 0.5
v 0.3 0.7 0.4
v 0.3 1.1 0.5
v 0.3 1.1 0.4
v -0.3 0.7 0.5
v -0.3 0.7 0.4
v -0.3 1.1 0.5
v -0.3 1.1 0.4
v -0.2 0.6 0.5
v -0.2 0.6 0.4
v -0.2 0.7 0.5
v -0.2 0.7 0.4
v -0.2 1.1 0.5
v -0.2 1.1 0.4
v -0.2 1.2 0.5
v -0.2 1.2 0.4
v -0.1 0 0.4
v -0.1 0 -0.1
v -0.1 0.1 0.4
v -0.1 0.1 0.3
v -0.1 0.1 0.2
v -0.1 0.1 0
v -0.1 0.2 0.3
v -0.1 0.2 0.2
v -0.1 0.2 0
v -0.1 0.2 -0.1
v -0.1 0.3 0.2
v -0.1 0.3 0
v -0.1 0.7 -0.4
v -0.1 0.7 -0.5
v -0.1 0.8 -0.4
v -0.1 0.8 -0.5
v 0 0.8 -0.4
v 0 0.8 -0.5
v 0 1 -0.4
v 0 1 -0.5
v 0 1.3 0.2
v 0 1.3 0.1
v 0 1.5 0.2
v 0 1.5 0.1
v 0.1 0.8 -0.3
v 0.1 0.8 -0.4
v 0.1 1.1 0.5
v 0.1 1.1 0.4
v 0.1 1.1 -0.3
v 0.1 1.1 -0.4
v 0.1 1.2 0.5
v 0.1 1.2 0.4
v 0.1 1.5 0.2
v 0.1 1.5 0.1
v 0.1 1.6 0.2
v 0.1 1.6 0.1
v 0.2 0.7 -0.2
v 0.2 0.7 -0.3
v 0.2 0.8 -0.2
v 0.2 0.8 -0.3
v 0.2 1.6 0.2
v 0.2 1.6 0.1
v 0.2 1.7 0.2
v 0.2 1.7 0.1
v 0.3 0 0.4
v 0.3 0 -0.1
v 0.3 0.1 0.4
v 0.3 0.1 0.3
v 0.3 0.1 0.2
v 0.3 0.1 0
v 0.3 0.2 0.3
v 0.3 0.2 0.2
v 0.3 0.2 0
v 0.3 0.2 -0.1
v 0.3 0.3 0.2
v 0.3 0.3 0
v 0.3 0.8 -0.2
v 0.3 0.8 -0.3
v 0.3 1.2 0.5
v 0.3 1.2 -0.2
v 0.3 1.2 -0.3
v 0.3 1.3 0.5
v 0.3 1.3 -0.2
v 0.4 0.3 0.4
v 0.4 0.3 -0.1
v 0.4 0.4 0.5
v 0.4 0.4 0.4
v 0.4 0.4 -0.1
v 0.4 0.4 -0.2
v 0.4 1.2 0.5
v 0.4 1.2 -0.2
v -0.4 0.4 0.5
v -0.4 1.2 0.5
v -0.3 0.7 0.5
v -0.3 1.1 0.5
v -0.3 1.2 0.5
v -0.3 1.3 0.5
v -0.2 0.6 0.5
v -0.2 0.7 0.5
v -0.2 1.1 0.5
v -0.2 1.2 0.5
v -0.1 1.1 0.5
v -0.1 1.2 0.5
v 0.1 1.1 0.5
v 0.1 1.2 0.5
v 0.2 0.6 0.5
v 0.2 0.7 0.5
v 0.2 1.1 0.5
v 0.2 1.2 0.5
v 0.3 0.7 0.5
v 0.3 1.1 0.5
v 0.3 1.2 0.5
v 0.3 1.3 0.5
v 0.4 0.4 0.5
v 0.4 1.2 0.5
v -0.4 0.3 0.4
v -0.4 0.4 0.4
v -0.3 0 0.4
v -0.3 0.1 0.4
v -0.3 0.7 0.4
v -0.3 1.1 0.4
v -0.2 0.6 0.4
v -0.2 0.7 0.4
v -0.2 0.8 0.4
v -0.2 1 0.4
v -0.2 1.1 0.4
v -0.2 1.2 0.4
v -0.1 0 0.4
v -0.1 0.1 0.4
v -0.1 0.8 0.4
v -0.1 1 0.4
v -0.1 1.1 0.4
v -0.1 1.2 0.4
v 0.1 0 0.4
v 0.1 0.1 0.4
v 0.1 0.8 0.4
v 0.1 1 0.4
v 0.1 1.1 0.4
v 0.1 1.2 0.4
v 0.2 0.6 0.4
v 0.2 0.7 0.4
v 0.2 0.8 0.4
v 0.2 1 0.4
v 0.2 1.1 0.4
v 0.2 1.2 0.4
v 0.3 0 0.4
v 0.3 0.1 0.4
v 0.3 0.7 0.4
v 0.3 1.1 0.4
v 0.4 0.3 0.4
v 0.4 0.4 0.4
v -0.3 0.1 0.3
v -0.3 0.2 0.3
v -0.1 0.1 0.3
v -0.1 0.2 0.3
v 0.1 0.1 0.3
v 0.1 0.2 0.3
v 0.3 0.1 0.3
v 0.3 0.2 0.3
v -0.3 0.2 0.2
v -0.3 0.3 0.2
v -0.1 0.2 0.2
v -0.1 0.3 0.2
v -0.1 1.3 0.2
v -0.1 1.5 0.2
v 0 1.3 0.2
v 0 1.5 0.2
v 0 1.6 0.2
v 0.1 0.2 0.2
v 0.1 0.3 0.2
v 0.1 1.5 0.2
v 0.1 1.6 0.2
v 0.1 1.7 0.2
v 0.2 1.6 0.2
v 0.2 1.7 0.2
v 0.3 0.2 0.2
v 0.3 0.3 0.2
v -0.3 0.7 -0.4
v -0.3 0.9 -0.4
v -0.2 0.8 -0.4
v -0.2 0.9 -0.4
v -0.1 0.7 -0.4
v -0.1 0.8 -0.4
v -0.1 1.3 0.1
v -0.1 1.5 0.1
v 0 1.3 0.1
v 0 1.5 0.1
v 0 1.6 0.1
v 0.1 1.5 0.1
v 0.1 1.6 0.1
v 0.1 1.7 0.1
v 0.2 1.6 0.1
v 0.2 1.7 0.1
v -0.3 0.2 0
v -0.3 0.3 0
v -0.1 0.2 0
v -0.1 0.3 0
v 0.1 0.2 0
v 0.1 0.3 0
v 0.3 0.2 0
v 0.3 0.3 0
v -0.4 0.3 -0.1
v -0.4 0.4 -0.1
v -0.3 0 -0.1
v -0.3 0.2 -0.1
v -0.1 0 -0.1
v -0.1 0.2 -0.1
v 0.1 0 -0.1
v 0.1 0.2 -0.1
v 0.3 0 -0.1
v 0.3 0.2 -0.1
v 0.4 0.3 -0.1
v 0.4 0.4 -0.1
v -0.4 0.4 -0.2
v -0.4 1.2 -0.2
v -0.3 0.8 -0.2
v -0.3 1.2 -0.2
v -0.3 1.3 -0.2
v -0.2 0.7 -0.2
v -0.2 0.8 -0.2
v 0.2 0.7 -0.2
v 0.2 0.8 -0.2
v 0.3 0.8 -0.2
v 0.3 1.2 -0.2
v 0.3 1.3 -0.2
v 0.4 0.4 -0.2
v 0.4 1.2 -0.2
v -0.3 0.8 -0.3
v -0.3 1.2 -0.3
v -0.2 0.7 -0.3
v -0.2 0.8 -0.3
v -0.2 1.1 -0.3
v 0.1 0.8 -0.3
v 0.1 1.1 -0.3
v 0.2 0.7 -0.3
v 0.2 0.8 -0.3
v 0.3 0.8 -0.3
v 0.3 1.2 -0.3
v -0.2 1 -0.4
v -0.2 1.1 -0.4
v 0 0.8 -0.4
v 0 1 -0.4
v 0.1 0.8 -0.4
v 0.1 1.1 -0.4
v -0.3 0.7 -0.5
v -0.3 0.9 -0.5
v -0.2 0.9 -0.5
v -0.2 1 -0.5
v -0.1 0.7 -0.5
v -0.1 0.8 -0.5
v 0 0.8 -0.5
v 0 1 -0.5
v -0.3 0 0.4
v -0.1 0 0.4
v 0.1 0 0.4
v 0.3 0 0.4
v -0.3 0 -0.1
v -0.1 0 -0.1
v 0.1 0 -0.1
v 0.3 0 -0.1
v -0.4 0.3 0.4
v 0.4 0.3 0.4
v -0.3 0.3 0.2
v -0.1 0.3 0.2
v 0.1 0.3 0.2
v 0.3 0.3 0.2
v -0.3 0.3 0
v -0.1 0.3 0
v 0.1 0.3 0
v 0.3 0.3 0
v -0.4 0.3 -0.1
v 0.4 0.3 -0.1
v -0.4 0.4 0.5
v 0.4 0.4 0.5
v -0.4 0.4 0.4
v 0.4 0.4 0.4
v -0.4 0.4 -0.1
v 0.4 0.4 -0.1
v -0.4 0.4 -0.2
v 0.4 0.4 -0.2
v -0.2 0.7 -0.2
v 0.2 0.7 -0.2
v -0.2 0.7 -0.3
v 0.2 0.7 -0.3
v -0.3 0.7 -0.4
v -0.1 0.7 -0.4
v -0.3 0.7 -0.5
v -0.1 0.7 -0.5
v -0.3 0.8 -0.2
v -0.2 0.8 -0.2
v 0.2 0.8 -0.2
v 0.3 0.8 -0.2
v -0.3 0.8 -0.3
v -0.2 0.8 -0.3
v 0.1 0.8 -0.3
v 0.2 0.8 -0.3
v 0.3 0.8 -0.3
v -0.2 0.8 -0.4
v -0.1 0.8 -0.4
v 0 0.8 -0.4
v 0.1 0.8 -0.4
v -0.1 0.8 -0.5
v 0 0.8 -0.5
v -0.3 1.1 0.5
v -0.2 1.1 0.5
v -0.1 1.1 0.5
v 0.1 1.1 0.5
v 0.2 1.1 0.5
v 0.3 1.1 0.5
v -0.3 1.1 0.4
v -0.2 1.1 0.4
v -0.1 1.1 0.4
v 0.1 1.1 0.4
v 0.2 1.1 0.4
v 0.3 1.1 0.4
v -0.2 1.2 0.5
v -0.1 1.2 0.5
v 0.1 1.2 0.5
v 0.2 1.2 0.5
v -0.2 1.2 0.4
v -0.1 1.2 0.4
v 0.1 1.2 0.4
v 0.2 1.2 0.4
v 0 1.5 0.2
v 0.1 1.5 0.2
v 0 1.5 0.1
v 0.1 1.5 0.1
v 0.1 1.6 0.2
v 0.2 1.6 0.2
v 0.1 1.6 0.1
v 0.2 1.6 0.1
v -0.3 0.1 0.4
v -0.1 0.1 0.4
v 0.1 0.1 0.4
v 0.3 0.1 0.4
v -0.3 0.1 0.3
v -0.1 0.1 0.3
v 0.1 0.1 0.3
v 0.3 0.1 0.3
v -0.3 0.2 0.3
v -0.1 0.2 0.3
v 0.1 0.2 0.3
v 0.3 0.2 0.3
v -0.3 0.2 0.2
v -0.1 0.2 0.2
v 0.1 0.2 0.2
v 0.3 0.2 0.2
v -0.3 0.2 0
v -0.1 0.2 0
v 0.1 0.2 0
v 0.3 0.2 0
v -0.3 0.2 -0.1
v -0.1 0.2 -0.1
v 0.1 0.2 -0.1
v 0.3 0.2 -0.1
v -0.2 0.6 0.5
v 0.2 0.6 0.5
v -0.2 0.6 0.4
v 0.2 0.6 0.4
v -0.3 0.7 0.5
v -0.2 0.7 0.5
v 0.2 0.7 0.5
v 0.3 0.7 0.5
v -0.3 0.7 0.4
v -0.2 0.7 0.4
v 0.2 0.7 0.4
v 0.3 0.7 0.4
v -0.3 0.9 -0.4
v -0.2 0.9 -0.4
v -0.3 0.9 -0.5
v -0.2 0.9 -0.5
v -0.2 1 -0.4
v 0 1 -0.4
v -0.2 1 -0.5
v 0 1 -0.5
v -0.2 1.1 -0.3
v 0.1 1.1 -0.3
v -0.2 1.1 -0.4
v 0.1 1.1 -0.4
v -0.4 1.2 0.5
v -0.3 1.2 0.5
v 0.3 1.2 0.5
v 0.4 1.2 0.5
v -0.4 1.2 -0.2
v -0.3 1.2 -0.2
v 0.3 1.2 -0.2
v 0.4 1.2 -0.2
v -0.3 1.2 -0.3
v 0.3 1.2 -0.3
v -0.3 1.3 0.5
v 0.3 1.3 0.5
v -0.1 1.3 0.2
v 0 1.3 0.2
v -0.1 1.3 0.1
v 0 1.3 0.1
v -0.3 1.3 -0.2
v 0.3 1.3 -0.2
v -0.1 1.5 0.2
v 0 1.5 0.2
v -0.1 1.5 0.1
v 0 1.5 0.1
v 0 1.6 0.2
v 0.1 1.6 0.2
v 0 1.6 0.1
v 0.1 1.6 0.1
v 0.1 1.7 0.2
v 0.2 1.7 0.2
v 0.1 1.7 0.1
v 0.2 1.7 0.1

# faces
f 4/2/1 2/2/1 1/2/1
f 5/2/1 2/2/1 4/2/1
f 7/2/1 4/2/1 3/2/1
f 7/2/1 6/2/1 5/2/1
f 7/2/1 5/2/1 4/2/1
f 8/2/1 6/2/1 7/2/1
f 11/2/1 10/2/1 9/2/1
f 12/2/1 10/2/1 11/2/1
f 13/2/1 10/2/1 12/2/1
f 14/2/1 10/2/1 13/2/1
f 15/2/1 13/2/1 12/2/1
f 16/3/1 14/3/1 13/3/1
f 16/2/1 13/2/1 15/2/1
f 17/2/1 10/2/1 14/2/1
f 17/3/1 14/3/1 16/3/1
f 18/2/1 10/2/1 17/2/1
f 19/3/1 17/3/1 16/3/1
f 20/3/1 17/3/1 19/3/1
f 25/2/1 22/2/1 21/2/1
f 26/2/1 22/2/1 25/2/1
f 28/2/1 24/2/1 23/2/1
f 29/2/1 24/2/1 28/2/1
f 30/2/1 28/2/1 27/2/1
f 31/2/1 28/2/1 30/2/1
f 34/2/1 33/2/1 32/2/1
f 35/2/1 33/2/1 34/2/1
f 37/2/1 36/2/1 35/2/1
f 39/2/1 37/2/1 35/2/1
f 39/2/1 38/2/1 37/2/1
f 40/2/1 38/2/1 39/2/1
f 41/2/1 39/2/1 35/2/1
f 42/2/1 39/2/1 41/2/1
f 45/2/1 44/2/1 43/2/1
f 46/2/1 44/2/1 45/2/1
f 49/1/1 48/1/1 47/1/1
f 50/1/1 48/1/1 49/1/1
f 53/1/1 52/1/1 51/1/1
f 54/1/1 52/1/1 53/1/1
f 57/2/1 56/2/1 55/2/1
f 58/2/1 56/2/1 57/2/1
f 59/2/1 56/2/1 58/2/1
f 60/2/1 56/2/1 59/2/1
f 61/2/1 59/2/1 58/2/1
f 62/3/1 60/3/1 59/3/1
f 62/2/1 59/2/1 61/2/1
f 63/2/1 56/2/1 60/2/1
f 63/3/1 60/3/1 62/3/1
f 64/2/1 56/2/1 63/2/1
f 65/3/1 63/3/1 62/3/1
f 66/3/1 63/3/1 65/3/1
f 69/1/1 68/1/1 67/1/1
f 70/1/1 68/1/1 69/1/1
f 73/2/1 72/2/1 71/2/1
f 74/2/1 72/2/1 73/2/1
f 77/2/1 76/2/1 75/2/1
f 78/2/1 76/2/1 77/2/1
f 81/2/1 80/2/1 79/2/1
f 82/2/1 80/2/1 81/2/1
f 83/2/2 84/2/2 85/2/2
f 85/2/2 84/2/2 86/2/2
f 87/2/2 88/2/2 89/2/2
f 89/2/2 88/2/2 90/2/2
f 91/2/2 92/2/2 93/2/2
f 93/2/2 92/2/2 94/2/2
f 95/2/2 96/2/2 97/2/2
f 97/2/2 96/2/2 98/2/2
f 98/2/2 96/2/2 99/2/2
f 99/2/2 96/2/2 100/2/2
f 98/2/2 99/2/2 101/2/2
f 99/3/2 100/3/2 102/3/2
f 101/2/2 99/2/2 102/2/2
f 100/2/2 96/2/2 103/2/2
f 102/3/2 100/3/2 103/3/2
f 103/2/2 96/2/2 104/2/2
f 102/3/2 103/3/2 105/3/2
f 105/3/2 103/3/2 106/3/2
f 107/2/2 108/2/2 109/2/2
f 109/2/2 108/2/2 110/2/2
f 111/2/2 112/2/2 113/2/2
f 113/2/2 112/2/2 114/2/2
f 115/1/2 116/1/2 117/1/2
f 117/1/2 116/1/2 118/1/2
f 119/2/2 120/2/2 123/2/2
f 123/2/2 120/2/2 124/2/2
f 121/2/2 122/2/2 125/2/2
f 125/2/2 122/2/2 126/2/2
f 127/1/2 128/1/2 129/1/2
f 129/1/2 128/1/2 130/1/2
f 131/2/2 132/2/2 133/2/2
f 133/2/2 132/2/2 134/2/2
f 135/1/2 136/1/2 137/1/2
f 137/1/2 136/1/2 138/1/2
f 139/2/2 140/2/2 141/2/2
f 141/2/2 140/2/2 142/2/2
f 142/2/2 140/2/2 143/2/2
f 143/2/2 140/2/2 144/2/2
f 142/2/2 143/2/2 145/2/2
f 143/3/2 144/3/2 146/3/2
f 145/2/2 143/2/2 146/2/2
f 144/2/2 140/2/2 147/2/2
f 146/3/2 144/3/2 147/3/2
f 147/2/2 140/2/2 148/2/2
f 146/3/2 147/3/2 149/3/2
f 149/3/2 147/3/2 150/3/2
f 151/2/2 152/2/2 154/2/2
f 154/2/2 152/2/2 155/2/2
f 153/2/2 154/2/2 156/2/2
f 156/2/2 154/2/2 157/2/2
f 158/2/2 159/2/2 161/2/2
f 161/2/2 159/2/2 162/2/2
f 160/2/2 161/2/2 164/2/2
f 162/2/2 163/2/2 164/2/2
f 161/2/2 162/2/2 164/2/2
f 164/2/2 163/2/2 165/2/2
f 168/2/3 167/2/3 166/2/3
f 169/2/3 167/2/3 168/2/3
f 170/2/3 167/2/3 169/2/3
f 172/2/3 168/2/3 166/2/3
f 173/2/3 168/2/3 172/2/3
f 174/2/3 171/2/3 170/2/3
f 174/2/3 170/2/3 169/2/3
f 175/2/3 171/2/3 174/2/3
f 177/2/3 171/2/3 175/2/3
f 178/2/3 177/2/3 176/2/3
f 179/2/3 171/2/3 177/2/3
f 179/2/3 177/2/3 178/2/3
f 180/2/3 172/2/3 166/2/3
f 183/2/3 171/2/3 179/2/3
f 184/2/3 181/2/3 180/2/3
f 185/2/3 183/2/3 182/2/3
f 186/2/3 171/2/3 183/2/3
f 186/2/3 183/2/3 185/2/3
f 187/2/3 171/2/3 186/2/3
f 188/2/3 184/2/3 180/2/3
f 188/2/3 180/2/3 166/2/3
f 188/2/3 186/2/3 185/2/3
f 188/2/3 185/2/3 184/2/3
f 189/2/3 186/2/3 188/2/3
f 197/3/3 195/3/3 194/3/3
f 198/3/3 195/3/3 197/3/3
f 199/3/3 195/3/3 198/3/3
f 200/3/3 195/3/3 199/3/3
f 202/2/3 193/2/3 192/2/3
f 203/2/3 193/2/3 202/2/3
f 204/3/3 197/3/3 196/3/3
f 204/3/3 198/3/3 197/3/3
f 204/4/3 199/4/3 198/4/3
f 205/3/3 201/3/3 200/3/3
f 205/4/3 199/4/3 204/4/3
f 205/3/3 200/3/3 199/3/3
f 206/3/3 201/3/3 205/3/3
f 207/3/3 201/3/3 206/3/3
f 210/3/3 204/3/3 196/3/3
f 210/3/3 205/3/3 204/3/3
f 210/3/3 206/3/3 205/3/3
f 211/3/3 206/3/3 210/3/3
f 212/3/3 206/3/3 211/3/3
f 214/3/3 210/3/3 196/3/3
f 215/3/3 210/3/3 214/3/3
f 216/4/3 211/4/3 210/4/3
f 216/3/3 210/3/3 215/3/3
f 217/3/3 213/3/3 212/3/3
f 217/4/3 211/4/3 216/4/3
f 217/3/3 212/3/3 211/3/3
f 218/3/3 213/3/3 217/3/3
f 219/3/3 213/3/3 218/3/3
f 220/2/3 209/2/3 208/2/3
f 221/2/3 209/2/3 220/2/3
f 222/3/3 216/3/3 215/3/3
f 222/3/3 218/3/3 217/3/3
f 222/3/3 217/3/3 216/3/3
f 223/3/3 218/3/3 222/3/3
f 224/2/3 191/2/3 190/2/3
f 225/2/3 191/2/3 224/2/3
f 228/2/3 227/2/3 226/2/3
f 229/2/3 227/2/3 228/2/3
f 232/2/3 231/2/3 230/2/3
f 233/2/3 231/2/3 232/2/3
f 236/3/3 235/3/3 234/3/3
f 237/3/3 235/3/3 236/3/3
f 240/1/3 239/1/3 238/1/3
f 241/1/3 239/1/3 240/1/3
f 245/1/3 242/1/3 241/1/3
f 246/1/3 242/1/3 245/1/3
f 248/1/3 247/1/3 246/1/3
f 249/1/3 247/1/3 248/1/3
f 250/3/3 244/3/3 243/3/3
f 251/3/3 244/3/3 250/3/3
f 254/2/3 253/2/3 252/2/3
f 255/2/3 253/2/3 254/2/3
f 256/2/3 254/2/3 252/2/3
f 257/2/3 254/2/3 256/2/3
f 258/1/4 259/1/4 260/1/4
f 260/1/4 259/1/4 261/1/4
f 261/1/4 262/1/4 263/1/4
f 263/1/4 262/1/4 264/1/4
f 264/1/4 265/1/4 266/1/4
f 266/1/4 265/1/4 267/1/4
f 268/3/4 269/3/4 270/3/4
f 270/3/4 269/3/4 271/3/4
f 272/3/4 273/3/4 274/3/4
f 274/3/4 273/3/4 275/3/4
f 278/2/4 279/2/4 280/2/4
f 280/2/4 279/2/4 281/2/4
f 282/2/4 283/2/4 284/2/4
f 284/2/4 283/2/4 285/2/4
f 276/2/4 277/2/4 286/2/4
f 286/2/4 277/2/4 287/2/4
f 288/2/4 289/2/4 290/2/4
f 290/2/4 289/2/4 291/2/4
f 288/2/4 290/2/4 293/2/4
f 293/2/4 290/2/4 294/2/4
f 288/2/4 293/2/4 295/2/4
f 295/2/4 296/2/4 297/2/4
f 291/2/4 292/2/4 298/2/4
f 298/2/4 292/2/4 299/2/4
f 295/2/4 297/2/4 300/2/4
f 288/2/4 295/2/4 300/2/4
f 297/2/4 298/2/4 300/2/4
f 300/2/4 298/2/4 301/2/4
f 302/2/4 303/2/4 305/2/4
f 305/2/4 303/2/4 306/2/4
f 304/2/4 305/2/4 307/2/4
f 306/2/4 303/2/4 308/2/4
f 304/2/4 307/2/4 309/2/4
f 307/2/4 308/2/4 309/2/4
f 309/2/4 308/2/4 310/2/4
f 310/2/4 308/2/4 311/2/4
f 308/2/4 303/2/4 312/2/4
f 311/2/4 308/2/4 312/2/4
f 313/2/4 314/2/4 316/2/4
f 315/2/4 316/2/4 317/2/4
f 316/2/4 314/2/4 318/2/4
f 317/2/4 316/2/4 318/2/4
f 319/2/4 320/2/4 321/2/4
f 319/2/4 321/2/4 323/2/4
f 321/2/4 322/2/4 323/2/4
f 323/2/4 322/2/4 324/2/4
f 324/2/4 322/2/4 325/2/4
f 325/2/4 322/2/4 326/2/4
f 331/2/5 328/2/5 327/2/5
f 332/2/5 328/2/5 331/2/5
f 333/2/5 330/2/5 329/2/5
f 334/2/5 330/2/5 333/2/5
f 337/2/5 336/2/5 335/2/5
f 338/2/5 336/2/5 337/2/5
f 339/2/5 336/2/5 338/2/5
f 340/2/5 336/2/5 339/2/5
f 341/2/5 337/2/5 335/2/5
f 342/2/5 339/2/5 338/2/5
f 343/2/5 339/2/5 342/2/5
f 344/2/5 336/2/5 340/2/5
f 345/2/5 343/2/5 342/2/5
f 345/2/5 344/2/5 343/2/5
f 345/2/5 341/2/5 335/2/5
f 345/2/5 342/2/5 341/2/5
f 346/2/5 336/2/5 344/2/5
f 346/2/5 344/2/5 345/2/5
f 349/2/5 348/2/5 347/2/5
f 350/2/5 348/2/5 349/2/5
f 353/2/5 352/2/5 351/2/5
f 354/2/5 352/2/5 353/2/5
f 357/2/5 356/2/5 355/2/5
f 358/2/5 356/2/5 357/2/5
f 361/2/5 360/2/5 359/2/5
f 362/2/5 360/2/5 361/2/5
f 367/2/5 364/2/5 363/2/5
f 368/2/5 364/2/5 367/2/5
f 370/2/5 366/2/5 365/2/5
f 371/2/5 366/2/5 370/2/5
f 372/2/5 369/2/5 368/2/5
f 373/2/5 369/2/5 372/2/5
f 374/2/5 369/2/5 373/2/5
f 375/2/5 369/2/5 374/2/5
f 376/2/5 374/2/5 373/2/5
f 377/2/5 374/2/5 376/2/5
f 384/2/5 379/2/5 378/2/5
f 385/2/5 379/2/5 384/2/5
f 386/2/5 381/2/5 380/2/5
f 387/2/5 381/2/5 386/2/5
f 388/2/5 383/2/5 382/2/5
f 389/2/5 383/2/5 388/2/5
f 394/2/5 391/2/5 390/2/5
f 395/2/5 391/2/5 394/2/5
f 396/2/5 393/2/5 392/2/5
f 397/2/5 393/2/5 396/2/5
f 400/1/5 399/1/5 398/1/5
f 401/1/5 399/1/5 400/1/5
f 404/1/5 403/1/5 402/1/5
f 405/1/5 403/1/5 404/1/5
f 406/2/6 407/2/6 410/2/6
f 410/2/6 407/2/6 411/2/6
f 408/2/6 409/2/6 412/2/6
f 412/2/6 409/2/6 413/2/6
f 414/2/6 415/2/6 418/2/6
f 418/2/6 415/2/6 419/2/6
f 416/2/6 417/2/6 420/2/6
f 420/2/6 417/2/6 421/2/6
f 422/2/6 423/2/6 426/2/6
f 426/2/6 423/2/6 427/2/6
f 424/2/6 425/2/6 428/2/6
f 428/2/6 425/2/6 429/2/6
f 430/2/6 431/2/6 432/2/6
f 432/2/6 431/2/6 433/2/6
f 434/2/6 435/2/6 438/2/6
f 438/2/6 435/2/6 439/2/6
f 436/2/6 437/2/6 440/2/6
f 440/2/6 437/2/6 441/2/6
f 442/2/6 443/2/6 444/2/6
f 444/2/6 443/2/6 445/2/6
f 446/2/6 447/2/6 448/2/6
f 448/2/6 447/2/6 449/2/6
f 450/2/6 451/2/6 452/2/6
f 452/2/6 451/2/6 453/2/6
f 454/2/6 455/2/6 458/2/6
f 458/2/6 455/2/6 459/2/6
f 456/2/6 457/2/6 460/2/6
f 460/2/6 457/2/6 461/2/6
f 459/2/6 460/2/6 462/2/6
f 462/2/6 460/2/6 463/2/6
f 464/2/6 465/2/6 466/2/6
f 466/2/6 465/2/6 467/2/6
f 464/2/6 466/2/6 468/2/6
f 467/2/6 465/2/6 469/2/6
f 464/2/6 468/2/6 470/2/6
f 468/2/6 469/2/6 470/2/6
f 469/2/6 465/2/6 471/2/6
f 470/2/6 469/2/6 471/2/6
f 472/1/6 473/1/6 474/1/6
f 474/1/6 473/1/6 475/1/6
f 476/1/6 477/1/6 478/1/6
f 478/1/6 477/1/6 479/1/6
f 480/1/6 481/1/6 482/1/6
f 482/1/6 481/1/6 483/1/6
