# MagicaVoxel @ Ephtracy

# group
o 

# material
mtllib testCharacter.mtl
usemtl palette

# normals
vn -1 0 0
vn 1 0 0
vn 0 0 1
vn 0 0 -1
vn 0 -1 0
vn 0 1 0

# texcoords
vt 0.462891 0.5
vt 0.970703 0.5
vt 0.974609 0.5
vt 0.978516 0.5
vt 0.994141 0.5

# verts
v -0.6 0.4 0.2
v -0.6 0.4 0
v -0.6 0.5 0.2
v -0.6 0.5 0
v -0.6 0.9 0.2
v -0.6 0.9 0
v -0.5 0.6 0
v -0.5 0.6 -0.1
v -0.5 0.9 0.2
v -0.5 0.9 0
v -0.5 0.9 -0.1
v -0.5 1 0.2
v -0.5 1 0
v -0.4 0.3 0.3
v -0.4 0.3 -0.2
v -0.4 0.4 0.4
v -0.4 0.4 0.3
v -0.4 0.4 0.2
v -0.4 0.4 0
v -0.4 0.4 -0.2
v -0.4 0.4 -0.3
v -0.4 0.5 0.2
v -0.4 0.5 0
v -0.4 0.6 0
v -0.4 0.6 -0.1
v -0.4 0.9 0
v -0.4 0.9 -0.1
v -0.4 1 0.2
v -0.4 1 0
v -0.4 1.2 0.4
v -0.4 1.2 -0.3
v -0.3 0 0.3
v -0.3 0 -0.2
v -0.3 0.1 0.3
v -0.3 0.1 0.2
v -0.3 0.1 0.1
v -0.3 0.1 -0.1
v -0.3 0.2 0.2
v -0.3 0.2 0.1
v -0.3 0.2 -0.1
v -0.3 0.2 -0.2
v -0.3 0.3 0.1
v -0.3 0.3 -0.1
v -0.3 0.7 -0.5
v -0.3 0.7 -0.6
v -0.3 0.8 -0.3
v -0.3 0.8 -0.4
v -0.3 0.9 -0.5
v -0.3 0.9 -0.6
v -0.3 1.2 0.4
v -0.3 1.2 -0.3
v -0.3 1.2 -0.4
v -0.3 1.3 0.4
v -0.3 1.3 -0.3
v -0.2 0.7 -0.3
v -0.2 0.7 -0.4
v -0.2 0.8 -0.3
v -0.2 0.8 -0.4
v -0.2 0.8 -0.5
v -0.2 0.9 -0.5
v -0.2 0.9 -0.6
v -0.2 1 -0.5
v -0.2 1 -0.6
v -0.2 1.1 -0.4
v -0.2 1.1 -0.5
v -0.1 1.1 0.4
v -0.1 1.1 0.3
v -0.1 1.2 0.4
v -0.1 1.2 0.3
v -0.1 1.3 0.1
v -0.1 1.3 0
v -0.1 1.5 0.1
v -0.1 1.5 0
v 0 1.5 0.1
v 0 1.5 0
v 0 1.6 0.1
v 0 1.6 0
v 0.1 0 0.3
v 0.1 0 -0.2
v 0.1 0.1 0.3
v 0.1 0.1 0.2
v 0.1 0.1 0.1
v 0.1 0.1 -0.1
v 0.1 0.2 0.2
v 0.1 0.2 0.1
v 0.1 0.2 -0.1
v 0.1 0.2 -0.2
v 0.1 0.3 0.1
v 0.1 0.3 -0.1
v 0.1 1.6 0.1
v 0.1 1.6 0
v 0.1 1.7 0.1
v 0.1 1.7 0
v 0.2 0.6 0.4
v 0.2 0.6 0.3
v 0.2 0.7 0.4
v 0.2 0.7 0.3
v 0.2 1.1 0.4
v 0.2 1.1 0.3
v 0.2 1.2 0.4
v 0.2 1.2 0.3
v 0.3 0.7 0.4
v 0.3 0.7 0.3
v 0.3 1.1 0.4
v 0.3 1.1 0.3
v -0.3 0.7 0.4
v -0.3 0.7 0.3
v -0.3 1.1 0.4
v -0.3 1.1 0.3
v -0.2 0.6 0.4
v -0.2 0.6 0.3
v -0.2 0.7 0.4
v -0.2 0.7 0.3
v -0.2 1.1 0.4
v -0.2 1.1 0.3
v -0.2 1.2 0.4
v -0.2 1.2 0.3
v -0.1 0 0.3
v -0.1 0 -0.2
v -0.1 0.1 0.3
v -0.1 0.1 0.2
v -0.1 0.1 0.1
v -0.1 0.1 -0.1
v -0.1 0.2 0.2
v -0.1 0.2 0.1
v -0.1 0.2 -0.1
v -0.1 0.2 -0.2
v -0.1 0.3 0.1
v -0.1 0.3 -0.1
v -0.1 0.7 -0.5
v -0.1 0.7 -0.6
v -0.1 0.8 -0.5
v -0.1 0.8 -0.6
v 0 0.8 -0.5
v 0 0.8 -0.6
v 0 1 -0.5
v 0 1 -0.6
v 0 1.3 0.1
v 0 1.3 0
v 0 1.5 0.1
v 0 1.5 0
v 0.1 0.8 -0.4
v 0.1 0.8 -0.5
v 0.1 1.1 0.4
v 0.1 1.1 0.3
v 0.1 1.1 -0.4
v 0.1 1.1 -0.5
v 0.1 1.2 0.4
v 0.1 1.2 0.3
v 0.1 1.5 0.1
v 0.1 1.5 0
v 0.1 1.6 0.1
v 0.1 1.6 0
v 0.2 0.7 -0.3
v 0.2 0.7 -0.4
v 0.2 0.8 -0.3
v 0.2 0.8 -0.4
v 0.2 1.6 0.1
v 0.2 1.6 0
v 0.2 1.7 0.1
v 0.2 1.7 0
v 0.3 0 0.3
v 0.3 0 -0.2
v 0.3 0.1 0.3
v 0.3 0.1 0.2
v 0.3 0.1 0.1
v 0.3 0.1 -0.1
v 0.3 0.2 0.2
v 0.3 0.2 0.1
v 0.3 0.2 -0.1
v 0.3 0.2 -0.2
v 0.3 0.3 0.1
v 0.3 0.3 -0.1
v 0.3 0.8 -0.3
v 0.3 0.8 -0.4
v 0.3 1.2 0.4
v 0.3 1.2 -0.3
v 0.3 1.2 -0.4
v 0.3 1.3 0.4
v 0.3 1.3 -0.3
v 0.4 0.3 0.3
v 0.4 0.3 -0.2
v 0.4 0.4 0.4
v 0.4 0.4 0.3
v 0.4 0.4 0.2
v 0.4 0.4 0
v 0.4 0.4 -0.2
v 0.4 0.4 -0.3
v 0.4 0.5 0.2
v 0.4 0.5 0
v 0.4 0.6 0
v 0.4 0.6 -0.1
v 0.4 0.9 0
v 0.4 0.9 -0.1
v 0.4 1 0.2
v 0.4 1 0
v 0.4 1.2 0.4
v 0.4 1.2 -0.3
v 0.5 0.6 0
v 0.5 0.6 -0.1
v 0.5 0.9 0.2
v 0.5 0.9 0
v 0.5 0.9 -0.1
v 0.5 1 0.2
v 0.5 1 0
v 0.6 0.4 0.2
v 0.6 0.4 0
v 0.6 0.5 0.2
v 0.6 0.5 0
v 0.6 0.9 0.2
v 0.6 0.9 0
v -0.4 0.4 0.4
v -0.4 1.2 0.4
v -0.3 0.7 0.4
v -0.3 1.1 0.4
v -0.3 1.2 0.4
v -0.3 1.3 0.4
v -0.2 0.6 0.4
v -0.2 0.7 0.4
v -0.2 1.1 0.4
v -0.2 1.2 0.4
v -0.1 1.1 0.4
v -0.1 1.2 0.4
v 0.1 1.1 0.4
v 0.1 1.2 0.4
v 0.2 0.6 0.4
v 0.2 0.7 0.4
v 0.2 1.1 0.4
v 0.2 1.2 0.4
v 0.3 0.7 0.4
v 0.3 1.1 0.4
v 0.3 1.2 0.4
v 0.3 1.3 0.4
v 0.4 0.4 0.4
v 0.4 1.2 0.4
v -0.4 0.3 0.3
v -0.4 0.4 0.3
v -0.3 0 0.3
v -0.3 0.1 0.3
v -0.3 0.7 0.3
v -0.3 1.1 0.3
v -0.2 0.6 0.3
v -0.2 0.7 0.3
v -0.2 0.8 0.3
v -0.2 1 0.3
v -0.2 1.1 0.3
v -0.2 1.2 0.3
v -0.1 0 0.3
v -0.1 0.1 0.3
v -0.1 0.8 0.3
v -0.1 1 0.3
v -0.1 1.1 0.3
v -0.1 1.2 0.3
v 0.1 0 0.3
v 0.1 0.1 0.3
v 0.1 0.8 0.3
v 0.1 1 0.3
v 0.1 1.1 0.3
v 0.1 1.2 0.3
v 0.2 0.6 0.3
v 0.2 0.7 0.3
v 0.2 0.8 0.3
v 0.2 1 0.3
v 0.2 1.1 0.3
v 0.2 1.2 0.3
v 0.3 0 0.3
v 0.3 0.1 0.3
v 0.3 0.7 0.3
v 0.3 1.1 0.3
v 0.4 0.3 0.3
v 0.4 0.4 0.3
v -0.6 0.4 0.2
v -0.6 0.5 0.2
v -0.6 0.9 0.2
v -0.5 0.9 0.2
v -0.5 1 0.2
v -0.4 0.4 0.2
v -0.4 0.5 0.2
v -0.4 1 0.2
v -0.3 0.1 0.2
v -0.3 0.2 0.2
v -0.1 0.1 0.2
v -0.1 0.2 0.2
v 0.1 0.1 0.2
v 0.1 0.2 0.2
v 0.3 0.1 0.2
v 0.3 0.2 0.2
v 0.4 0.4 0.2
v 0.4 0.5 0.2
v 0.4 1 0.2
v 0.5 0.9 0.2
v 0.5 1 0.2
v 0.6 0.4 0.2
v 0.6 0.5 0.2
v 0.6 0.9 0.2
v -0.3 0.2 0.1
v -0.3 0.3 0.1
v -0.1 0.2 0.1
v -0.1 0.3 0.1
v -0.1 1.3 0.1
v -0.1 1.5 0.1
v 0 1.3 0.1
v 0 1.5 0.1
v 0 1.6 0.1
v 0.1 0.2 0.1
v 0.1 0.3 0.1
v 0.1 1.5 0.1
v 0.1 1.6 0.1
v 0.1 1.7 0.1
v 0.2 1.6 0.1
v 0.2 1.7 0.1
v 0.3 0.2 0.1
v 0.3 0.3 0.1
v -0.3 0.7 -0.5
v -0.3 0.9 -0.5
v -0.2 0.8 -0.5
v -0.2 0.9 -0.5
v -0.1 0.7 -0.5
v -0.1 0.8 -0.5
v -0.6 0.4 0
v -0.6 0.5 0
v -0.6 0.9 0
v -0.5 0.6 0
v -0.5 0.9 0
v -0.5 1 0
v -0.4 0.4 0
v -0.4 0.5 0
v -0.4 0.6 0
v -0.4 0.9 0
v -0.4 1 0
v -0.1 1.3 0
v -0.1 1.5 0
v 0 1.3 0
v 0 1.5 0
v 0 1.6 0
v 0.1 1.5 0
v 0.1 1.6 0
v 0.1 1.7 0
v 0.2 1.6 0
v 0.2 1.7 0
v 0.4 0.4 0
v 0.4 0.5 0
v 0.4 0.6 0
v 0.4 0.9 0
v 0.4 1 0
v 0.5 0.6 0
v 0.5 0.9 0
v 0.5 1 0
v 0.6 0.4 0
v 0.6 0.5 0
v 0.6 0.9 0
v -0.5 0.6 -0.1
v -0.5 0.9 -0.1
v -0.4 0.6 -0.1
v -0.4 0.9 -0.1
v -0.3 0.2 -0.1
v -0.3 0.3 -0.1
v -0.1 0.2 -0.1
v -0.1 0.3 -0.1
v 0.1 0.2 -0.1
v 0.1 0.3 -0.1
v 0.3 0.2 -0.1
v 0.3 0.3 -0.1
v 0.4 0.6 -0.1
v 0.4 0.9 -0.1
v 0.5 0.6 -0.1
v 0.5 0.9 -0.1
v -0.4 0.3 -0.2
v -0.4 0.4 -0.2
v -0.3 0 -0.2
v -0.3 0.2 -0.2
v -0.1 0 -0.2
v -0.1 0.2 -0.2
v 0.1 0 -0.2
v 0.1 0.2 -0.2
v 0.3 0 -0.2
v 0.3 0.2 -0.2
v 0.4 0.3 -0.2
v 0.4 0.4 -0.2
v -0.4 0.4 -0.3
v -0.4 1.2 -0.3
v -0.3 0.8 -0.3
v -0.3 1.2 -0.3
v -0.3 1.3 -0.3
v -0.2 0.7 -0.3
v -0.2 0.8 -0.3
v 0.2 0.7 -0.3
v 0.2 0.8 -0.3
v 0.3 0.8 -0.3
v 0.3 1.2 -0.3
v 0.3 1.3 -0.3
v 0.4 0.4 -0.3
v 0.4 1.2 -0.3
v -0.3 0.8 -0.4
v -0.3 1.2 -0.4
v -0.2 0.7 -0.4
v -0.2 0.8 -0.4
v -0.2 1.1 -0.4
v 0.1 0.8 -0.4
v 0.1 1.1 -0.4
v 0.2 0.7 -0.4
v 0.2 0.8 -0.4
v 0.3 0.8 -0.4
v 0.3 1.2 -0.4
v -0.2 1 -0.5
v -0.2 1.1 -0.5
v 0 0.8 -0.5
v 0 1 -0.5
v 0.1 0.8 -0.5
v 0.1 1.1 -0.5
v -0.3 0.7 -0.6
v -0.3 0.9 -0.6
v -0.2 0.9 -0.6
v -0.2 1 -0.6
v -0.1 0.7 -0.6
v -0.1 0.8 -0.6
v 0 0.8 -0.6
v 0 1 -0.6
v -0.3 0 0.3
v -0.1 0 0.3
v 0.1 0 0.3
v 0.3 0 0.3
v -0.3 0 -0.2
v -0.1 0 -0.2
v 0.1 0 -0.2
v 0.3 0 -0.2
v -0.4 0.3 0.3
v 0.4 0.3 0.3
v -0.3 0.3 0.1
v -0.1 0.3 0.1
v 0.1 0.3 0.1
v 0.3 0.3 0.1
v -0.3 0.3 -0.1
v -0.1 0.3 -0.1
v 0.1 0.3 -0.1
v 0.3 0.3 -0.1
v -0.4 0.3 -0.2
v 0.4 0.3 -0.2
v -0.4 0.4 0.4
v 0.4 0.4 0.4
v -0.4 0.4 0.3
v 0.4 0.4 0.3
v -0.6 0.4 0.2
v -0.4 0.4 0.2
v 0.4 0.4 0.2
v 0.6 0.4 0.2
v -0.6 0.4 0
v -0.4 0.4 0
v 0.4 0.4 0
v 0.6 0.4 0
v -0.4 0.4 -0.2
v 0.4 0.4 -0.2
v -0.4 0.4 -0.3
v 0.4 0.4 -0.3
v -0.5 0.6 0
v -0.4 0.6 0
v 0.4 0.6 0
v 0.5 0.6 0
v -0.5 0.6 -0.1
v -0.4 0.6 -0.1
v 0.4 0.6 -0.1
v 0.5 0.6 -0.1
v -0.2 0.7 -0.3
v 0.2 0.7 -0.3
v -0.2 0.7 -0.4
v 0.2 0.7 -0.4
v -0.3 0.7 -0.5
v -0.1 0.7 -0.5
v -0.3 0.7 -0.6
v -0.1 0.7 -0.6
v -0.3 0.8 -0.3
v -0.2 0.8 -0.3
v 0.2 0.8 -0.3
v 0.3 0.8 -0.3
v -0.3 0.8 -0.4
v -0.2 0.8 -0.4
v 0.1 0.8 -0.4
v 0.2 0.8 -0.4
v 0.3 0.8 -0.4
v -0.2 0.8 -0.5
v -0.1 0.8 -0.5
v 0 0.8 -0.5
v 0.1 0.8 -0.5
v -0.1 0.8 -0.6
v 0 0.8 -0.6
v -0.3 1.1 0.4
v -0.2 1.1 0.4
v -0.1 1.1 0.4
v 0.1 1.1 0.4
v 0.2 1.1 0.4
v 0.3 1.1 0.4
v -0.3 1.1 0.3
v -0.2 1.1 0.3
v -0.1 1.1 0.3
v 0.1 1.1 0.3
v 0.2 1.1 0.3
v 0.3 1.1 0.3
v -0.2 1.2 0.4
v -0.1 1.2 0.4
v 0.1 1.2 0.4
v 0.2 1.2 0.4
v -0.2 1.2 0.3
v -0.1 1.2 0.3
v 0.1 1.2 0.3
v 0.2 1.2 0.3
v 0 1.5 0.1
v 0.1 1.5 0.1
v 0 1.5 0
v 0.1 1.5 0
v 0.1 1.6 0.1
v 0.2 1.6 0.1
v 0.1 1.6 0
v 0.2 1.6 0
v -0.3 0.1 0.3
v -0.1 0.1 0.3
v 0.1 0.1 0.3
v 0.3 0.1 0.3
v -0.3 0.1 0.2
v -0.1 0.1 0.2
v 0.1 0.1 0.2
v 0.3 0.1 0.2
v -0.3 0.2 0.2
v -0.1 0.2 0.2
v 0.1 0.2 0.2
v 0.3 0.2 0.2
v -0.3 0.2 0.1
v -0.1 0.2 0.1
v 0.1 0.2 0.1
v 0.3 0.2 0.1
v -0.3 0.2 -0.1
v -0.1 0.2 -0.1
v 0.1 0.2 -0.1
v 0.3 0.2 -0.1
v -0.3 0.2 -0.2
v -0.1 0.2 -0.2
v 0.1 0.2 -0.2
v 0.3 0.2 -0.2
v -0.2 0.6 0.4
v 0.2 0.6 0.4
v -0.2 0.6 0.3
v 0.2 0.6 0.3
v -0.3 0.7 0.4
v -0.2 0.7 0.4
v 0.2 0.7 0.4
v 0.3 0.7 0.4
v -0.3 0.7 0.3
v -0.2 0.7 0.3
v 0.2 0.7 0.3
v 0.3 0.7 0.3
v -0.6 0.9 0.2
v -0.5 0.9 0.2
v 0.5 0.9 0.2
v 0.6 0.9 0.2
v -0.6 0.9 0
v -0.5 0.9 0
v -0.4 0.9 0
v 0.4 0.9 0
v 0.5 0.9 0
v 0.6 0.9 0
v -0.5 0.9 -0.1
v -0.4 0.9 -0.1
v 0.4 0.9 -0.1
v 0.5 0.9 -0.1
v -0.3 0.9 -0.5
v -0.2 0.9 -0.5
v -0.3 0.9 -0.6
v -0.2 0.9 -0.6
v -0.5 1 0.2
v -0.4 1 0.2
v 0.4 1 0.2
v 0.5 1 0.2
v -0.5 1 0
v -0.4 1 0
v 0.4 1 0
v 0.5 1 0
v -0.2 1 -0.5
v 0 1 -0.5
v -0.2 1 -0.6
v 0 1 -0.6
v -0.2 1.1 -0.4
v 0.1 1.1 -0.4
v -0.2 1.1 -0.5
v 0.1 1.1 -0.5
v -0.4 1.2 0.4
v -0.3 1.2 0.4
v 0.3 1.2 0.4
v 0.4 1.2 0.4
v -0.4 1.2 -0.3
v -0.3 1.2 -0.3
v 0.3 1.2 -0.3
v 0.4 1.2 -0.3
v -0.3 1.2 -0.4
v 0.3 1.2 -0.4
v -0.3 1.3 0.4
v 0.3 1.3 0.4
v -0.1 1.3 0.1
v 0 1.3 0.1
v -0.1 1.3 0
v 0 1.3 0
v -0.3 1.3 -0.3
v 0.3 1.3 -0.3
v -0.1 1.5 0.1
v 0 1.5 0.1
v -0.1 1.5 0
v 0 1.5 0
v 0 1.6 0.1
v 0.1 1.6 0.1
v 0 1.6 0
v 0.1 1.6 0
v 0.1 1.7 0.1
v 0.2 1.7 0.1
v 0.1 1.7 0
v 0.2 1.7 0

# faces
f 3/5/1 2/5/1 1/5/1
f 4/5/1 2/5/1 3/5/1
f 5/2/1 4/2/1 3/2/1
f 6/2/1 4/2/1 5/2/1
f 10/3/1 8/3/1 7/3/1
f 11/3/1 8/3/1 10/3/1
f 12/2/1 10/2/1 9/2/1
f 13/2/1 10/2/1 12/2/1
f 17/2/1 15/2/1 14/2/1
f 18/2/1 15/2/1 17/2/1
f 19/2/1 15/2/1 18/2/1
f 20/2/1 15/2/1 19/2/1
f 22/2/1 17/2/1 16/2/1
f 22/2/1 18/2/1 17/2/1
f 23/2/1 21/2/1 20/2/1
f 23/2/1 20/2/1 19/2/1
f 24/2/1 21/2/1 23/2/1
f 25/2/1 21/2/1 24/2/1
f 27/2/1 21/2/1 25/2/1
f 28/2/1 22/2/1 16/2/1
f 29/2/1 27/2/1 26/2/1
f 30/2/1 28/2/1 16/2/1
f 30/2/1 29/2/1 28/2/1
f 31/2/1 27/2/1 29/2/1
f 31/2/1 29/2/1 30/2/1
f 31/2/1 21/2/1 27/2/1
f 34/2/1 33/2/1 32/2/1
f 35/2/1 33/2/1 34/2/1
f 36/2/1 33/2/1 35/2/1
f 37/2/1 33/2/1 36/2/1
f 38/2/1 36/2/1 35/2/1
f 39/3/1 37/3/1 36/3/1
f 39/2/1 36/2/1 38/2/1
f 40/2/1 33/2/1 37/2/1
f 40/3/1 37/3/1 39/3/1
f 41/2/1 33/2/1 40/2/1
f 42/3/1 40/3/1 39/3/1
f 43/3/1 40/3/1 42/3/1
f 48/2/1 45/2/1 44/2/1
f 49/2/1 45/2/1 48/2/1
f 51/2/1 47/2/1 46/2/1
f 52/2/1 47/2/1 51/2/1
f 53/2/1 51/2/1 50/2/1
f 54/2/1 51/2/1 53/2/1
f 57/2/1 56/2/1 55/2/1
f 58/2/1 56/2/1 57/2/1
f 60/2/1 59/2/1 58/2/1
f 62/2/1 60/2/1 58/2/1
f 62/2/1 61/2/1 60/2/1
f 63/2/1 61/2/1 62/2/1
f 64/2/1 62/2/1 58/2/1
f 65/2/1 62/2/1 64/2/1
f 68/2/1 67/2/1 66/2/1
f 69/2/1 67/2/1 68/2/1
f 72/1/1 71/1/1 70/1/1
f 73/1/1 71/1/1 72/1/1
f 76/1/1 75/1/1 74/1/1
f 77/1/1 75/1/1 76/1/1
f 80/2/1 79/2/1 78/2/1
f 81/2/1 79/2/1 80/2/1
f 82/2/1 79/2/1 81/2/1
f 83/2/1 79/2/1 82/2/1
f 84/2/1 82/2/1 81/2/1
f 85/3/1 83/3/1 82/3/1
f 85/2/1 82/2/1 84/2/1
f 86/2/1 79/2/1 83/2/1
f 86/3/1 83/3/1 85/3/1
f 87/2/1 79/2/1 86/2/1
f 88/3/1 86/3/1 85/3/1
f 89/3/1 86/3/1 88/3/1
f 92/1/1 91/1/1 90/1/1
f 93/1/1 91/1/1 92/1/1
f 96/2/1 95/2/1 94/2/1
f 97/2/1 95/2/1 96/2/1
f 100/2/1 99/2/1 98/2/1
f 101/2/1 99/2/1 100/2/1
f 104/2/1 103/2/1 102/2/1
f 105/2/1 103/2/1 104/2/1
f 106/2/2 107/2/2 108/2/2
f 108/2/2 107/2/2 109/2/2
f 110/2/2 111/2/2 112/2/2
f 112/2/2 111/2/2 113/2/2
f 114/2/2 115/2/2 116/2/2
f 116/2/2 115/2/2 117/2/2
f 118/2/2 119/2/2 120/2/2
f 120/2/2 119/2/2 121/2/2
f 121/2/2 119/2/2 122/2/2
f 122/2/2 119/2/2 123/2/2
f 121/2/2 122/2/2 124/2/2
f 122/3/2 123/3/2 125/3/2
f 124/2/2 122/2/2 125/2/2
f 123/2/2 119/2/2 126/2/2
f 125/3/2 123/3/2 126/3/2
f 126/2/2 119/2/2 127/2/2
f 125/3/2 126/3/2 128/3/2
f 128/3/2 126/3/2 129/3/2
f 130/2/2 131/2/2 132/2/2
f 132/2/2 131/2/2 133/2/2
f 134/2/2 135/2/2 136/2/2
f 136/2/2 135/2/2 137/2/2
f 138/1/2 139/1/2 140/1/2
f 140/1/2 139/1/2 141/1/2
f 142/2/2 143/2/2 146/2/2
f 146/2/2 143/2/2 147/2/2
f 144/2/2 145/2/2 148/2/2
f 148/2/2 145/2/2 149/2/2
f 150/1/2 151/1/2 152/1/2
f 152/1/2 151/1/2 153/1/2
f 154/2/2 155/2/2 156/2/2
f 156/2/2 155/2/2 157/2/2
f 158/1/2 159/1/2 160/1/2
f 160/1/2 159/1/2 161/1/2
f 162/2/2 163/2/2 164/2/2
f 164/2/2 163/2/2 165/2/2
f 165/2/2 163/2/2 166/2/2
f 166/2/2 163/2/2 167/2/2
f 165/2/2 166/2/2 168/2/2
f 166/3/2 167/3/2 169/3/2
f 168/2/2 166/2/2 169/2/2
f 167/2/2 163/2/2 170/2/2
f 169/3/2 167/3/2 170/3/2
f 170/2/2 163/2/2 171/2/2
f 169/3/2 170/3/2 172/3/2
f 172/3/2 170/3/2 173/3/2
f 174/2/2 175/2/2 177/2/2
f 177/2/2 175/2/2 178/2/2
f 176/2/2 177/2/2 179/2/2
f 179/2/2 177/2/2 180/2/2
f 181/2/2 182/2/2 184/2/2
f 184/2/2 182/2/2 185/2/2
f 185/2/2 182/2/2 186/2/2
f 186/2/2 182/2/2 187/2/2
f 183/2/2 184/2/2 189/2/2
f 184/2/2 185/2/2 189/2/2
f 187/2/2 188/2/2 190/2/2
f 186/2/2 187/2/2 190/2/2
f 190/2/2 188/2/2 191/2/2
f 191/2/2 188/2/2 192/2/2
f 192/2/2 188/2/2 194/2/2
f 183/2/2 189/2/2 195/2/2
f 193/2/2 194/2/2 196/2/2
f 183/2/2 195/2/2 197/2/2
f 195/2/2 196/2/2 197/2/2
f 196/2/2 194/2/2 198/2/2
f 197/2/2 196/2/2 198/2/2
f 194/2/2 188/2/2 198/2/2
f 199/3/2 200/3/2 202/3/2
f 202/3/2 200/3/2 203/3/2
f 201/2/2 202/2/2 204/2/2
f 204/2/2 202/2/2 205/2/2
f 206/5/2 207/5/2 208/5/2
f 208/5/2 207/5/2 209/5/2
f 208/2/2 209/2/2 210/2/2
f 210/2/2 209/2/2 211/2/2
f 214/2/3 213/2/3 212/2/3
f 215/2/3 213/2/3 214/2/3
f 216/2/3 213/2/3 215/2/3
f 218/2/3 214/2/3 212/2/3
f 219/2/3 214/2/3 218/2/3
f 220/2/3 217/2/3 216/2/3
f 220/2/3 216/2/3 215/2/3
f 221/2/3 217/2/3 220/2/3
f 223/2/3 217/2/3 221/2/3
f 224/2/3 223/2/3 222/2/3
f 225/2/3 217/2/3 223/2/3
f 225/2/3 223/2/3 224/2/3
f 226/2/3 218/2/3 212/2/3
f 229/2/3 217/2/3 225/2/3
f 230/2/3 227/2/3 226/2/3
f 231/2/3 229/2/3 228/2/3
f 232/2/3 217/2/3 229/2/3
f 232/2/3 229/2/3 231/2/3
f 233/2/3 217/2/3 232/2/3
f 234/2/3 230/2/3 226/2/3
f 234/2/3 226/2/3 212/2/3
f 234/2/3 232/2/3 231/2/3
f 234/2/3 231/2/3 230/2/3
f 235/2/3 232/2/3 234/2/3
f 243/3/3 241/3/3 240/3/3
f 244/3/3 241/3/3 243/3/3
f 245/3/3 241/3/3 244/3/3
f 246/3/3 241/3/3 245/3/3
f 248/2/3 239/2/3 238/2/3
f 249/2/3 239/2/3 248/2/3
f 250/3/3 243/3/3 242/3/3
f 250/3/3 244/3/3 243/3/3
f 250/4/3 245/4/3 244/4/3
f 251/3/3 247/3/3 246/3/3
f 251/4/3 245/4/3 250/4/3
f 251/3/3 246/3/3 245/3/3
f 252/3/3 247/3/3 251/3/3
f 253/3/3 247/3/3 252/3/3
f 256/3/3 250/3/3 242/3/3
f 256/3/3 251/3/3 250/3/3
f 256/3/3 252/3/3 251/3/3
f 257/3/3 252/3/3 256/3/3
f 258/3/3 252/3/3 257/3/3
f 260/3/3 256/3/3 242/3/3
f 261/3/3 256/3/3 260/3/3
f 262/4/3 257/4/3 256/4/3
f 262/3/3 256/3/3 261/3/3
f 263/3/3 259/3/3 258/3/3
f 263/4/3 257/4/3 262/4/3
f 263/3/3 258/3/3 257/3/3
f 264/3/3 259/3/3 263/3/3
f 265/3/3 259/3/3 264/3/3
f 266/2/3 255/2/3 254/2/3
f 267/2/3 255/2/3 266/2/3
f 268/3/3 262/3/3 261/3/3
f 268/3/3 264/3/3 263/3/3
f 268/3/3 263/3/3 262/3/3
f 269/3/3 264/3/3 268/3/3
f 270/2/3 237/2/3 236/2/3
f 271/2/3 237/2/3 270/2/3
f 275/2/3 274/2/3 273/2/3
f 277/5/3 273/5/3 272/5/3
f 278/2/3 276/2/3 275/2/3
f 278/5/3 273/5/3 277/5/3
f 278/2/3 275/2/3 273/2/3
f 279/2/3 276/2/3 278/2/3
f 282/2/3 281/2/3 280/2/3
f 283/2/3 281/2/3 282/2/3
f 286/2/3 285/2/3 284/2/3
f 287/2/3 285/2/3 286/2/3
f 291/2/3 290/2/3 289/2/3
f 292/2/3 290/2/3 291/2/3
f 293/5/3 289/5/3 288/5/3
f 294/2/3 291/2/3 289/2/3
f 294/5/3 289/5/3 293/5/3
f 295/2/3 291/2/3 294/2/3
f 298/3/3 297/3/3 296/3/3
f 299/3/3 297/3/3 298/3/3
f 302/1/3 301/1/3 300/1/3
f 303/1/3 301/1/3 302/1/3
f 307/1/3 304/1/3 303/1/3
f 308/1/3 304/1/3 307/1/3
f 310/1/3 309/1/3 308/1/3
f 311/1/3 309/1/3 310/1/3
f 312/3/3 306/3/3 305/3/3
f 313/3/3 306/3/3 312/3/3
f 316/2/3 315/2/3 314/2/3
f 317/2/3 315/2/3 316/2/3
f 318/2/3 316/2/3 314/2/3
f 319/2/3 316/2/3 318/2/3
f 321/2/4 322/2/4 323/2/4
f 323/2/4 322/2/4 324/2/4
f 320/5/4 321/5/4 326/5/4
f 321/2/4 323/2/4 327/2/4
f 326/5/4 321/5/4 327/5/4
f 327/2/4 323/2/4 328/2/4
f 324/2/4 325/2/4 329/2/4
f 329/2/4 325/2/4 330/2/4
f 331/1/4 332/1/4 333/1/4
f 333/1/4 332/1/4 334/1/4
f 334/1/4 335/1/4 336/1/4
f 336/1/4 335/1/4 337/1/4
f 337/1/4 338/1/4 339/1/4
f 339/1/4 338/1/4 340/1/4
f 342/2/4 343/2/4 346/2/4
f 344/2/4 345/2/4 347/2/4
f 347/2/4 345/2/4 348/2/4
f 341/5/4 342/5/4 349/5/4
f 342/2/4 346/2/4 350/2/4
f 349/5/4 342/5/4 350/5/4
f 346/2/4 347/2/4 350/2/4
f 350/2/4 347/2/4 351/2/4
f 352/3/4 353/3/4 354/3/4
f 354/3/4 353/3/4 355/3/4
f 356/3/4 357/3/4 358/3/4
f 358/3/4 357/3/4 359/3/4
f 360/3/4 361/3/4 362/3/4
f 362/3/4 361/3/4 363/3/4
f 364/3/4 365/3/4 366/3/4
f 366/3/4 365/3/4 367/3/4
f 370/2/4 371/2/4 372/2/4
f 372/2/4 371/2/4 373/2/4
f 374/2/4 375/2/4 376/2/4
f 376/2/4 375/2/4 377/2/4
f 368/2/4 369/2/4 378/2/4
f 378/2/4 369/2/4 379/2/4
f 380/2/4 381/2/4 382/2/4
f 382/2/4 381/2/4 383/2/4
f 380/2/4 382/2/4 385/2/4
f 385/2/4 382/2/4 386/2/4
f 380/2/4 385/2/4 387/2/4
f 387/2/4 388/2/4 389/2/4
f 383/2/4 384/2/4 390/2/4
f 390/2/4 384/2/4 391/2/4
f 387/2/4 389/2/4 392/2/4
f 380/2/4 387/2/4 392/2/4
f 389/2/4 390/2/4 392/2/4
f 392/2/4 390/2/4 393/2/4
f 394/2/4 395/2/4 397/2/4
f 397/2/4 395/2/4 398/2/4
f 396/2/4 397/2/4 399/2/4
f 398/2/4 395/2/4 400/2/4
f 396/2/4 399/2/4 401/2/4
f 399/2/4 400/2/4 401/2/4
f 401/2/4 400/2/4 402/2/4
f 402/2/4 400/2/4 403/2/4
f 400/2/4 395/2/4 404/2/4
f 403/2/4 400/2/4 404/2/4
f 405/2/4 406/2/4 408/2/4
f 407/2/4 408/2/4 409/2/4
f 408/2/4 406/2/4 410/2/4
f 409/2/4 408/2/4 410/2/4
f 411/2/4 412/2/4 413/2/4
f 411/2/4 413/2/4 415/2/4
f 413/2/4 414/2/4 415/2/4
f 415/2/4 414/2/4 416/2/4
f 416/2/4 414/2/4 417/2/4
f 417/2/4 414/2/4 418/2/4
f 423/2/5 420/2/5 419/2/5
f 424/2/5 420/2/5 423/2/5
f 425/2/5 422/2/5 421/2/5
f 426/2/5 422/2/5 425/2/5
f 429/2/5 428/2/5 427/2/5
f 430/2/5 428/2/5 429/2/5
f 431/2/5 428/2/5 430/2/5
f 432/2/5 428/2/5 431/2/5
f 433/2/5 429/2/5 427/2/5
f 434/2/5 431/2/5 430/2/5
f 435/2/5 431/2/5 434/2/5
f 436/2/5 428/2/5 432/2/5
f 437/2/5 435/2/5 434/2/5
f 437/2/5 436/2/5 435/2/5
f 437/2/5 433/2/5 427/2/5
f 437/2/5 434/2/5 433/2/5
f 438/2/5 428/2/5 436/2/5
f 438/2/5 436/2/5 437/2/5
f 441/2/5 440/2/5 439/2/5
f 442/2/5 440/2/5 441/2/5
f 447/5/5 444/5/5 443/5/5
f 448/5/5 444/5/5 447/5/5
f 449/5/5 446/5/5 445/5/5
f 450/5/5 446/5/5 449/5/5
f 453/2/5 452/2/5 451/2/5
f 454/2/5 452/2/5 453/2/5
f 459/3/5 456/3/5 455/3/5
f 460/3/5 456/3/5 459/3/5
f 461/3/5 458/3/5 457/3/5
f 462/3/5 458/3/5 461/3/5
f 465/2/5 464/2/5 463/2/5
f 466/2/5 464/2/5 465/2/5
f 469/2/5 468/2/5 467/2/5
f 470/2/5 468/2/5 469/2/5
f 475/2/5 472/2/5 471/2/5
f 476/2/5 472/2/5 475/2/5
f 478/2/5 474/2/5 473/2/5
f 479/2/5 474/2/5 478/2/5
f 480/2/5 477/2/5 476/2/5
f 481/2/5 477/2/5 480/2/5
f 482/2/5 477/2/5 481/2/5
f 483/2/5 477/2/5 482/2/5
f 484/2/5 482/2/5 481/2/5
f 485/2/5 482/2/5 484/2/5
f 492/2/5 487/2/5 486/2/5
f 493/2/5 487/2/5 492/2/5
f 494/2/5 489/2/5 488/2/5
f 495/2/5 489/2/5 494/2/5
f 496/2/5 491/2/5 490/2/5
f 497/2/5 491/2/5 496/2/5
f 502/2/5 499/2/5 498/2/5
f 503/2/5 499/2/5 502/2/5
f 504/2/5 501/2/5 500/2/5
f 505/2/5 501/2/5 504/2/5
f 508/1/5 507/1/5 506/1/5
f 509/1/5 507/1/5 508/1/5
f 512/1/5 511/1/5 510/1/5
f 513/1/5 511/1/5 512/1/5
f 514/2/6 515/2/6 518/2/6
f 518/2/6 515/2/6 519/2/6
f 516/2/6 517/2/6 520/2/6
f 520/2/6 517/2/6 521/2/6
f 522/2/6 523/2/6 526/2/6
f 526/2/6 523/2/6 527/2/6
f 524/2/6 525/2/6 528/2/6
f 528/2/6 525/2/6 529/2/6
f 530/2/6 531/2/6 534/2/6
f 534/2/6 531/2/6 535/2/6
f 532/2/6 533/2/6 536/2/6
f 536/2/6 533/2/6 537/2/6
f 538/2/6 539/2/6 540/2/6
f 540/2/6 539/2/6 541/2/6
f 542/2/6 543/2/6 546/2/6
f 546/2/6 543/2/6 547/2/6
f 544/2/6 545/2/6 548/2/6
f 548/2/6 545/2/6 549/2/6
f 550/2/6 551/2/6 554/2/6
f 554/2/6 551/2/6 555/2/6
f 552/2/6 553/2/6 558/2/6
f 558/2/6 553/2/6 559/2/6
f 555/3/6 556/3/6 560/3/6
f 560/3/6 556/3/6 561/3/6
f 557/3/6 558/3/6 562/3/6
f 562/3/6 558/3/6 563/3/6
f 564/2/6 565/2/6 566/2/6
f 566/2/6 565/2/6 567/2/6
f 568/2/6 569/2/6 572/2/6
f 572/2/6 569/2/6 573/2/6
f 570/2/6 571/2/6 574/2/6
f 574/2/6 571/2/6 575/2/6
f 576/2/6 577/2/6 578/2/6
f 578/2/6 577/2/6 579/2/6
f 580/2/6 581/2/6 582/2/6
f 582/2/6 581/2/6 583/2/6
f 584/2/6 585/2/6 588/2/6
f 588/2/6 585/2/6 589/2/6
f 586/2/6 587/2/6 590/2/6
f 590/2/6 587/2/6 591/2/6
f 589/2/6 590/2/6 592/2/6
f 592/2/6 590/2/6 593/2/6
f 594/2/6 595/2/6 596/2/6
f 596/2/6 595/2/6 597/2/6
f 594/2/6 596/2/6 598/2/6
f 597/2/6 595/2/6 599/2/6
f 594/2/6 598/2/6 600/2/6
f 598/2/6 599/2/6 600/2/6
f 599/2/6 595/2/6 601/2/6
f 600/2/6 599/2/6 601/2/6
f 602/1/6 603/1/6 604/1/6
f 604/1/6 603/1/6 605/1/6
f 606/1/6 607/1/6 608/1/6
f 608/1/6 607/1/6 609/1/6
f 610/1/6 611/1/6 612/1/6
f 612/1/6 611/1/6 613/1/6
